<svg xmlns="http://www.w3.org/2000/svg"><defs><font id="FilmP3Bold" horiz-adv-x="565"><font-face font-family="Film P3 Bold" font-weight="700" units-per-em="2048" panose-1="2 0 8 3 0 0 0 0 0 0" ascent="1843" descent="-205" x-height="1208" cap-height="1434" bbox="61 -188 1094 1831" underline-thickness="102" underline-position="-307" unicode-range="U+0020-2212"/><glyph glyph-name=".notdef" horiz-adv-x="425"/><glyph glyph-name=".null" horiz-adv-x="0"/><glyph glyph-name="nonmarkingreturn" horiz-adv-x="682"/><glyph glyph-name="space" horiz-adv-x="425"/><glyph glyph-name="exclam" unicode="!" horiz-adv-x="270" d="M61 295v1139h148V295H61zM61 0v147h148V0H61z"/><glyph glyph-name="quotedbl" unicode="&quot;" horiz-adv-x="479" d="M61 1286v148h148v-279h-62v131H61zm209 148h148v-279h-62v131h-86v148z"/><glyph glyph-name="numbersign" unicode="#" horiz-adv-x="860" d="M799 1004H651V430h148V295H651V0H504v295H356V0H209v295H61v135h148v574H61v135h148v295h147v-295h148v295h147v-295h148v-135zM504 430v574H356V430h148z"/><glyph glyph-name="dollar" unicode="$" d="M504 1004H356v221q0 31-21 52t-52 21-52.5-21-21.5-52V858q0-31 21.5-52.5T283 784q92 0 156.5-64.5T504 563V221q0-71-41.5-128T356 12v-143H209V12q-65 24-106.5 81T61 221v209h148V209q0-31 21.5-52.5T283 135t52 21.5 21 52.5v366q0 31-21 52.5T283 649q-92 0-157 64.5T61 870v342q0 71 41.5 128t106.5 81v144h147v-144q65-24 106.5-81t41.5-128v-208z"/><glyph glyph-name="percent" unicode="%" horiz-adv-x="729" d="M535 0h-54q-55 0-94 39t-39 94v80q0 55 39 94t94 39h54q55 0 94-39t39-94v-80q0-55-39-94T535 0zm-54 248q-13 0-24-11t-11-24v-80q0-13 11-24t24-11h54q13 0 23.5 10.5T569 133v80q0 14-10.5 24.5T535 248h-54zm-233 839h-53q-55 0-94.5 39.5T61 1221v79q0 56 39.5 95t94.5 39h53q55 0 94-39t39-95v-79q0-56-39-95t-94-39zm-53 248q-13 0-24-10.5t-11-24.5v-79q0-13 11-24t24-11h53q14 0 24.5 11t10.5 24v79q0 14-10.5 24.5T248 1335h-53zM96 14l443 1434 94-29L190-14z"/><glyph glyph-name="ampersand" unicode="&amp;" horiz-adv-x="712" d="M651 784V649H504V221q0-92-64.5-156.5T283 0 126 64.5 61 221v342q0 92 62 154-62 62-62 153v342q0 92 65 157t157 65 156.5-65 64.5-157v-208H356v221q0 31-21 52t-52 21-52.5-21-21.5-52V858q0-31 21.5-52.5T283 784h368zM356 209v440h-73q-31 0-52.5-21.5T209 575V209q0-31 21.5-52.5T283 135t52 21.5 21 52.5z"/><glyph glyph-name="quotesingle" unicode="'" horiz-adv-x="270" d="M61 1286v148h148v-279h-62v131H61z"/><glyph glyph-name="parenleft" unicode="(" horiz-adv-x="516" d="M61 61v1311q0 82 57.5 139.5T258 1569h197v-135H258q-20 0-34.5-15t-14.5-35V49q0-20 14.5-34.5T258 0h197v-135H258q-82 0-139.5 57T61 61z"/><glyph glyph-name="parenright" unicode=")" horiz-adv-x="516" d="M455 61q0-82-57.5-139T258-135H61V0h197q20 0 34.5 14.5T307 49v1335q0 20-14.5 35t-34.5 15H61v135h197q82 0 139.5-57.5T455 1372V61z"/><glyph glyph-name="asterisk" unicode="*" horiz-adv-x="684" d="m623 1253-162-114 162-115-78-111-135 97V844H274v166l-135-97-78 111 162 115-162 114 78 111 135-96v166h136v-166l135 96z"/><glyph glyph-name="plus" unicode="+" d="M504 784V649H350V496H215v153H61v135h154v154h135V784h154z"/><glyph glyph-name="comma" unicode="," horiz-adv-x="270" d="M61 147h148V0l-41-131h-53L147 0H61v147z"/><glyph glyph-name="hyphen" unicode="-" horiz-adv-x="417" d="M61 649v135h295V649H61z"/><glyph glyph-name="period" unicode="." horiz-adv-x="270" d="M61 0v147h148V0H61z"/><glyph glyph-name="slash" unicode="/" horiz-adv-x="659" d="m61 14 443 1434 94-29L156-14z"/><glyph glyph-name="zero" unicode="0" d="M283 1434q92 0 156.5-65t64.5-157V221q0-92-64.5-156.5T283 0 126 64.5 61 221v991q0 92 65 157t157 65zm73-1225v1016q0 31-21 52t-52 21-52.5-21-21.5-52V209q0-31 21.5-52.5T283 135t52 21.5 21 52.5z"/><glyph glyph-name="one" unicode="1" horiz-adv-x="344" d="M139 1434q60 0 102-42t42-102V0H135v1298H61v136h78z"/><glyph glyph-name="two" unicode="2" d="M283 1434q92 0 156.5-65t64.5-157V870q0-92-64.5-156.5T283 649q-31 0-52.5-21.5T209 575V135h295V0H61v563q0 92 65 156.5T283 784q31 0 52 21.5t21 52.5v367q0 31-21 52t-52 21-52.5-21-21.5-52v-221H61v208q0 92 65 157t157 65z"/><glyph glyph-name="three" unicode="3" d="M283 1434q92 0 156.5-65t64.5-157V870q0-89-64-153 64-64 64-154V221q0-92-64.5-156.5T283 0 126 64.5 61 221v209h148V209q0-31 21.5-52.5T283 135t52 21.5 21 52.5v366q0 31-21 52.5T283 649h-74v135h74q31 0 52 21.5t21 52.5v367q0 31-21 52t-52 21-52.5-21-21.5-52v-221H61v208q0 92 65 157t157 65z"/><glyph glyph-name="four" unicode="4" d="M356 784v650h148V0H356v649h-73q-92 0-157 64.5T61 870v564h148V858q0-31 21.5-52.5T283 784h73z"/><glyph glyph-name="five" unicode="5" d="M61 870v564h443v-136H209V858q0-31 21.5-52.5T283 784h77q60 0 102-41.5T504 641V221q0-92-64.5-156.5T283 0 126 64.5 61 221v209h148V209q0-31 21.5-52.5T283 135t52 21.5 21 52.5v440h-73q-92 0-157 64.5T61 870z"/><glyph glyph-name="six" unicode="6" d="M283 1434q92 0 156.5-65t64.5-157v-208H356v221q0 31-21 52t-52 21-52.5-21-21.5-52V784h74q92 0 156.5-64.5T504 563V221q0-92-64.5-156.5T283 0 126 64.5 61 221v991q0 92 65 157t157 65zm73-859q0 31-21 52.5T283 649h-74V209q0-31 21.5-52.5T283 135t52 21.5 21 52.5v366z"/><glyph glyph-name="seven" unicode="7" d="M283 1434q92 0 156.5-65t64.5-157V0H356v1225q0 31-21 52t-52 21-52.5-21-21.5-52v-221H61v208q0 92 65 157t157 65z"/><glyph glyph-name="eight" unicode="8" d="M283 1434q92 0 156.5-65t64.5-157V870q0-89-64-153 64-64 64-154V221q0-92-64.5-156.5T283 0 126 64.5 61 221v342q0 90 64 154-64 64-64 153v342q0 92 65 157t157 65zm-74-209V858q0-31 21.5-52.5T283 784t52 21.5 21 52.5v367q0 31-21 52t-52 21-52.5-21-21.5-52zM356 209v366q0 31-21 52.5T283 649t-52.5-21.5T209 575V209q0-31 21.5-52.5T283 135t52 21.5 21 52.5z"/><glyph glyph-name="nine" unicode="9" d="M283 1434q92 0 156.5-65t64.5-157V221q0-92-64.5-156.5T283 0 126 64.5 61 221v209h148V209q0-31 21.5-52.5T283 135t52 21.5 21 52.5v440h-73q-92 0-157 64.5T61 870v342q0 92 65 157t157 65zm-74-576q0-31 21.5-52.5T283 784h73v441q0 31-21 52t-52 21-52.5-21-21.5-52V858z"/><glyph glyph-name="colon" unicode=":" horiz-adv-x="270" d="M61 0v147h148V0H61zm0 643v148h148V643H61z"/><glyph glyph-name="semicolon" unicode=";" horiz-adv-x="270" d="M61 643v148h148V643H61zm0-496h148V0l-41-131h-53L147 0H61v147z"/><glyph glyph-name="less" unicode="&lt;" horiz-adv-x="577" d="M422 356 61 717l361 360 94-96-264-264 264-264z"/><glyph glyph-name="equal" unicode="=" d="M61 784v136h443V784H61zm0-270v135h443V514H61z"/><glyph glyph-name="greater" unicode="&gt;" horiz-adv-x="577" d="m156 356-95 97 265 264L61 981l95 96 360-360z"/><glyph glyph-name="question" unicode="?" d="M61 0v147h148V0H61zm222 1434q92 0 156.5-65t64.5-157V870q0-92-64.5-156.5T283 649q-31 0-52.5-21.5T209 575V295H61v268q0 92 65 156.5T283 784q31 0 52 21.5t21 52.5v367q0 31-21 52t-52 21-52.5-21-21.5-52v-221H61v208q0 92 65 157t157 65z"/><glyph glyph-name="at" unicode="@" horiz-adv-x="1155" d="M942 1057q73-73 112.5-167.5T1094 692V504q0-92-65-156.5T872 283H578q-92 0-157 64.5T356 504v201q0 92 65 156.5T578 926t156.5-64.5T799 705V504q0-35-19-86h92q31 0 52.5 21.5T946 492v213q0 152-108 260t-260 108-260.5-108T209 705V504q0-152 108.5-260.5T578 135h294V0H578Q475 0 380.5 39.5T213 152Q61 304 61 516v176q0 103 39.5 197.5T213 1057q151 151 365 151 213 0 364-151zM504 492q0-31 21.5-52.5T578 418t52 21.5 21 52.5v225q0 31-21 52.5T578 791t-52.5-21.5T504 717V492z"/><glyph glyph-name="A" unicode="A" d="M283 1434q92 0 156.5-65t64.5-157V0H356v649H209V0H61v1212q0 92 65 157t157 65zm-74-650h147v441q0 31-21 52t-52 21-52.5-21-21.5-52V784z"/><glyph glyph-name="B" unicode="B" d="M283 1434q92 0 156.5-65t64.5-157V870q0-89-64-153 64-64 64-154V221q0-92-64.5-156.5T283 0H61v1434h222zm-74-136V784h74q31 0 52 21.5t21 52.5v367q0 31-21 52t-52 21h-74zM356 209v366q0 31-21 52.5T283 649h-74V135h74q31 0 52 21.5t21 52.5z"/><glyph glyph-name="C" unicode="C" d="M283 1434q92 0 156.5-65t64.5-157v-208H356v221q0 31-21 52t-52 21-52.5-21-21.5-52V209q0-31 21.5-52.5T283 135t52 21.5 21 52.5v221h148V221q0-92-64.5-156.5T283 0 126 64.5 61 221v991q0 92 65 157t157 65z"/><glyph glyph-name="D" unicode="D" d="M283 1434q92 0 156.5-65t64.5-157V221q0-92-64.5-156.5T283 0H61v1434h222zm73-1225v1016q0 31-21 52t-52 21h-74V135h74q31 0 52 21.5t21 52.5z"/><glyph glyph-name="E" unicode="E" d="M283 1434q92 0 156.5-65t64.5-157v-208H356v221q0 31-21 52t-52 21-52.5-21-21.5-52V784h147V649H209V209q0-31 21.5-52.5T283 135t52 21.5 21 52.5v221h148V221q0-92-64.5-156.5T283 0 126 64.5 61 221v991q0 92 65 157t157 65z"/><glyph glyph-name="F" unicode="F" d="M283 1434q92 0 156.5-65t64.5-157v-208H356v221q0 31-21 52t-52 21-52.5-21-21.5-52V784h147V649H209V0H61v1212q0 92 65 157t157 65z"/><glyph glyph-name="G" unicode="G" d="M283 1434q92 0 156.5-65t64.5-157v-208H356v221q0 31-21 52t-52 21-52.5-21-21.5-52V209q0-31 21.5-52.5T283 135t52 21.5 21 52.5v440h-73v135h221V221q0-92-64.5-156.5T283 0 126 64.5 61 221v991q0 92 65 157t157 65z"/><glyph glyph-name="H" unicode="H" d="M356 784v650h148V0H356v649H209V0H61v1434h148V784h147z"/><glyph glyph-name="I" unicode="I" horiz-adv-x="270" d="M61 0v1434h148V0H61z"/><glyph glyph-name="J" unicode="J" d="M61 1434h443V221q0-92-64.5-156.5T283 0 126 64.5 61 221v428h148V209q0-31 21.5-52.5T283 135t52 21.5 21 52.5v1089H61v136z"/><glyph glyph-name="K" unicode="K" d="M356 858v576h148V870q0-89-64-153 64-64 64-154V0H356v575q0 31-21 52.5T283 649h-74V0H61v1434h148V784h74q31 0 52 21.5t21 52.5z"/><glyph glyph-name="L" unicode="L" d="M356 209v221h148V221q0-92-64.5-156.5T283 0 126 64.5 61 221v1213h148V209q0-31 21.5-52.5T283 135t52 21.5 21 52.5z"/><glyph glyph-name="M" unicode="M" horiz-adv-x="860" d="M578 1434q92 0 156.5-65t64.5-157V0H651v1225q0 31-21 52t-52 21-52.5-21-21.5-52V0H356v1225q0 31-21 52t-52 21-52.5-21-21.5-52V0H61v1212q0 92 65 157t157 65q82 0 147-58 65 58 148 58z"/><glyph glyph-name="N" unicode="N" d="M283 1434q92 0 156.5-65t64.5-157V0H356v1225q0 31-21 52t-52 21-52.5-21-21.5-52V0H61v1212q0 92 65 157t157 65z"/><glyph glyph-name="O" unicode="O" d="M283 1434q92 0 156.5-65t64.5-157V221q0-92-64.5-156.5T283 0 126 64.5 61 221v991q0 92 65 157t157 65zm73-1225v1016q0 31-21 52t-52 21-52.5-21-21.5-52V209q0-31 21.5-52.5T283 135t52 21.5 21 52.5z"/><glyph glyph-name="P" unicode="P" d="M283 1434q92 0 156.5-65t64.5-157V870q0-92-64.5-156.5T283 649h-74V0H61v1434h222zm73-576v367q0 31-21 52t-52 21h-74V784h74q31 0 52 21.5t21 52.5z"/><glyph glyph-name="Q" unicode="Q" d="M283 1434q92 0 156.5-65t64.5-157V221q0-71-41-127T356 14v-137H209V14q-66 24-107 80T61 221v991q0 92 65 157t157 65zm73-1225v1016q0 31-21 52t-52 21-52.5-21-21.5-52V209q0-31 21.5-52.5T283 135t52 21.5 21 52.5z"/><glyph glyph-name="R" unicode="R" d="M283 1434q92 0 156.5-65t64.5-157V870q0-89-64-153 64-64 64-154V0H356v575q0 31-21 52.5T283 649h-74V0H61v1434h222zm-74-650h74q31 0 52 21.5t21 52.5v367q0 31-21 52t-52 21h-74V784z"/><glyph glyph-name="S" unicode="S" d="M283 1434q92 0 156.5-65t64.5-157v-208H356v221q0 31-21 52t-52 21-52.5-21-21.5-52V858q0-31 21.5-52.5T283 784q92 0 156.5-64.5T504 563V221q0-92-64.5-156.5T283 0 126 64.5 61 221v209h148V209q0-31 21.5-52.5T283 135t52 21.5 21 52.5v366q0 31-21 52.5T283 649q-92 0-157 64.5T61 870v342q0 92 65 157t157 65z"/><glyph glyph-name="T" unicode="T" d="M61 1298v136h443v-136H356V0H209v1298H61z"/><glyph glyph-name="U" unicode="U" d="M356 209v1225h148V221q0-92-64.5-156.5T283 0 126 64.5 61 221v1213h148V209q0-31 21.5-52.5T283 135t52 21.5 21 52.5z"/><glyph glyph-name="V" unicode="V" d="m295 477 61 957h148L356 0H209L61 1434h148l61-957q0-9 6-12t12.5 0 6.5 12z"/><glyph glyph-name="W" unicode="W" horiz-adv-x="860" d="M651 209v1225h148V221q0-92-64.5-156.5T578 0q-84 0-148 57Q366 0 283 0q-92 0-157 64.5T61 221v1213h148V209q0-31 21.5-52.5T283 135t52 21.5 21 52.5v1225h148V209q0-31 21.5-52.5T578 135t52 21.5 21 52.5z"/><glyph glyph-name="X" unicode="X" d="M356 858v576h148V870q0-89-64-153 64-64 64-154V0H356v575q0 31-21 52.5T283 649t-52.5-21.5T209 575V0H61v563q0 90 64 154-64 64-64 153v564h148V858q0-31 21.5-52.5T283 784t52 21.5 21 52.5z"/><glyph glyph-name="Y" unicode="Y" d="M356 858v576h148V870q0-71-41-126.5T356 664V0H209v664q-66 24-107 79.5T61 870v564h148V858q0-31 21.5-52.5T283 784t52 21.5 21 52.5z"/><glyph glyph-name="Z" unicode="Z" d="M213 135h291V0H184q-62 0-98 45-25 31-25 74 0 8 5 33l286 1146H61v136h320q62 0 98-45 25-31 25-74 0-13-4-33z"/><glyph glyph-name="bracketleft" unicode="[" horiz-adv-x="516" d="M61-135v1704h394v-135H209V0h246v-135H61z"/><glyph glyph-name="backslash" unicode="\" horiz-adv-x="659" d="m61 1419 95 29L598 14l-94-28z"/><glyph glyph-name="bracketright" unicode="]" horiz-adv-x="516" d="M455-135H61V0h246v1434H61v135h394V-135z"/><glyph glyph-name="asciicircum" unicode="^" horiz-adv-x="634" d="m317 1434 256-256-96-97-160 162-159-162-97 97z"/><glyph glyph-name="underscore" unicode="_" d="M61-135V0h443v-135H61z"/><glyph glyph-name="grave" unicode="`" horiz-adv-x="262" d="m102 1270-41 192h107l33-192h-99z"/><glyph glyph-name="a" unicode="a" d="M283 1208q92 0 156.5-64.5T504 987V0H356v537H209V0H61v987q0 92 65 156.5t157 64.5zm-74-536h147v327q0 31-21 52.5t-52 21.5-52.5-21.5T209 999V672z"/><glyph glyph-name="b" unicode="b" d="M283 1208q92 0 156.5-64.5T504 987V758q0-90-64-154 64-64 64-153V221q0-92-64.5-156.5T283 0H61v1208h222zm-74-135V672h74q31 0 52 21t21 52v254q0 31-21 52.5t-52 21.5h-74zm147-864v254q0 31-21 52.5T283 537h-74V135h74q31 0 52 21.5t21 52.5z"/><glyph glyph-name="c" unicode="c" d="M283 1208q92 0 156.5-64.5T504 987V840H356v159q0 31-21 52.5t-52 21.5-52.5-21.5T209 999V209q0-31 21.5-52.5T283 135t52 21.5 21 52.5v160h148V221q0-92-64.5-156.5T283 0 126 64.5 61 221v766q0 92 65 156.5t157 64.5z"/><glyph glyph-name="d" unicode="d" d="M283 1208q92 0 156.5-64.5T504 987V221q0-92-64.5-156.5T283 0H61v1208h222zm73-999v790q0 31-21 52.5t-52 21.5h-74V135h74q31 0 52 21.5t21 52.5z"/><glyph glyph-name="e" unicode="e" d="M283 1208q92 0 156.5-64.5T504 987V840H356v159q0 31-21 52.5t-52 21.5-52.5-21.5T209 999V672h147V537H209V209q0-31 21.5-52.5T283 135t52 21.5 21 52.5v160h148V221q0-92-64.5-156.5T283 0 126 64.5 61 221v766q0 92 65 156.5t157 64.5z"/><glyph glyph-name="f" unicode="f" d="M283 1208q92 0 156.5-64.5T504 987V840H356v159q0 31-21 52.5t-52 21.5-52.5-21.5T209 999V672h147V537H209V0H61v987q0 92 65 156.5t157 64.5z"/><glyph glyph-name="g" unicode="g" d="M283 1208q92 0 156.5-64.5T504 987V840H356v159q0 31-21 52.5t-52 21.5-52.5-21.5T209 999V209q0-31 21.5-52.5T283 135t52 21.5 21 52.5v328h-73v135h221V221q0-92-64.5-156.5T283 0 126 64.5 61 221v766q0 92 65 156.5t157 64.5z"/><glyph glyph-name="h" unicode="h" d="M356 672v536h148V0H356v537H209V0H61v1208h148V672h147z"/><glyph glyph-name="i" unicode="i" horiz-adv-x="270" d="M61 0v1208h148V0H61z"/><glyph glyph-name="j" unicode="j" d="M61 1208h443V221q0-92-64.5-156.5T283 0 126 64.5 61 221v322h148V209q0-31 21.5-52.5T283 135t52 21.5 21 52.5v864H61v135z"/><glyph glyph-name="k" unicode="k" d="M356 745v463h148V758q0-90-64-154 64-64 64-153V0H356v463q0 31-21 52.5T283 537h-74V0H61v1208h148V672h74q31 0 52 21t21 52z"/><glyph glyph-name="l" unicode="l" d="M356 209v160h148V221q0-92-64.5-156.5T283 0 126 64.5 61 221v987h148V209q0-31 21.5-52.5T283 135t52 21.5 21 52.5z"/><glyph glyph-name="m" unicode="m" horiz-adv-x="860" d="M578 1208q92 0 156.5-64.5T799 987V0H651v999q0 31-21 52.5t-52 21.5-52.5-21.5T504 999V0H356v999q0 31-21 52.5t-52 21.5-52.5-21.5T209 999V0H61v987q0 92 65 156.5t157 64.5q83 0 147-57 64 57 148 57z"/><glyph glyph-name="n" unicode="n" d="M283 1208q92 0 156.5-64.5T504 987V0H356v999q0 31-21 52.5t-52 21.5-52.5-21.5T209 999V0H61v987q0 92 65 156.5t157 64.5z"/><glyph glyph-name="o" unicode="o" d="M283 1208q92 0 156.5-64.5T504 987V221q0-92-64.5-156.5T283 0 126 64.5 61 221v766q0 92 65 156.5t157 64.5zm73-999v790q0 31-21 52.5t-52 21.5-52.5-21.5T209 999V209q0-31 21.5-52.5T283 135t52 21.5 21 52.5z"/><glyph glyph-name="p" unicode="p" d="M283 1208q92 0 156.5-64.5T504 987V758q0-92-64.5-156.5T283 537h-74V0H61v1208h222zm73-463v254q0 31-21 52.5t-52 21.5h-74V672h74q31 0 52 21t21 52z"/><glyph glyph-name="q" unicode="q" d="M283 1208q92 0 156.5-64.5T504 987V221q0-71-41-127T356 14v-137H209V14q-66 24-107 80T61 221v766q0 92 65 156.5t157 64.5zm73-999v790q0 31-21 52.5t-52 21.5-52.5-21.5T209 999V209q0-31 21.5-52.5T283 135t52 21.5 21 52.5z"/><glyph glyph-name="r" unicode="r" d="M283 1208q92 0 156.5-64.5T504 987V758q0-90-64-154 64-64 64-153V0H356v463q0 31-21 52.5T283 537h-74V0H61v1208h222zm-74-536h74q31 0 52 21t21 52v254q0 31-21 52.5t-52 21.5h-74V672z"/><glyph glyph-name="s" unicode="s" d="M283 1208q92 0 156.5-64.5T504 987V840H356v159q0 31-21 52.5t-52 21.5-52.5-21.5T209 999V745q0-31 21.5-52t52.5-21q92 0 156.5-64.5T504 451V221q0-92-64.5-156.5T283 0 126 64.5 61 221v148h148V209q0-31 21.5-52.5T283 135t52 21.5 21 52.5v254q0 31-21 52.5T283 537q-92 0-157 64.5T61 758v229q0 92 65 156.5t157 64.5z"/><glyph glyph-name="t" unicode="t" d="M61 1073v135h443v-135H356V0H209v1073H61z"/><glyph glyph-name="u" unicode="u" d="M356 209v999h148V221q0-92-64.5-156.5T283 0 126 64.5 61 221v987h148V209q0-31 21.5-52.5T283 135t52 21.5 21 52.5z"/><glyph glyph-name="v" unicode="v" d="m295 401 61 807h148L356 0H209L61 1208h148l61-807q0-12 12.5-12t12.5 12z"/><glyph glyph-name="w" unicode="w" horiz-adv-x="860" d="M651 209v999h148V221q0-92-64.5-156.5T578 0q-84 0-148 57Q366 0 283 0q-92 0-157 64.5T61 221v987h148V209q0-31 21.5-52.5T283 135t52 21.5 21 52.5v999h148V209q0-31 21.5-52.5T578 135t52 21.5 21 52.5z"/><glyph glyph-name="x" unicode="x" d="M356 745v463h148V758q0-90-64-154 64-64 64-153V0H356v463q0 31-21 52.5T283 537t-52.5-21.5T209 463V0H61v451q0 89 64 153-64 64-64 154v450h148V745q0-31 21.5-52t52.5-21 52 21 21 52z"/><glyph glyph-name="y" unicode="y" d="M356 745v463h148V758q0-71-41-127t-107-80V0H209v551q-66 24-107 80T61 758v450h148V745q0-31 21.5-52t52.5-21 52 21 21 52z"/><glyph glyph-name="z" unicode="z" d="M213 135h291V0H184q-62 0-98 45-25 31-25 74 0 8 5 33l286 921H61v135h320q62 0 98-45 25-31 25-73 0-13-4-33z"/><glyph glyph-name="braceleft" unicode="{" horiz-adv-x="663" d="M356 1360V870q0-92-61-153 61-61 61-154V74q0-31 21.5-52.5T430 0h172v-135H430q-92 0-156.5 64.5T209 86v489q0 31-21.5 52.5T135 649H61v135h74q31 0 52.5 21.5T209 858v490q0 92 64.5 156.5T430 1569h172v-135H430q-31 0-52.5-21.5T356 1360z"/><glyph glyph-name="bar" unicode="|" horiz-adv-x="221" d="M61-135v1704h99V-135H61z"/><glyph glyph-name="braceright" unicode="}" horiz-adv-x="663" d="M307 1360q0 31-21.5 52.5T233 1434H61v135h172q92 0 157-64.5t65-156.5V858q0-31 21-52.5t52-21.5h74V649h-74q-31 0-52-21.5T455 575V86q0-92-65-156.5T233-135H61V0h172q31 0 52.5 21.5T307 74v489q0 92 62 154-62 62-62 153v490z"/><glyph glyph-name="asciitilde" unicode="~" horiz-adv-x="630" d="m127 614-66 72 78 70q42 39 103 39 60 0 102-39l8-6q16-13 37-13t37 13l78 69 65-71-77-70q-42-39-103-39-60 0-102 39l-8 6q-15 12-37 12t-37-12z"/><glyph glyph-name="uni00A0" horiz-adv-x="425"/><glyph glyph-name="exclamdown" unicode="¡" horiz-adv-x="270" d="M61-135v1139h148V-135H61zm0 1286v147h148v-147H61z"/><glyph glyph-name="cent" unicode="¢" d="M504 1004H356v221q0 31-21 52t-52 21-52.5-21-21.5-52V209q0-31 21.5-52.5T283 135t52 21.5 21 52.5v221h148V221q0-71-41.5-128T356 12v-143H209V12q-65 24-106.5 81T61 221v991q0 71 41.5 128t106.5 81v144h147v-144q65-24 106.5-81t41.5-128v-208z"/><glyph glyph-name="sterling" unicode="£" horiz-adv-x="712" d="M651 1004H504v221q0 31-21.5 52t-52.5 21-52.5-21-21.5-52V784h148V649H356V135h295V0H61v135h148v514H61v135h148v428q0 92 64.5 157t156.5 65 156.5-65 64.5-157v-208z"/><glyph glyph-name="currency" unicode="¤" horiz-adv-x="655" d="M549 549q0-68-39-123l84-190-90-39-70 159q-54-28-106-28-53 0-107 28l-69-159-91 39 84 190q-39 55-39 123v340q0 70 39 125l-84 188 91 41 69-160q52 27 107 27 54 0 106-27l70 160 90-41-84-188q39-55 39-125V549zm-148-12v364q0 31-21 52.5T328 975t-52.5-21.5T254 901V537q0-31 21.5-52.5T328 463t52 21.5 21 52.5z"/><glyph glyph-name="yen" unicode="¥" d="M504 870q0-71-41-127.5T356 662v-64h148V463H356V360h148V225H356V0H209v225H61v135h148v103H61v135h148v64q-66 24-107 80.5T61 870v564h148V858q0-31 21.5-52.5T283 784t52 21.5 21 52.5v576h148V870z"/><glyph glyph-name="brokenbar" unicode="¦" horiz-adv-x="221" d="M61-135v700h99v-700H61zm0 1003v701h99V868H61z"/><glyph glyph-name="section" unicode="§" d="M504 1208H356v148q0 31-21 52.5t-52 21.5-52.5-21.5T209 1356v-260q40 14 74 14 92 0 156.5-64.5T504 889V90q0-92-64.5-156.5T283-131 126-66.5 61 90v135h148V78q0-31 21.5-52.5T283 4t52 21.5T356 78v262q-40-14-73-14-92 0-157 64.5T61 547v796q0 92 65 157t157 65 156.5-65 64.5-157v-135zM283 975q-31 0-52.5-21.5T209 901V535q0-31 21.5-52.5T283 461t52 21.5 21 52.5v366q0 31-21 52.5T283 975z"/><glyph glyph-name="dieresis" unicode="¨" horiz-adv-x="393" d="M61 1270v106h107v-106H61zm164 0v106h107v-106H225z"/><glyph glyph-name="copyright" unicode="©" horiz-adv-x="1155" d="M578 0Q475 0 380.5 39.5T213 152Q61 304 61 516v176q0 103 39.5 197.5T213 1057q151 151 365 151 213 0 364-151 73-73 112.5-167.5T1094 692V516q0-212-152-364T578 0zm0 1073q-152 0-260.5-108T209 705V504q0-152 108.5-260.5T578 135t260 108.5T946 504v201q0 152-108 260t-260 108zm221-534v-35q0-92-64.5-156.5T578 283t-157 64.5T356 504v201q0 92 65 156.5T578 926t156.5-64.5T799 705v-35H651v47q0 31-21 52.5T578 791t-52.5-21.5T504 717V492q0-31 21.5-52.5T578 418t52 21.5 21 52.5v47h148z"/><glyph glyph-name="ordfeminine" unicode="ª" horiz-adv-x="442" d="M61 807v98h320v-98H61zm187 627q55 0 94-39t39-95v-296h-98v116H160v-116H61v296q0 56 39.5 95t94.5 39h53zm-88-215h123v81q0 14-10.5 24.5T248 1335h-53q-13 0-24-10.5t-11-24.5v-81z"/><glyph glyph-name="guillemotleft" unicode="«" horiz-adv-x="798" d="M317 461 61 717l256 256 95-96-160-160 160-160zm326 0L387 717l256 256 94-96-159-160 159-160z"/><glyph glyph-name="logicalnot" unicode="¬" d="M61 784h443V496H356v153H61v135z"/><glyph glyph-name="uni00AD" unicode="­" horiz-adv-x="417" d="M61 649v135h295V649H61z"/><glyph glyph-name="registered" unicode="®" horiz-adv-x="1155" d="M578 0Q475 0 380.5 39.5T213 152Q61 304 61 516v176q0 103 39.5 197.5T213 1057q151 151 365 151 213 0 364-151 73-73 112.5-167.5T1094 692V516q0-212-152-364T578 0zm0 1073q-152 0-260.5-108T209 705V504q0-152 108.5-260.5T578 135t260 108.5T946 504v201q0 152-108 260t-260 108zm221-368v-3q0-91-62-153 62-62 62-154v-22H651v35q0 31-21 52t-52 21h-74V373H356v332q0 92 65 156.5T578 926t156.5-64.5T799 705zm-295-89h74q31 0 52 21.5t21 52.5v27q0 31-21 52.5T578 791t-52.5-21.5T504 717V616z"/><glyph glyph-name="macron" unicode="¯" horiz-adv-x="393" d="M61 1270v106h271v-106H61z"/><glyph glyph-name="degree" unicode="°" horiz-adv-x="442" d="M248 1087h-53q-55 0-94.5 39.5T61 1221v79q0 56 39.5 95t94.5 39h53q55 0 94-39t39-95v-79q0-56-39-95t-94-39zm-53 248q-13 0-24-10.5t-11-24.5v-79q0-13 11-24t24-11h53q14 0 24.5 11t10.5 24v79q0 14-10.5 24.5T248 1335h-53z"/><glyph glyph-name="plusminus" unicode="±" d="M61 225v135h443V225H61zm289 559h154V649H350V496H215v153H61v135h154v154h135V784z"/><glyph glyph-name="uni00B2" unicode="²" horiz-adv-x="442" d="M160 1135v-33h221v-98H61v131q0 55 39 94t95 39h53q14 0 24.5 11t10.5 24-10.5 22.5-24.5 9.5h-53q-14 0-24.5-9.5T160 1303v-5H61v5q0 55 39 93t95 38h53q56 0 94.5-38t38.5-93q0-56-39-95t-94-39h-53q-14 0-24.5-10.5T160 1135z"/><glyph glyph-name="uni00B3" unicode="³" horiz-adv-x="442" d="M381 1303q0-47-29-84 29-37 29-84 0-55-38.5-93t-94.5-38h-53q-56 0-95 38t-39 93v4h99v-4q0-13 10.5-23t24.5-10h53q14 0 24.5 10t10.5 23-10.5 23.5T248 1169h-53v99h53q14 0 24.5 11t10.5 24-10.5 22.5-24.5 9.5h-53q-14 0-24.5-9.5T160 1303v-5H61v5q0 55 39 93t95 38h53q56 0 94.5-38t38.5-93z"/><glyph glyph-name="acute" unicode="´" horiz-adv-x="262" d="M160 1270H61l33 192h107z"/><glyph glyph-name="mu" unicode="µ" d="M356 1208h148V221q0-92-64.5-156.5T283 0h-74v-131H61v1339h148V135h74q31 0 52 21.5t21 52.5v999z"/><glyph glyph-name="paragraph" unicode="¶" horiz-adv-x="638" d="M283 1434h295V0H430v1298H283q-31 0-52.5-21t-21.5-52V858q0-31 21.5-52.5T283 784V0H135v707q-74 67-74 163v342q0 92 65 157t157 65z"/><glyph glyph-name="periodcentered" unicode="·" horiz-adv-x="270" d="M61 643v148h148V643H61z"/><glyph glyph-name="cedilla" unicode="¸" horiz-adv-x="339" d="M61-188v98h84q14 0 24.5 13.5T180-45t-10.5 31.5T145 0v98q56 0 95-41.5T279-45t-39-101.5-95-41.5H61z"/><glyph glyph-name="uni00B9" unicode="¹" horiz-adv-x="344" d="M283 1004h-99v296q0 14-10.5 24.5T150 1335H61v99h89q55 0 94-39t39-95v-296z"/><glyph glyph-name="ordmasculine" unicode="º" horiz-adv-x="442" d="M61 807v98h320v-98H61zm187 197h-53q-56 0-95 39t-39 94v163q0 56 39.5 95t94.5 39h53q55 0 94-39t39-95v-163q0-55-38.5-94t-94.5-39zm-53 331q-13 0-24-10.5t-11-24.5v-163q0-13 11-24t24-11h53q14 0 24.5 11t10.5 24v163q0 14-10.5 24.5T248 1335h-53z"/><glyph glyph-name="guillemotright" unicode="»" horiz-adv-x="798" d="m481 461-94 96 160 160-160 160 94 96 256-256zm-325 0-95 96 160 160L61 877l95 96 256-256z"/><glyph glyph-name="onequarter" unicode="¼" horiz-adv-x="741" d="M582 430h98V0h-98v166h-88q-56 0-95 39t-39 94v131h99V299q0-13 10.5-24t24.5-11h88v166zM61 14l443 1434 92-29L154-14zm234 990h-98v296q0 14-10.5 24.5T162 1335H74v99h88q55 0 94-39t39-95v-296z"/><glyph glyph-name="onehalf" unicode="½" horiz-adv-x="741" d="M295 1004h-98v296q0 14-10.5 24.5T162 1335H74v99h88q55 0 94-39t39-95v-296zM61 14l443 1434 92-29L154-14zm398 117V98h221V0H360v131q0 55 39 94t95 39h53q13 0 24 11t11 24-10.5 23-24.5 10h-53q-14 0-24.5-10T459 299v-4h-99v4q0 55 39 93t95 38h53q56 0 94.5-38t38.5-93-39-94-94-39h-53q-14 0-24.5-11T459 131z"/><glyph glyph-name="threequarters" unicode="¾" horiz-adv-x="827" d="M668 430h98V0h-98v166h-88q-56 0-95 39t-39 94v131h99V299q0-13 10.5-24t24.5-11h88v166zM145 14l443 1434 94-29L240-14zm236 1289q0-47-29-84 29-37 29-84 0-55-38.5-93t-94.5-38h-53q-56 0-95 38t-39 93v4h99v-4q0-13 10.5-23t24.5-10h53q14 0 24.5 10t10.5 23-10.5 23.5T248 1169h-53v99h53q14 0 24.5 11t10.5 24-10.5 22.5-24.5 9.5h-53q-14 0-24.5-9.5T160 1303v-5H61v5q0 55 39 93t95 38h53q56 0 94.5-38t38.5-93z"/><glyph glyph-name="questiondown" unicode="¿" d="M356 1155v148h148v-148H356zm0-428v281h148V739q0-92-64.5-156.5T283 518q-31 0-52.5-21.5T209 444V78q0-31 21.5-52.5T283 4t52 21.5T356 78v221h148V90q0-92-64.5-156.5T283-131 126-66.5 61 90v342q0 92 65 156.5T283 653q31 0 52 21.5t21 52.5z"/><glyph glyph-name="Agrave" unicode="À" d="m233 1495-40 193h106l33-193h-99zm50-61q92 0 156.5-65t64.5-157V0H356v649H209V0H61v1212q0 92 65 157t157 65zm-74-650h147v441q0 31-21 52t-52 21-52.5-21-21.5-52V784z"/><glyph glyph-name="Aacute" unicode="Á" d="M332 1495h-99l33 193h107zm-49-61q92 0 156.5-65t64.5-157V0H356v649H209V0H61v1212q0 92 65 157t157 65zm-74-650h147v441q0 31-21 52t-52 21-52.5-21-21.5-52V784z"/><glyph glyph-name="Acircumflex" unicode="Â" d="m311 1495-24 150h-8l-25-150H147l41 193h189l41-193H311zm-28-61q92 0 156.5-65t64.5-157V0H356v649H209V0H61v1212q0 92 65 157t157 65zm-74-650h147v441q0 31-21 52t-52 21-52.5-21-21.5-52V784z"/><glyph glyph-name="Atilde" unicode="Ã" d="m158 1464-76 62 53 67q39 45 92 45 56 0 95-45 15-18 30 0l56 66 75-62-53-67q-39-45-92-45-55 0-94 45-16 19-31 0zm125-30q92 0 156.5-65t64.5-157V0H356v649H209V0H61v1212q0 92 65 157t157 65zm-74-650h147v441q0 31-21 52t-52 21-52.5-21-21.5-52V784z"/><glyph glyph-name="Adieresis" unicode="Ä" d="M147 1495v107h107v-107H147zm164 0v107h107v-107H311zm-28-61q92 0 156.5-65t64.5-157V0H356v649H209V0H61v1212q0 92 65 157t157 65zm-74-650h147v441q0 31-21 52t-52 21-52.5-21-21.5-52V784z"/><glyph glyph-name="Aring" unicode="Å" d="M283 1831q60 0 101.5-41.5T426 1688v-50q0-60-41.5-101.5T283 1495t-102 41.5-42 101.5v50q0 60 42 101.5t102 41.5zm45-193v50q0 19-13 32t-32 13-32-13-13-32v-50q0-19 13-32t32-13 32 13 13 32zm-45-204q92 0 156.5-65t64.5-157V0H356v649H209V0H61v1212q0 92 65 157t157 65zm-74-650h147v441q0 31-21 52t-52 21-52.5-21-21.5-52V784z"/><glyph glyph-name="AE" unicode="Æ" horiz-adv-x="860" d="M799 1004H651v221q0 31-21 52t-52 21-52.5-21-21.5-52V784h147V649H504V209q0-31 21.5-52.5T578 135t52 21.5 21 52.5v221h148V221q0-92-64.5-156.5T578 0 421 64.5 356 221v428H209V0H61v1212q0 92 65 157t157 65q82 0 147-58 65 58 148 58 92 0 156.5-65t64.5-157v-208zM356 784v441q0 31-21 52t-52 21-52.5-21-21.5-52V784h147z"/><glyph glyph-name="Ccedilla" unicode="Ç" d="M504 1004H356v221q0 31-21 52t-52 21-52.5-21-21.5-52V209q0-31 21.5-52.5T283 135t52 21.5 21 52.5v221h148V221q0-60-29.5-110T395 31q21-40 21-76 0-60-38.5-101.5T283-188h-84v98h84q14 0 24 13t10 32-10 32-24 13q-92 0-157 64.5T61 221v991q0 92 65 157t157 65 156.5-65 64.5-157v-208z"/><glyph glyph-name="Egrave" unicode="È" d="M283 1434q92 0 156.5-65t64.5-157v-208H356v221q0 31-21 52t-52 21-52.5-21-21.5-52V784h147V649H209V209q0-31 21.5-52.5T283 135t52 21.5 21 52.5v221h148V221q0-92-64.5-156.5T283 0 126 64.5 61 221v991q0 92 65 157t157 65zm-50 61-40 193h106l33-193h-99z"/><glyph glyph-name="Eacute" unicode="É" d="M283 1434q92 0 156.5-65t64.5-157v-208H356v221q0 31-21 52t-52 21-52.5-21-21.5-52V784h147V649H209V209q0-31 21.5-52.5T283 135t52 21.5 21 52.5v221h148V221q0-92-64.5-156.5T283 0 126 64.5 61 221v991q0 92 65 157t157 65zm49 61h-99l33 193h107z"/><glyph glyph-name="Ecircumflex" unicode="Ê" d="M283 1434q92 0 156.5-65t64.5-157v-208H356v221q0 31-21 52t-52 21-52.5-21-21.5-52V784h147V649H209V209q0-31 21.5-52.5T283 135t52 21.5 21 52.5v221h148V221q0-92-64.5-156.5T283 0 126 64.5 61 221v991q0 92 65 157t157 65zm28 61-24 150h-8l-25-150H147l41 193h189l41-193H311z"/><glyph glyph-name="Edieresis" unicode="Ë" d="M283 1434q92 0 156.5-65t64.5-157v-208H356v221q0 31-21 52t-52 21-52.5-21-21.5-52V784h147V649H209V209q0-31 21.5-52.5T283 135t52 21.5 21 52.5v221h148V221q0-92-64.5-156.5T283 0 126 64.5 61 221v991q0 92 65 157t157 65zm-136 61v107h107v-107H147zm164 0v107h107v-107H311z"/><glyph glyph-name="Igrave" unicode="Ì" horiz-adv-x="286" d="M78 0v1434h147V0H78zm24 1495-41 193h107l33-193h-99z"/><glyph glyph-name="Iacute" unicode="Í" horiz-adv-x="286" d="M61 0v1434h148V0H61zm123 1495H86l33 193h106z"/><glyph glyph-name="Icircumflex" unicode="Î" horiz-adv-x="393" d="M123 0v1434h147V0H123zm102 1495-24 150h-8l-25-150H61l41 193h189l41-193H225z"/><glyph glyph-name="Idieresis" unicode="Ï" horiz-adv-x="393" d="M123 0v1434h147V0H123zM61 1495v107h107v-107H61zm164 0v107h107v-107H225z"/><glyph glyph-name="Eth" unicode="Ð" horiz-adv-x="614" d="M332 1434q92 0 156.5-65t64.5-157V221q0-92-64.5-156.5T332 0H111v649H61v135h50v650h221zm74-1225v1016q0 31-21.5 52t-52.5 21h-74V784h74V649h-74V135h74q31 0 52.5 21.5T406 209z"/><glyph glyph-name="Ntilde" unicode="Ñ" d="M283 1434q92 0 156.5-65t64.5-157V0H356v1225q0 31-21 52t-52 21-52.5-21-21.5-52V0H61v1212q0 92 65 157t157 65zm-125 30-76 62 53 67q39 45 92 45 56 0 95-45 15-18 30 0l56 66 75-62-53-67q-39-45-92-45-55 0-94 45-16 19-31 0z"/><glyph glyph-name="Ograve" unicode="Ò" d="M283 1434q92 0 156.5-65t64.5-157V221q0-92-64.5-156.5T283 0 126 64.5 61 221v991q0 92 65 157t157 65zm73-1225v1016q0 31-21 52t-52 21-52.5-21-21.5-52V209q0-31 21.5-52.5T283 135t52 21.5 21 52.5zM233 1495l-40 193h106l33-193h-99z"/><glyph glyph-name="Oacute" unicode="Ó" d="M283 1434q92 0 156.5-65t64.5-157V221q0-92-64.5-156.5T283 0 126 64.5 61 221v991q0 92 65 157t157 65zm73-1225v1016q0 31-21 52t-52 21-52.5-21-21.5-52V209q0-31 21.5-52.5T283 135t52 21.5 21 52.5zm-24 1286h-99l33 193h107z"/><glyph glyph-name="Ocircumflex" unicode="Ô" d="M283 1434q92 0 156.5-65t64.5-157V221q0-92-64.5-156.5T283 0 126 64.5 61 221v991q0 92 65 157t157 65zm73-1225v1016q0 31-21 52t-52 21-52.5-21-21.5-52V209q0-31 21.5-52.5T283 135t52 21.5 21 52.5zm-45 1286-24 150h-8l-25-150H147l41 193h189l41-193H311z"/><glyph glyph-name="Otilde" unicode="Õ" d="M283 1434q92 0 156.5-65t64.5-157V221q0-92-64.5-156.5T283 0 126 64.5 61 221v991q0 92 65 157t157 65zm73-1225v1016q0 31-21 52t-52 21-52.5-21-21.5-52V209q0-31 21.5-52.5T283 135t52 21.5 21 52.5zM158 1464l-76 62 53 67q39 45 92 45 56 0 95-45 15-18 30 0l56 66 75-62-53-67q-39-45-92-45-55 0-94 45-16 19-31 0z"/><glyph glyph-name="Odieresis" unicode="Ö" d="M283 1434q92 0 156.5-65t64.5-157V221q0-92-64.5-156.5T283 0 126 64.5 61 221v991q0 92 65 157t157 65zm73-1225v1016q0 31-21 52t-52 21-52.5-21-21.5-52V209q0-31 21.5-52.5T283 135t52 21.5 21 52.5zM147 1495v107h107v-107H147zm164 0v107h107v-107H311z"/><glyph glyph-name="multiply" unicode="×" horiz-adv-x="532" d="M471 825 362 717l109-109-96-96-109 109-108-109-97 96 109 109L61 825l97 97 108-109 109 109z"/><glyph glyph-name="Oslash" unicode="Ø" horiz-adv-x="659" d="m598 1552-66-252q19-43 19-88V221q0-92-64.5-156.5T330 0q-70 0-125 39l-49-182-95 24 66 252q-18 41-18 88v991q0 92 64.5 157t156.5 65q70 0 125-39l49 182zm-342-327V629l147 565v31q0 31-21 52t-52 21-52.5-21-21.5-52zM403 209v596L256 240v-31q0-31 21.5-52.5T330 135t52 21.5 21 52.5z"/><glyph glyph-name="Ugrave" unicode="Ù" d="M356 209v1225h148V221q0-92-64.5-156.5T283 0 126 64.5 61 221v1213h148V209q0-31 21.5-52.5T283 135t52 21.5 21 52.5zM233 1495l-40 193h106l33-193h-99z"/><glyph glyph-name="Uacute" unicode="Ú" d="M356 209v1225h148V221q0-92-64.5-156.5T283 0 126 64.5 61 221v1213h148V209q0-31 21.5-52.5T283 135t52 21.5 21 52.5zm-24 1286h-99l33 193h107z"/><glyph glyph-name="Ucircumflex" unicode="Û" d="M356 209v1225h148V221q0-92-64.5-156.5T283 0 126 64.5 61 221v1213h148V209q0-31 21.5-52.5T283 135t52 21.5 21 52.5zm-45 1286-24 150h-8l-25-150H147l41 193h189l41-193H311z"/><glyph glyph-name="Udieresis" unicode="Ü" d="M356 209v1225h148V221q0-92-64.5-156.5T283 0 126 64.5 61 221v1213h148V209q0-31 21.5-52.5T283 135t52 21.5 21 52.5zM147 1495v107h107v-107H147zm164 0v107h107v-107H311z"/><glyph glyph-name="Yacute" unicode="Ý" d="M356 858v576h148V870q0-71-41-126.5T356 664V0H209v664q-66 24-107 79.5T61 870v564h148V858q0-31 21.5-52.5T283 784t52 21.5 21 52.5zm-24 637h-99l33 193h107z"/><glyph glyph-name="Thorn" unicode="Þ" d="M283 1303q92 0 156.5-65t64.5-157V221q0-92-64.5-156.5T283 0h-74v-131H61v1565h148v-131h74zm73-1094v885q0 31-21 52t-52 21h-74V135h74q31 0 52 21.5t21 52.5z"/><glyph glyph-name="germandbls" unicode="ß" d="M504 987V758q0-92-62-154 62-62 62-153V221q0-85-57.5-147.5T305 2V0h-96v-131H61v1339h222q92 0 156.5-64.5T504 987zm-221 86h-74V672h74q31 0 52 21t21 52v254q0 31-21 52.5t-52 21.5zm73-864v254q0 31-21 52.5T283 537h-74V135h74q31 0 52 21.5t21 52.5z"/><glyph glyph-name="agrave" unicode="à" d="M283 1208q92 0 156.5-64.5T504 987V0H356v537H209V0H61v987q0 92 65 156.5t157 64.5zm-74-536h147v327q0 31-21 52.5t-52 21.5-52.5-21.5T209 999V672zm24 598-40 192h106l33-192h-99z"/><glyph glyph-name="aacute" unicode="á" d="M283 1208q92 0 156.5-64.5T504 987V0H356v537H209V0H61v987q0 92 65 156.5t157 64.5zm-74-536h147v327q0 31-21 52.5t-52 21.5-52.5-21.5T209 999V672zm123 598h-99l33 192h107z"/><glyph glyph-name="acircumflex" unicode="â" d="M283 1208q92 0 156.5-64.5T504 987V0H356v537H209V0H61v987q0 92 65 156.5t157 64.5zm-74-536h147v327q0 31-21 52.5t-52 21.5-52.5-21.5T209 999V672zm102 598-24 149h-8l-25-149H147l41 192h189l41-192H311z"/><glyph glyph-name="atilde" unicode="ã" d="M283 1208q92 0 156.5-64.5T504 987V0H356v537H209V0H61v987q0 92 65 156.5t157 64.5zm-74-536h147v327q0 31-21 52.5t-52 21.5-52.5-21.5T209 999V672zm-51 567-76 61 53 68q39 45 92 45 56 0 95-45 15-18 30 0l56 66 75-62-53-67q-39-45-92-45-55 0-94 45-16 19-31 0z"/><glyph glyph-name="adieresis" unicode="ä" d="M283 1208q92 0 156.5-64.5T504 987V0H356v537H209V0H61v987q0 92 65 156.5t157 64.5zm-74-536h147v327q0 31-21 52.5t-52 21.5-52.5-21.5T209 999V672zm-62 598v106h107v-106H147zm164 0v106h107v-106H311z"/><glyph glyph-name="aring" unicode="å" d="M283 1208q92 0 156.5-64.5T504 987V0H356v537H209V0H61v987q0 92 65 156.5t157 64.5zm-74-536h147v327q0 31-21 52.5t-52 21.5-52.5-21.5T209 999V672zm74 934q60 0 101.5-42t41.5-102v-49q0-60-41.5-101.5T283 1270t-102 41.5-42 101.5v49q0 60 42 102t102 42zm45-193v49q0 19-13 32t-32 13-32-13-13-32v-49q0-19 13-32t32-13 32 13 13 32z"/><glyph glyph-name="ae" unicode="æ" horiz-adv-x="860" d="M799 840H651v159q0 31-21 52.5t-52 21.5-52.5-21.5T504 999V672h147V537H504V209q0-31 21.5-52.5T578 135t52 21.5 21 52.5v160h148V221q0-92-64.5-156.5T578 0 421 64.5 356 221v316H209V0H61v987q0 92 65 156.5t157 64.5q83 0 147-57 64 57 148 57 92 0 156.5-64.5T799 987V840zM356 672v327q0 31-21 52.5t-52 21.5-52.5-21.5T209 999V672h147z"/><glyph glyph-name="ccedilla" unicode="ç" d="M504 840H356v159q0 31-21 52.5t-52 21.5-52.5-21.5T209 999V209q0-31 21.5-52.5T283 135t52 21.5 21 52.5v160h148V221q0-60-29.5-110T395 31q21-40 21-76 0-60-38.5-101.5T283-188h-84v98h84q14 0 24 13t10 32-10 32-24 13q-92 0-157 64.5T61 221v766q0 92 65 156.5t157 64.5 156.5-64.5T504 987V840z"/><glyph glyph-name="egrave" unicode="è" d="M283 1208q92 0 156.5-64.5T504 987V840H356v159q0 31-21 52.5t-52 21.5-52.5-21.5T209 999V672h147V537H209V209q0-31 21.5-52.5T283 135t52 21.5 21 52.5v160h148V221q0-92-64.5-156.5T283 0 126 64.5 61 221v766q0 92 65 156.5t157 64.5zm-50 62-40 192h106l33-192h-99z"/><glyph glyph-name="eacute" unicode="é" d="M283 1208q92 0 156.5-64.5T504 987V840H356v159q0 31-21 52.5t-52 21.5-52.5-21.5T209 999V672h147V537H209V209q0-31 21.5-52.5T283 135t52 21.5 21 52.5v160h148V221q0-92-64.5-156.5T283 0 126 64.5 61 221v766q0 92 65 156.5t157 64.5zm49 62h-99l33 192h107z"/><glyph glyph-name="ecircumflex" unicode="ê" d="M283 1208q92 0 156.5-64.5T504 987V840H356v159q0 31-21 52.5t-52 21.5-52.5-21.5T209 999V672h147V537H209V209q0-31 21.5-52.5T283 135t52 21.5 21 52.5v160h148V221q0-92-64.5-156.5T283 0 126 64.5 61 221v766q0 92 65 156.5t157 64.5zm28 62-24 149h-8l-25-149H147l41 192h189l41-192H311z"/><glyph glyph-name="edieresis" unicode="ë" d="M283 1208q92 0 156.5-64.5T504 987V840H356v159q0 31-21 52.5t-52 21.5-52.5-21.5T209 999V672h147V537H209V209q0-31 21.5-52.5T283 135t52 21.5 21 52.5v160h148V221q0-92-64.5-156.5T283 0 126 64.5 61 221v766q0 92 65 156.5t157 64.5zm-136 62v106h107v-106H147zm164 0v106h107v-106H311z"/><glyph glyph-name="igrave" unicode="ì" horiz-adv-x="286" d="M78 0v1208h147V0H78zm24 1270-41 192h107l33-192h-99z"/><glyph glyph-name="iacute" unicode="í" horiz-adv-x="286" d="M61 0v1208h148V0H61zm123 1270H86l33 192h106z"/><glyph glyph-name="icircumflex" unicode="î" horiz-adv-x="393" d="M123 0v1208h147V0H123zm102 1270-24 149h-8l-25-149H61l41 192h189l41-192H225z"/><glyph glyph-name="idieresis" unicode="ï" horiz-adv-x="393" d="M123 0v1208h147V0H123zM61 1270v106h107v-106H61zm164 0v106h107v-106H225z"/><glyph glyph-name="eth" unicode="ð" horiz-adv-x="614" d="M332 1208q92 0 156.5-64.5T553 987V221q0-92-64.5-156.5T332 0H111v537H61v135h50v536h221zm74-999v790q0 31-21.5 52.5T332 1073h-74V672h74V537h-74V135h74q31 0 52.5 21.5T406 209z"/><glyph glyph-name="ntilde" unicode="ñ" d="M283 1208q92 0 156.5-64.5T504 987V0H356v999q0 31-21 52.5t-52 21.5-52.5-21.5T209 999V0H61v987q0 92 65 156.5t157 64.5zm-125 31-76 61 53 68q39 45 92 45 56 0 95-45 15-18 30 0l56 66 75-62-53-67q-39-45-92-45-55 0-94 45-16 19-31 0z"/><glyph glyph-name="ograve" unicode="ò" d="M283 1208q92 0 156.5-64.5T504 987V221q0-92-64.5-156.5T283 0 126 64.5 61 221v766q0 92 65 156.5t157 64.5zm73-999v790q0 31-21 52.5t-52 21.5-52.5-21.5T209 999V209q0-31 21.5-52.5T283 135t52 21.5 21 52.5zM233 1270l-40 192h106l33-192h-99z"/><glyph glyph-name="oacute" unicode="ó" d="M283 1208q92 0 156.5-64.5T504 987V221q0-92-64.5-156.5T283 0 126 64.5 61 221v766q0 92 65 156.5t157 64.5zm73-999v790q0 31-21 52.5t-52 21.5-52.5-21.5T209 999V209q0-31 21.5-52.5T283 135t52 21.5 21 52.5zm-24 1061h-99l33 192h107z"/><glyph glyph-name="ocircumflex" unicode="ô" d="M283 1208q92 0 156.5-64.5T504 987V221q0-92-64.5-156.5T283 0 126 64.5 61 221v766q0 92 65 156.5t157 64.5zm73-999v790q0 31-21 52.5t-52 21.5-52.5-21.5T209 999V209q0-31 21.5-52.5T283 135t52 21.5 21 52.5zm-45 1061-24 149h-8l-25-149H147l41 192h189l41-192H311z"/><glyph glyph-name="otilde" unicode="õ" d="M283 1208q92 0 156.5-64.5T504 987V221q0-92-64.5-156.5T283 0 126 64.5 61 221v766q0 92 65 156.5t157 64.5zm73-999v790q0 31-21 52.5t-52 21.5-52.5-21.5T209 999V209q0-31 21.5-52.5T283 135t52 21.5 21 52.5zM158 1239l-76 61 53 68q39 45 92 45 56 0 95-45 15-18 30 0l56 66 75-62-53-67q-39-45-92-45-55 0-94 45-16 19-31 0z"/><glyph glyph-name="odieresis" unicode="ö" d="M283 1208q92 0 156.5-64.5T504 987V221q0-92-64.5-156.5T283 0 126 64.5 61 221v766q0 92 65 156.5t157 64.5zm73-999v790q0 31-21 52.5t-52 21.5-52.5-21.5T209 999V209q0-31 21.5-52.5T283 135t52 21.5 21 52.5zM147 1270v106h107v-106H147zm164 0v106h107v-106H311z"/><glyph glyph-name="divide" unicode="÷" d="M61 649v135h443V649H61zm148-301v148h147V348H209zm0 590v147h147V938H209z"/><glyph glyph-name="oslash" unicode="ø" horiz-adv-x="659" d="m598 1325-72-238q25-48 25-100V221q0-92-64.5-156.5T330 0q-66 0-119 35l-55-180-95 28 72 238q-24 46-24 100v766q0 92 64.5 156.5T330 1208q67 0 119-34l55 180zM256 999V530l145 484q-5 25-25 42t-46 17q-31 0-52.5-21.5T256 999zm147-790v469L258 195q5-25 25.5-42.5T330 135q31 0 52 21.5t21 52.5z"/><glyph glyph-name="ugrave" unicode="ù" d="M356 209v999h148V221q0-92-64.5-156.5T283 0 126 64.5 61 221v987h148V209q0-31 21.5-52.5T283 135t52 21.5 21 52.5zM233 1270l-40 192h106l33-192h-99z"/><glyph glyph-name="uacute" unicode="ú" d="M356 209v999h148V221q0-92-64.5-156.5T283 0 126 64.5 61 221v987h148V209q0-31 21.5-52.5T283 135t52 21.5 21 52.5zm-24 1061h-99l33 192h107z"/><glyph glyph-name="ucircumflex" unicode="û" d="M356 209v999h148V221q0-92-64.5-156.5T283 0 126 64.5 61 221v987h148V209q0-31 21.5-52.5T283 135t52 21.5 21 52.5zm-45 1061-24 149h-8l-25-149H147l41 192h189l41-192H311z"/><glyph glyph-name="udieresis" unicode="ü" d="M356 209v999h148V221q0-92-64.5-156.5T283 0 126 64.5 61 221v987h148V209q0-31 21.5-52.5T283 135t52 21.5 21 52.5zM147 1270v106h107v-106H147zm164 0v106h107v-106H311z"/><glyph glyph-name="yacute" unicode="ý" d="M356 745v463h148V758q0-71-41-127t-107-80V0H209v551q-66 24-107 80T61 758v450h148V745q0-31 21.5-52t52.5-21 52 21 21 52zm-24 525h-99l33 192h107z"/><glyph glyph-name="thorn" unicode="þ" d="M283 1077q92 0 156.5-64.5T504 856V221q0-92-64.5-156.5T283 0h-74v-131H61v1339h148v-131h74zm73-868v659q0 31-21 52.5T283 942h-74V135h74q31 0 52 21.5t21 52.5z"/><glyph glyph-name="ydieresis" unicode="ÿ" d="M356 745v463h148V758q0-71-41-127t-107-80V0H209v551q-66 24-107 80T61 758v450h148V745q0-31 21.5-52t52.5-21 52 21 21 52zm-209 525v106h107v-106H147zm164 0v106h107v-106H311z"/><glyph glyph-name="Aogonek" unicode="Ą" d="M283 1434q92 0 156.5-65t64.5-157V221q0-51-18.5-95t-41-68.5-41-52T385-45q0-18 10.5-31.5T420-90h84v-98h-84q-56 0-94.5 41.5T287-45q0 52 34.5 126.5T356 209v440H209V0H61v1212q0 92 65 157t157 65zm-74-650h147v441q0 31-21 52t-52 21-52.5-21-21.5-52V784z"/><glyph glyph-name="aogonek" unicode="ą" d="M283 1208q92 0 156.5-64.5T504 987V221q0-51-18.5-95t-41-68.5-41-52T385-45q0-18 10.5-31.5T420-90h84v-98h-84q-56 0-94.5 41.5T287-45q0 52 34.5 126.5T356 209v328H209V0H61v987q0 92 65 156.5t157 64.5zm-74-536h147v327q0 31-21 52.5t-52 21.5-52.5-21.5T209 999V672z"/><glyph glyph-name="Cacute" unicode="Ć" d="M283 1434q92 0 156.5-65t64.5-157v-208H356v221q0 31-21 52t-52 21-52.5-21-21.5-52V209q0-31 21.5-52.5T283 135t52 21.5 21 52.5v221h148V221q0-92-64.5-156.5T283 0 126 64.5 61 221v991q0 92 65 157t157 65zm49 61h-99l33 193h107z"/><glyph glyph-name="cacute" unicode="ć" d="M283 1208q92 0 156.5-64.5T504 987V840H356v159q0 31-21 52.5t-52 21.5-52.5-21.5T209 999V209q0-31 21.5-52.5T283 135t52 21.5 21 52.5v160h148V221q0-92-64.5-156.5T283 0 126 64.5 61 221v766q0 92 65 156.5t157 64.5zm49 62h-99l33 192h107z"/><glyph glyph-name="Ccircumflex" unicode="Ĉ" d="M283 1434q92 0 156.5-65t64.5-157v-208H356v221q0 31-21 52t-52 21-52.5-21-21.5-52V209q0-31 21.5-52.5T283 135t52 21.5 21 52.5v221h148V221q0-92-64.5-156.5T283 0 126 64.5 61 221v991q0 92 65 157t157 65zm28 61-24 150h-8l-25-150H147l41 193h189l41-193H311z"/><glyph glyph-name="ccircumflex" unicode="ĉ" d="M283 1208q92 0 156.5-64.5T504 987V840H356v159q0 31-21 52.5t-52 21.5-52.5-21.5T209 999V209q0-31 21.5-52.5T283 135t52 21.5 21 52.5v160h148V221q0-92-64.5-156.5T283 0 126 64.5 61 221v766q0 92 65 156.5t157 64.5zm28 62-24 149h-8l-25-149H147l41 192h189l41-192H311z"/><glyph glyph-name="Ccaron" unicode="Č" d="M283 1434q92 0 156.5-65t64.5-157v-208H356v221q0 31-21 52t-52 21-52.5-21-21.5-52V209q0-31 21.5-52.5T283 135t52 21.5 21 52.5v221h148V221q0-92-64.5-156.5T283 0 126 64.5 61 221v991q0 92 65 157t157 65zm28 254h107l-41-193H188l-41 193h107l25-150h8z"/><glyph glyph-name="ccaron" unicode="č" d="M283 1208q92 0 156.5-64.5T504 987V840H356v159q0 31-21 52.5t-52 21.5-52.5-21.5T209 999V209q0-31 21.5-52.5T283 135t52 21.5 21 52.5v160h148V221q0-92-64.5-156.5T283 0 126 64.5 61 221v766q0 92 65 156.5t157 64.5zm28 254h107l-41-192H188l-41 192h107l25-149h8z"/><glyph glyph-name="Dcroat" unicode="Đ" horiz-adv-x="614" d="M332 1434q92 0 156.5-65t64.5-157V221q0-92-64.5-156.5T332 0H111v649H61v135h50v650h221zm74-1225v1016q0 31-21.5 52t-52.5 21h-74V784h74V649h-74V135h74q31 0 52.5 21.5T406 209z"/><glyph glyph-name="dcroat" unicode="đ" horiz-adv-x="614" d="M332 1208q92 0 156.5-64.5T553 987V221q0-92-64.5-156.5T332 0H111v537H61v135h50v536h221zm74-999v790q0 31-21.5 52.5T332 1073h-74V672h74V537h-74V135h74q31 0 52.5 21.5T406 209z"/><glyph glyph-name="Emacron" unicode="Ē" d="M147 1495v107h271v-107H147zm136-61q92 0 156.5-65t64.5-157v-208H356v221q0 31-21 52t-52 21-52.5-21-21.5-52V784h147V649H209V209q0-31 21.5-52.5T283 135t52 21.5 21 52.5v221h148V221q0-92-64.5-156.5T283 0 126 64.5 61 221v991q0 92 65 157t157 65z"/><glyph glyph-name="emacron" unicode="ē" d="M283 1208q92 0 156.5-64.5T504 987V840H356v159q0 31-21 52.5t-52 21.5-52.5-21.5T209 999V672h147V537H209V209q0-31 21.5-52.5T283 135t52 21.5 21 52.5v160h148V221q0-92-64.5-156.5T283 0 126 64.5 61 221v766q0 92 65 156.5t157 64.5zm-136 62v106h271v-106H147z"/><glyph glyph-name="Ebreve" unicode="Ĕ" d="M283 1495q-60 0-102 41.5T139 1638v50h99v-50q0-19 13-32t32-13 32 13 13 32v50h98v-50q0-60-41.5-101.5T283 1495zm0-61q92 0 156.5-65t64.5-157v-208H356v221q0 31-21 52t-52 21-52.5-21-21.5-52V784h147V649H209V209q0-31 21.5-52.5T283 135t52 21.5 21 52.5v221h148V221q0-92-64.5-156.5T283 0 126 64.5 61 221v991q0 92 65 157t157 65z"/><glyph glyph-name="ebreve" unicode="ĕ" d="M283 1208q92 0 156.5-64.5T504 987V840H356v159q0 31-21 52.5t-52 21.5-52.5-21.5T209 999V672h147V537H209V209q0-31 21.5-52.5T283 135t52 21.5 21 52.5v160h148V221q0-92-64.5-156.5T283 0 126 64.5 61 221v766q0 92 65 156.5t157 64.5zm0 62q-60 0-102 41.5T139 1413v49h99v-49q0-19 13-32t32-13 32 13 13 32v49h98v-49q0-60-41.5-101.5T283 1270z"/><glyph glyph-name="Eogonek" unicode="Ę" d="M504 1004H356v221q0 31-21 52t-52 21-52.5-21-21.5-52V784h147V649H209V209q0-31 21.5-52.5T283 135t52 21.5 21 52.5v221h148V221q0-51-18.5-95t-41-68.5-41-52T385-45q0-18 10.5-31.5T420-90h84v-98h-84q-56 0-94.5 41.5T287-45q0 3 6 45h-10q-92 0-157 64.5T61 221v991q0 92 65 157t157 65 156.5-65 64.5-157v-208z"/><glyph glyph-name="eogonek" unicode="ę" d="M504 840H356v159q0 31-21 52.5t-52 21.5-52.5-21.5T209 999V672h147V537H209V209q0-31 21.5-52.5T283 135t52 21.5 21 52.5v160h148V221q0-51-18.5-95t-41-68.5-41-52T385-45q0-18 10.5-31.5T420-90h84v-98h-84q-56 0-94.5 41.5T287-45q0 3 6 45h-10q-92 0-157 64.5T61 221v766q0 92 65 156.5t157 64.5 156.5-64.5T504 987V840z"/><glyph glyph-name="Ecaron" unicode="Ě" d="M283 1434q92 0 156.5-65t64.5-157v-208H356v221q0 31-21 52t-52 21-52.5-21-21.5-52V784h147V649H209V209q0-31 21.5-52.5T283 135t52 21.5 21 52.5v221h148V221q0-92-64.5-156.5T283 0 126 64.5 61 221v991q0 92 65 157t157 65zm28 254h107l-41-193H188l-41 193h107l25-150h8z"/><glyph glyph-name="ecaron" unicode="ě" d="M283 1208q92 0 156.5-64.5T504 987V840H356v159q0 31-21 52.5t-52 21.5-52.5-21.5T209 999V672h147V537H209V209q0-31 21.5-52.5T283 135t52 21.5 21 52.5v160h148V221q0-92-64.5-156.5T283 0 126 64.5 61 221v766q0 92 65 156.5t157 64.5zm28 254h107l-41-192H188l-41 192h107l25-149h8z"/><glyph glyph-name="dotlessi" unicode="ı" horiz-adv-x="270" d="M61 0v1208h148V0H61z"/><glyph glyph-name="Lslash" unicode="Ł" d="M356 430h148V221q0-92-64.5-156.5T283 0 126 64.5 61 221v1213h148V784h147V649H209V209q0-31 21.5-52.5T283 135t52 21.5 21 52.5v221z"/><glyph glyph-name="lslash" unicode="ł" d="M356 369h148V221q0-92-64.5-156.5T283 0 126 64.5 61 221v987h148V672h147V537H209V209q0-31 21.5-52.5T283 135t52 21.5 21 52.5v160z"/><glyph glyph-name="Nacute" unicode="Ń" d="M283 1434q92 0 156.5-65t64.5-157V0H356v1225q0 31-21 52t-52 21-52.5-21-21.5-52V0H61v1212q0 92 65 157t157 65zm49 61h-99l33 193h107z"/><glyph glyph-name="nacute" unicode="ń" d="M283 1208q92 0 156.5-64.5T504 987V0H356v999q0 31-21 52.5t-52 21.5-52.5-21.5T209 999V0H61v987q0 92 65 156.5t157 64.5zm49 62h-99l33 192h107z"/><glyph glyph-name="Ohungarumlaut" unicode="Ő" d="M250 1495h-98l32 193h107zm164 0h-99l33 193h107zm-131-61q92 0 156.5-65t64.5-157V221q0-92-64.5-156.5T283 0 126 64.5 61 221v991q0 92 65 157t157 65zm73-1225v1016q0 31-21 52t-52 21-52.5-21-21.5-52V209q0-31 21.5-52.5T283 135t52 21.5 21 52.5z"/><glyph glyph-name="ohungarumlaut" unicode="ő" d="M283 1208q92 0 156.5-64.5T504 987V221q0-92-64.5-156.5T283 0 126 64.5 61 221v766q0 92 65 156.5t157 64.5zm73-999v790q0 31-21 52.5t-52 21.5-52.5-21.5T209 999V209q0-31 21.5-52.5T283 135t52 21.5 21 52.5zM250 1270h-98l32 192h107zm164 0h-99l33 192h107z"/><glyph glyph-name="OE" unicode="Œ" horiz-adv-x="860" d="M799 1004H651v221q0 31-21 52t-52 21-52.5-21-21.5-52V784h147V649H504V209q0-31 21.5-52.5T578 135t52 21.5 21 52.5v221h148V221q0-92-64.5-156.5T578 0q-84 0-148 57Q366 0 283 0q-92 0-157 64.5T61 221v991q0 92 65 157t157 65q82 0 147-58 65 58 148 58 92 0 156.5-65t64.5-157v-208zM356 209v1016q0 31-21 52t-52 21-52.5-21-21.5-52V209q0-31 21.5-52.5T283 135t52 21.5 21 52.5z"/><glyph glyph-name="oe" unicode="œ" horiz-adv-x="860" d="M799 840H651v159q0 31-21 52.5t-52 21.5-52.5-21.5T504 999V672h147V537H504V209q0-31 21.5-52.5T578 135t52 21.5 21 52.5v160h148V221q0-92-64.5-156.5T578 0q-84 0-148 57Q366 0 283 0q-92 0-157 64.5T61 221v766q0 92 65 156.5t157 64.5q83 0 147-57 64 57 148 57 92 0 156.5-64.5T799 987V840zM356 209v790q0 31-21 52.5t-52 21.5-52.5-21.5T209 999V209q0-31 21.5-52.5T283 135t52 21.5 21 52.5z"/><glyph glyph-name="Sacute" unicode="Ś" d="M283 1434q92 0 156.5-65t64.5-157v-208H356v221q0 31-21 52t-52 21-52.5-21-21.5-52V858q0-31 21.5-52.5T283 784q92 0 156.5-64.5T504 563V221q0-92-64.5-156.5T283 0 126 64.5 61 221v209h148V209q0-31 21.5-52.5T283 135t52 21.5 21 52.5v366q0 31-21 52.5T283 649q-92 0-157 64.5T61 870v342q0 92 65 157t157 65zm49 61h-99l33 193h107z"/><glyph glyph-name="sacute" unicode="ś" d="M283 1208q92 0 156.5-64.5T504 987V840H356v159q0 31-21 52.5t-52 21.5-52.5-21.5T209 999V745q0-31 21.5-52t52.5-21q92 0 156.5-64.5T504 451V221q0-92-64.5-156.5T283 0 126 64.5 61 221v148h148V209q0-31 21.5-52.5T283 135t52 21.5 21 52.5v254q0 31-21 52.5T283 537q-92 0-157 64.5T61 758v229q0 92 65 156.5t157 64.5zm49 62h-99l33 192h107z"/><glyph glyph-name="Scircumflex" unicode="Ŝ" d="M283 1434q92 0 156.5-65t64.5-157v-208H356v221q0 31-21 52t-52 21-52.5-21-21.5-52V858q0-31 21.5-52.5T283 784q92 0 156.5-64.5T504 563V221q0-92-64.5-156.5T283 0 126 64.5 61 221v209h148V209q0-31 21.5-52.5T283 135t52 21.5 21 52.5v366q0 31-21 52.5T283 649q-92 0-157 64.5T61 870v342q0 92 65 157t157 65zm28 61-24 150h-8l-25-150H147l41 193h189l41-193H311z"/><glyph glyph-name="scircumflex" unicode="ŝ" d="M283 1208q92 0 156.5-64.5T504 987V840H356v159q0 31-21 52.5t-52 21.5-52.5-21.5T209 999V745q0-31 21.5-52t52.5-21q92 0 156.5-64.5T504 451V221q0-92-64.5-156.5T283 0 126 64.5 61 221v148h148V209q0-31 21.5-52.5T283 135t52 21.5 21 52.5v254q0 31-21 52.5T283 537q-92 0-157 64.5T61 758v229q0 92 65 156.5t157 64.5zm28 62-24 149h-8l-25-149H147l41 192h189l41-192H311z"/><glyph glyph-name="Scaron" unicode="Š" d="M283 1434q92 0 156.5-65t64.5-157v-208H356v221q0 31-21 52t-52 21-52.5-21-21.5-52V858q0-31 21.5-52.5T283 784q92 0 156.5-64.5T504 563V221q0-92-64.5-156.5T283 0 126 64.5 61 221v209h148V209q0-31 21.5-52.5T283 135t52 21.5 21 52.5v366q0 31-21 52.5T283 649q-92 0-157 64.5T61 870v342q0 92 65 157t157 65zm28 254h107l-41-193H188l-41 193h107l25-150h8z"/><glyph glyph-name="scaron" unicode="š" d="M283 1208q92 0 156.5-64.5T504 987V840H356v159q0 31-21 52.5t-52 21.5-52.5-21.5T209 999V745q0-31 21.5-52t52.5-21q92 0 156.5-64.5T504 451V221q0-92-64.5-156.5T283 0 126 64.5 61 221v148h148V209q0-31 21.5-52.5T283 135t52 21.5 21 52.5v254q0 31-21 52.5T283 537q-92 0-157 64.5T61 758v229q0 92 65 156.5t157 64.5zm28 254h107l-41-192H188l-41 192h107l25-149h8z"/><glyph glyph-name="Uhungarumlaut" unicode="Ű" d="M356 209v1225h148V221q0-92-64.5-156.5T283 0 126 64.5 61 221v1213h148V209q0-31 21.5-52.5T283 135t52 21.5 21 52.5zM250 1495h-98l32 193h107zm164 0h-99l33 193h107z"/><glyph glyph-name="uhungarumlaut" unicode="ű" d="M356 209v999h148V221q0-92-64.5-156.5T283 0 126 64.5 61 221v987h148V209q0-31 21.5-52.5T283 135t52 21.5 21 52.5zM250 1270h-98l32 192h107zm164 0h-99l33 192h107z"/><glyph glyph-name="Wcircumflex" unicode="Ŵ" horiz-adv-x="860" d="M651 209v1225h148V221q0-92-64.5-156.5T578 0q-84 0-148 57Q366 0 283 0q-92 0-157 64.5T61 221v1213h148V209q0-31 21.5-52.5T283 135t52 21.5 21 52.5v1225h148V209q0-31 21.5-52.5T578 135t52 21.5 21 52.5zM459 1495l-25 150h-8l-25-150H295l41 193h188l41-193H459z"/><glyph glyph-name="wcircumflex" unicode="ŵ" horiz-adv-x="860" d="M651 209v999h148V221q0-92-64.5-156.5T578 0q-84 0-148 57Q366 0 283 0q-92 0-157 64.5T61 221v987h148V209q0-31 21.5-52.5T283 135t52 21.5 21 52.5v999h148V209q0-31 21.5-52.5T578 135t52 21.5 21 52.5zM459 1270l-25 149h-8l-25-149H295l41 192h188l41-192H459z"/><glyph glyph-name="Ycircumflex" unicode="Ŷ" d="M356 858v576h148V870q0-71-41-126.5T356 664V0H209v664q-66 24-107 79.5T61 870v564h148V858q0-31 21.5-52.5T283 784t52 21.5 21 52.5zm-45 637-24 150h-8l-25-150H147l41 193h189l41-193H311z"/><glyph glyph-name="ycircumflex" unicode="ŷ" d="M356 745v463h148V758q0-71-41-127t-107-80V0H209v551q-66 24-107 80T61 758v450h148V745q0-31 21.5-52t52.5-21 52 21 21 52zm-45 525-24 149h-8l-25-149H147l41 192h189l41-192H311z"/><glyph glyph-name="Ydieresis" unicode="Ÿ" d="M356 858v576h148V870q0-71-41-126.5T356 664V0H209v664q-66 24-107 79.5T61 870v564h148V858q0-31 21.5-52.5T283 784t52 21.5 21 52.5zm-209 637v107h107v-107H147zm164 0v107h107v-107H311z"/><glyph glyph-name="Zacute" unicode="Ź" d="M213 135h291V0H184q-62 0-98 45-25 31-25 74 0 8 5 33l286 1146H61v136h320q62 0 98-45 25-31 25-74 0-13-4-33zm119 1360h-99l33 193h107z"/><glyph glyph-name="zacute" unicode="ź" d="M213 135h291V0H184q-62 0-98 45-25 31-25 74 0 8 5 33l286 921H61v135h320q62 0 98-45 25-31 25-73 0-13-4-33zm119 1135h-99l33 192h107z"/><glyph glyph-name="Zdotaccent" unicode="Ż" d="M229 1495v107h107v-107H229zM213 135h291V0H184q-62 0-98 45-25 31-25 74 0 8 5 33l286 1146H61v136h320q62 0 98-45 25-31 25-74 0-13-4-33z"/><glyph glyph-name="zdotaccent" unicode="ż" d="M213 135h291V0H184q-62 0-98 45-25 31-25 74 0 8 5 33l286 921H61v135h320q62 0 98-45 25-31 25-73 0-13-4-33zm16 1135v106h107v-106H229z"/><glyph glyph-name="Zcaron" unicode="Ž" d="M213 135h291V0H184q-62 0-98 45-25 31-25 74 0 8 5 33l286 1146H61v136h320q62 0 98-45 25-31 25-74 0-13-4-33zm98 1553h107l-41-193H188l-41 193h107l25-150h8z"/><glyph glyph-name="zcaron" unicode="ž" d="M213 135h291V0H184q-62 0-98 45-25 31-25 74 0 8 5 33l286 921H61v135h320q62 0 98-45 25-31 25-73 0-13-4-33zm98 1327h107l-41-192H188l-41 192h107l25-149h8z"/><glyph glyph-name="uni0191" unicode="Ƒ" horiz-adv-x="712" d="M430 1434q92 0 156.5-65t64.5-157v-208H504v221q0 31-21.5 52t-52.5 21-52.5-21-21.5-52V784h148V649H356V90q0-92-64.5-156.5T135-131H61V4h74q31 0 52.5 21.5T209 78v1134q0 92 64.5 157t156.5 65z"/><glyph glyph-name="florin" unicode="ƒ" horiz-adv-x="712" d="M430 1208q92 0 156.5-64.5T651 987V840H504v159q0 31-21.5 52.5T430 1073t-52.5-21.5T356 999V672h148V537H356V90q0-92-64.5-156.5T135-131H61V4h74q31 0 52.5 21.5T209 78v909q0 92 64.5 156.5T430 1208z"/><glyph glyph-name="uni01CD" unicode="Ǎ" d="M311 1688h107l-41-193H188l-41 193h107l25-150h8zm-28-254q92 0 156.5-65t64.5-157V0H356v649H209V0H61v1212q0 92 65 157t157 65zm-74-650h147v441q0 31-21 52t-52 21-52.5-21-21.5-52V784z"/><glyph glyph-name="uni01CE" unicode="ǎ" d="M283 1208q92 0 156.5-64.5T504 987V0H356v537H209V0H61v987q0 92 65 156.5t157 64.5zm-74-536h147v327q0 31-21 52.5t-52 21.5-52.5-21.5T209 999V672zm102 790h107l-41-192H188l-41 192h107l25-149h8z"/><glyph glyph-name="circumflex" unicode="ˆ" horiz-adv-x="393" d="m225 1270-24 149h-8l-25-149H61l41 192h189l41-192H225z"/><glyph glyph-name="caron" unicode="ˇ" horiz-adv-x="393" d="M225 1462h107l-41-192H102l-41 192h107l25-149h8z"/><glyph glyph-name="uni02C9" unicode="ˉ" horiz-adv-x="393" d="M61 1270v106h271v-106H61z"/><glyph glyph-name="uni02CA" unicode="ˊ" horiz-adv-x="262" d="M160 1270H61l33 192h107z"/><glyph glyph-name="uni02CB" unicode="ˋ" horiz-adv-x="262" d="m102 1270-41 192h107l33-192h-99z"/><glyph glyph-name="breve" unicode="˘" horiz-adv-x="409" d="M205 1270q-60 0-102 41.5T61 1413v49h99v-49q0-19 13-32t32-13 32 13 13 32v49h98v-49q0-60-41.5-101.5T205 1270z"/><glyph glyph-name="dotaccent" unicode="˙" horiz-adv-x="229" d="M61 1270v106h107v-106H61z"/><glyph glyph-name="ring" unicode="˚" horiz-adv-x="409" d="M205 1606q60 0 101.5-42t41.5-102v-49q0-60-41.5-101.5T205 1270t-102 41.5T61 1413v49q0 60 42 102t102 42zm45-193v49q0 19-13 32t-32 13-32-13-13-32v-49q0-19 13-32t32-13 32 13 13 32z"/><glyph glyph-name="ogonek" unicode="˛" horiz-adv-x="339" d="M131 221h148q0-51-18.5-95t-41-68.5-41-52T160-45q0-18 10.5-31.5T195-90h84v-98h-84q-56 0-95 41.5T61-45Q61 7 96 81.5T131 209v12z"/><glyph glyph-name="tilde" unicode="˜" horiz-adv-x="524" d="m137 1239-76 61 54 68q39 45 92 45 55 0 94-45 15-19 31 0l55 66 76-62-53-67q-39-45-93-45-55 0-94 45-15 18-30 0z"/><glyph glyph-name="hungarumlaut" unicode="˝" horiz-adv-x="425" d="M160 1270H61l33 192h107zm164 0h-99l33 192h107z"/><glyph glyph-name="Pi" unicode="Π" d="M209 0H61v1434h222q92 0 156.5-65t64.5-157V0H356v1225q0 31-21 52t-52 21h-74V0z"/><glyph glyph-name="pi" unicode="π" horiz-adv-x="712" d="M356 0H209v1298H61v136h369q92 0 156.5-65t64.5-157V0H504v1225q0 31-21.5 52t-52.5 21h-74V0z"/><glyph glyph-name="uni0400" unicode="Ѐ" d="M283 1434q92 0 156.5-65t64.5-157v-208H356v221q0 31-21 52t-52 21-52.5-21-21.5-52V784h147V649H209V209q0-31 21.5-52.5T283 135t52 21.5 21 52.5v221h148V221q0-92-64.5-156.5T283 0 126 64.5 61 221v991q0 92 65 157t157 65zm-50 61-40 193h106l33-193h-99z"/><glyph glyph-name="uni0450" unicode="ѐ" d="M283 1208q92 0 156.5-64.5T504 987V840H356v159q0 31-21 52.5t-52 21.5-52.5-21.5T209 999V672h147V537H209V209q0-31 21.5-52.5T283 135t52 21.5 21 52.5v160h148V221q0-92-64.5-156.5T283 0 126 64.5 61 221v766q0 92 65 156.5t157 64.5zm-50 62-40 192h106l33-192h-99z"/><glyph glyph-name="uni1E9E" unicode="ẞ" d="M504 1212V870q0-91-62-153 62-62 62-154V221q0-84-56-146T309 2V0H209v-131H61v1565h222q92 0 156.5-65t64.5-157zm-221 86h-74V784h74q31 0 52 21.5t21 52.5v367q0 31-21 52t-52 21zm73-1089v366q0 31-21 52.5T283 649h-74V135h74q31 0 52 21.5t21 52.5z"/><glyph glyph-name="endash" unicode="–" d="M61 649v135h443V649H61z"/><glyph glyph-name="emdash" unicode="—" horiz-adv-x="712" d="M61 649v135h590V649H61z"/><glyph glyph-name="quoteleft" unicode="‘" horiz-adv-x="270" d="M123 1303h86v-148H61v148l41 131h54z"/><glyph glyph-name="quoteright" unicode="’" horiz-adv-x="270" d="M61 1286v148h148v-148l-41-131h-53l32 131H61z"/><glyph glyph-name="quotesinglbase" unicode="‚" horiz-adv-x="270" d="M61 147h148V0l-41-131h-53L147 0H61v147z"/><glyph glyph-name="quotereversed" unicode="‛" horiz-adv-x="270" d="M209 1286h-86l33-131h-54l-41 131v148h148v-148z"/><glyph glyph-name="quotedblleft" unicode="“" horiz-adv-x="479" d="M418 1303v-148H270v148l41 131h54l-33-131h86zm-209-148H61v148l41 131h54l-33-131h86v-148z"/><glyph glyph-name="quotedblright" unicode="”" horiz-adv-x="479" d="M61 1286v148h148v-148l-41-131h-53l32 131H61zm209 148h148v-148l-41-131h-53l32 131h-86v148z"/><glyph glyph-name="quotedblbase" unicode="„" horiz-adv-x="479" d="M61 0v147h148V0l-41-131h-53L147 0H61zm209 147h148V0l-41-131h-53L356 0h-86v147z"/><glyph glyph-name="uni201F" unicode="‟" horiz-adv-x="479" d="M418 1286h-86l33-131h-54l-41 131v148h148v-148zm-209 148v-148h-86l33-131h-54l-41 131v148h148z"/><glyph glyph-name="dagger" unicode="†" d="M504 1139v-135H356V-131H209v1135H61v135h148v295h147v-295h148z"/><glyph glyph-name="daggerdbl" unicode="‡" d="M504 1004H356V430h148V295H356v-426H209v426H61v135h148v574H61v135h148v295h147v-295h148v-135z"/><glyph glyph-name="bullet" unicode="•" horiz-adv-x="344" d="M61 606v221h222V606H61z"/><glyph glyph-name="ellipsis" unicode="…" horiz-adv-x="860" d="M61 0v147h148V0H61zm295 0v147h148V0H356zm295 0v147h148V0H651z"/><glyph glyph-name="perthousand" unicode="‰" horiz-adv-x="1146" d="M535 0h-54q-55 0-94 39t-39 94v80q0 55 39 94t94 39h54q55 0 94-39t39-94v-80q0-55-39-94T535 0zm-54 248q-13 0-24-11t-11-24v-80q0-13 11-24t24-11h54q13 0 23.5 10.5T569 133v80q0 14-10.5 24.5T535 248h-54zM952 0h-53q-55 0-94 39t-39 94v80q0 55 39 94t94 39h53q56 0 94.5-39t38.5-94v-80q0-55-38.5-94T952 0zm-53 248q-13 0-24-11t-11-24v-80q0-13 11-24t24-11h53q14 0 24.5 11t10.5 24v80q0 13-10.5 24T952 248h-53zm-651 839h-53q-55 0-94.5 39.5T61 1221v79q0 56 39.5 95t94.5 39h53q55 0 94-39t39-95v-79q0-56-39-95t-94-39zm-53 248q-13 0-24-10.5t-11-24.5v-79q0-13 11-24t24-11h53q14 0 24.5 11t10.5 24v79q0 14-10.5 24.5T248 1335h-53zM96 14l443 1434 94-29L190-14z"/><glyph glyph-name="guilsinglleft" unicode="‹" horiz-adv-x="475" d="M317 461 61 717l256 256 97-96-162-160 162-160z"/><glyph glyph-name="guilsinglright" unicode="›" horiz-adv-x="475" d="m158 461-97 96 162 160L61 877l97 96 256-256z"/><glyph glyph-name="fraction" unicode="⁄" horiz-adv-x="659" d="m61 14 443 1434 94-29L156-14z"/><glyph glyph-name="uni2070" unicode="⁰" horiz-adv-x="442" d="M248 1004h-53q-56 0-95 39t-39 94v163q0 56 39.5 95t94.5 39h53q55 0 94-39t39-95v-163q0-55-38.5-94t-94.5-39zm-53 331q-13 0-24-10.5t-11-24.5v-163q0-13 11-24t24-11h53q14 0 24.5 11t10.5 24v163q0 14-10.5 24.5T248 1335h-53z"/><glyph glyph-name="uni2074" unicode="⁴" horiz-adv-x="442" d="M283 1434h98v-430h-98v165h-88q-55 0-94.5 39.5T61 1303v131h99v-131q0-13 11-24t24-11h88v166z"/><glyph glyph-name="uni2080" unicode="₀" horiz-adv-x="442" d="M248 0h-53q-56 0-95 39t-39 94v164q0 55 39 94t95 39h53q56 0 94.5-39t38.5-94V133q0-55-38.5-94T248 0zm-53 332q-13 0-24-11t-11-24V133q0-13 11-24t24-11h53q14 0 24.5 11t10.5 24v164q0 13-10.5 24T248 332h-53z"/><glyph glyph-name="uni2081" unicode="₁" horiz-adv-x="344" d="M283 0h-99v297q0 14-10.5 24.5T150 332H61v98h89q56 0 94.5-39t38.5-94V0z"/><glyph glyph-name="uni2082" unicode="₂" horiz-adv-x="442" d="M160 131V98h221V0H61v131q0 55 39 94t95 39h53q14 0 24.5 11t10.5 24-10.5 23-24.5 10h-53q-14 0-24.5-10T160 299v-4H61v4q0 55 39 93t95 38h53q56 0 94.5-38t38.5-93-38.5-94-94.5-39h-53q-13 0-24-11t-11-24z"/><glyph glyph-name="uni2083" unicode="₃" horiz-adv-x="442" d="M381 299q0-47-29-84 29-37 29-84 0-55-38.5-93T248 0h-53q-56 0-95 38t-39 93v4h99v-4q0-13 10.5-23T195 98h53q14 0 24.5 10t10.5 23-10.5 24-24.5 11h-53v98h53q14 0 24.5 11t10.5 24-10.5 23-24.5 10h-53q-14 0-24.5-10T160 299v-4H61v4q0 55 39 93t95 38h53q56 0 94.5-38t38.5-93z"/><glyph glyph-name="uni2084" unicode="₄" horiz-adv-x="442" d="M283 430h98V0h-98v166h-88q-56 0-95 39t-39 94v131h99V299q0-13 11-24t24-11h88v166z"/><glyph glyph-name="Euro" unicode="€" horiz-adv-x="712" d="M651 1004H504v221q0 31-21.5 52t-52.5 21-52.5-21-21.5-52V920h148V784H356V649h148V514H356V209q0-31 21.5-52.5T430 135t52.5 21.5T504 209v221h147V221q0-92-64.5-156.5T430 0 273.5 64.5 209 221v293H61v135h148v135H61v136h148v292q0 92 64.5 157t156.5 65 156.5-65 64.5-157v-208z"/><glyph glyph-name="uni2116" unicode="№" horiz-adv-x="1032" d="M61 0v1212q0 92 65 157t157 65 156.5-65 64.5-157V0H356v1225q0 31-21 52t-52 21-52.5-21-21.5-52V0H61zm590 807v98h320v-98H651zm187 197h-54q-56 0-94.5 39t-38.5 94v163q0 56 39 95t94 39h54q55 0 94-39t39-95v-163q0-55-38.5-94t-94.5-39zm-54 331q-13 0-23.5-10.5T750 1300v-163q0-14 10.5-24.5T784 1102h54q13 0 23.5 10.5T872 1137v163q0 14-10.5 24.5T838 1335h-54z"/><glyph glyph-name="trademark" unicode="™" horiz-adv-x="983" d="M788 1434q56 0 95-39t39-95v-296h-99v296q0 14-10.5 24.5T788 1335h-53q-13 0-24-10.5t-11-24.5v-296h-98v296q0 14-11 24.5t-24 10.5h-53q-14 0-24.5-10.5T479 1300v-296h-98v296q0 14-10.5 24.5T346 1335h-76v-331h-98v331H61v99h285q44 0 84-31 40 31 84 31h53q44 0 84-31 40 31 84 31h53z"/><glyph glyph-name="onethird" unicode="⅓" horiz-adv-x="741" d="M295 1004h-98v296q0 14-10.5 24.5T162 1335H74v99h88q55 0 94-39t39-95v-296zM61 14l443 1434 92-29L154-14zm619 285q0-47-29-84 29-37 29-84 0-55-38.5-93T547 0h-53q-56 0-95 38t-39 93v4h99v-4q0-13 10.5-23T494 98h53q14 0 24.5 10t10.5 23-11 24-24 11h-53v98h53q13 0 24 11t11 24-10.5 23-24.5 10h-53q-14 0-24.5-10T459 299v-4h-99v4q0 55 39 93t95 38h53q56 0 94.5-38t38.5-93z"/><glyph glyph-name="twothirds" unicode="⅔" horiz-adv-x="827" d="m145 14 443 1434 94-29L240-14zm15 1121v-33h221v-98H61v131q0 55 39 94t95 39h53q14 0 24.5 11t10.5 24-10.5 22.5-24.5 9.5h-53q-14 0-24.5-9.5T160 1303v-5H61v5q0 55 39 93t95 38h53q56 0 94.5-38t38.5-93q0-56-39-95t-94-39h-53q-14 0-24.5-10.5T160 1135zm606-836q0-47-29-84 29-37 29-84 0-55-38.5-93T633 0h-53q-56 0-95 38t-39 93v4h99v-4q0-13 10.5-23T580 98h53q14 0 24.5 10t10.5 23-11 24-24 11h-53v98h53q13 0 24 11t11 24-10.5 23-24.5 10h-53q-14 0-24.5-10T545 299v-4h-99v4q0 55 39 93t95 38h53q56 0 94.5-38t38.5-93z"/><glyph glyph-name="minus" unicode="−" d="M61 649v135h443V649H61z"/></font>
</defs>
</svg>
