<svg version="1.0" xmlns="http://www.w3.org/2000/svg" width="400" height="400" viewBox="0 0 300 300"><path d="M188 2.5c-9.8 1.6-31.8 7-36.6 9-2.8 1.1-4.1 1.1-8.5 0-20.9-5.5-47.3-4.2-77.8 4C43.2 21.4 22.8 34.6 13 49c-4.4 6.6-4.7 7.3-7.1 17.3C4.1 73.7 4 79.3 4 173.7c0 87.4.2 100.3 1.6 105.6 2.8 11.1 9.6 17.6 20.2 19.8 5.3 1.1 9.9 1 29.4-.4 12.7-1 26.2-2.5 30-3.3 6.2-1.4 7.6-2.2 12.4-7 3-3 5.4-6.1 5.4-6.9 0-2.1 1.7-1.8 3 .5 2 3.8 9.7 8.7 15.8 10 4.9 1 9.8.9 28.8-.5 12.6-.9 25.7-2.3 29.2-3.1 7.5-1.7 14.2-6 17.3-11.1 1.2-2.1 2.3-3.9 2.5-4.1.1-.2 2.4 1.9 5.2 4.6 4.2 4.1 6.2 5.2 11.7 6.6 6.2 1.5 8.2 1.5 28.3.1 34-2.5 42.6-5 48.2-14 5-8.1 5-6.9 5-114.5-.1-93.6-.2-101-1.9-108.2-3.1-13.1-10.1-22.5-22.9-30.9-8.6-5.7-14.6-8-30.7-12.1-10.5-2.6-14.1-3.1-29-3.4-11.4-.2-19.8.1-25.5 1.1zM238.5 31c15.6 4.2 27 11.5 30.6 19.4 1.8 3.9 1.9 9.1 1.9 104.3V255l-2.2.4c-1.3.3-9.5 1-18.3 1.6-8.8.6-18.6 1.3-21.7 1.7l-5.8.6V159.1c0-67.1-.3-100.9-1-102.2-1.7-3-8.5-5.9-15.5-6.6-11.2-1-23.7 2.6-29.1 8.4l-2.4 2.6v201.3l-22.7 1.7c-12.6 1-23.4 1.7-24 1.7-1 0-1.3-20.8-1.3-100.5V64.9l-2.6-2.4c-3.8-3.5-8.9-4.9-17.9-4.9-10.7 0-18.3 2.4-23.5 7.3l-4 3.8v100.6c0 95.2-.1 100.7-1.7 100.7-1 0-9.9.7-19.8 1.5S37.6 273 35.3 273H31V72.4l2.6-5.2C39.9 54.5 59.5 43.3 85 37.9c8.3-1.7 14-2.2 27.5-2.3 16.7-.1 23.1.7 33.6 4 4.3 1.4 4.8 1.3 10.1-1 8.5-3.8 21.4-7.5 31.3-9.1 13.6-2.2 40.5-1.4 51 1.5z"/></svg>