<svg xmlns="http://www.w3.org/2000/svg"><defs><font id="TimesNewRomanMTStd" horiz-adv-x="1024"><font-face font-family="Times New Roman MT Std" font-weight="400" units-per-em="2048" panose-1="2 2 6 3 5 4 5 2 3 4" ascent="1468" descent="-580" x-height="950" cap-height="1407" bbox="-193 -494 2060 1876" underline-thickness="102" underline-position="-307" unicode-range="U+0020-FB02"/><glyph glyph-name="f_i" unicode="fi" horiz-adv-x="1130" d="M946 961V201q0-91 34-129.5T1104 37V0H610v37q67 0 100 12.5t50.5 54T778 229v523q0 81-26.5 108T647 887H371V229q0-120 30.5-156T526 37V0H37v37q96-3 131 35t35 157v658H37v63h166q-4 132 29.5 234t94.5 162.5 138 91 166 30.5q118 0 205.5-55t87.5-129q0-34-23-58t-55-24q-33 0-60 21t-46.5 50.5T699 1333t-52.5 51-71.5 21q-96 0-150-77t-54-236V950h440q63 0 100 11h35z"/><glyph glyph-name="f_l" unicode="fl" horiz-adv-x="1130" d="M944 1468V225q0-118 31-153t127-35V0H612v37q100 0 132 35.5T776 225v662H371V225q0-117 32.5-152.5T530 37V0H39v37q33 0 53.5 2t41.5 8.5T166 66t20.5 33 13 51.5T203 225v662H39v63h164q-6 130 23 232t82.5 163 120 92 140.5 31q115 0 197-73l141 73h37zM776 950v312h-4q-14-39-57-39-31 0-58.5 27t-45.5 60-48 60-65 27q-127 0-127-236V950h405z"/><glyph glyph-name=".notdef" d="M0 0v1434h1024V0H0zm512 809 348 522H164zm61-92 349-522v1044zM164 102h696L512 625zm-62 1137V195l349 522z"/><glyph glyph-name=".null" horiz-adv-x="0"/><glyph glyph-name="nonmarkingreturn" horiz-adv-x="682"/><glyph glyph-name="space" horiz-adv-x="512"/><glyph glyph-name="exclam" unicode="!" horiz-adv-x="555" d="m391 1161-90-790h-37l-84 798q-1 9-5.5 61t-4.5 62q0 62 34 104t81 42q52 0 84-40.5t32-105.5q0-56-10-131zM164 86q0 46 33 79.5t79 33.5q47 0 81-34t34-81q0-46-34-79.5T276-29q-46 0-79 34t-33 81z"/><glyph glyph-name="quotedbl" unicode="&quot;" horiz-adv-x="831" d="m578 854-54 295q-22 121-22 166 0 123 96 123 44 0 74-30.5t30-76.5q0-41-20-149l-61-328h-43zm-371 0-53 295q-23 126-23 166 0 123 96 123 44 0 74.5-30.5T332 1331q0-36-21-149l-61-328h-43z"/><glyph glyph-name="numbersign" unicode="#" horiz-adv-x="1366" d="m412 1016 84 405h122l-83-405h423l84 405h123l-84-405h195V893h-221l-76-369h297V401H954L870 0H748l83 401H408L324 0H201l84 401H88v123h221l76 369H88v123h324zm520-123H510l-78-369h424z"/><glyph glyph-name="dollar" unicode="$" d="M471 1491h64v-64q160-9 333-86v-311h-37q-4 151-87.5 235T535 1360V834l178-115q107-69 164-161t57-198q0-155-109.5-259T535-16v-129h-64v129Q277-7 106 63v295h39q10-133 107.5-220.5T471 45v614Q283 760 194.5 865.5T106 1094q0 138 99.5 228.5T471 1427v64zm0-617v486q-94-10-152.5-68.5T260 1151q0-148 211-277zm64-253V47q114 17 181.5 87T784 303q0 88-55.5 158.5T535 621z"/><glyph glyph-name="percent" unicode="%" horiz-adv-x="1685" d="M1112 350q0 77 18 140.5t46.5 104 65 68.5 71.5 40 67 12q46 0 92-22.5t86-65 64.5-115T1647 350q0-77-17.5-140T1584 106.5t-64-68-71-39-69-11.5q-44 0-89 21t-86 62-67 113.5-26 165.5zm119 0q0-330 149-330 148 0 148 330 0 332-148 332-149 0-149-332zM41 1065q0 77 18 140.5t46.5 104 65 68.5 71.5 40 67 12q46 0 92-22.5t85.5-65 64-115T575 1065q0-77-17.5-140.5T512 821t-64-68-70.5-39.5T309 702q-44 0-89 21t-86 62-67 114-26 166zm119 0q0-330 149-330 148 0 148 330 0 332-148 332-149 0-149-332zm1114 371h88L383-57h-88z"/><glyph glyph-name="ampersand" unicode="&amp;" horiz-adv-x="1579" d="M1470 913v-36q-50-3-83.5-19.5T1311 799q-28-28-66.5-105T1149 512.5 1024 326q91-103 166-148t156-45q60 0 105.5 40.5T1511 279l33-23q-20-126-105.5-206.5T1239-31q-90 0-170 44.5T881 170Q771 67 658 18T418-31q-151 0-250.5 92T68 291q0 145 98 263t319 239q-77 155-77 309 0 141 97.5 238.5T745 1438q117 0 197-69.5t80-170.5q0-115-81-210T707 825q38-90 266-438 74 88 118 189.5t44 183.5q0 51-24.5 82t-70.5 35v36h430zm-798-22q122 62 175.5 130t53.5 163q0 83-42 132.5T748 1366q-71 0-110.5-51.5T598 1171q0-140 74-280zm155-664q-79 90-163 226T516 719q-114-57-174.5-145T281 377q0-112 77.5-195.5T539 98q72 0 150 34.5T827 227z"/><glyph glyph-name="quotesingle" unicode="'" horiz-adv-x="362" d="m158 854-54 295q-22 121-22 166 0 123 96 123 44 0 74.5-30.5T283 1331q0-36-21-149l-61-328h-43z"/><glyph glyph-name="parenleft" unicode="(" horiz-adv-x="681" d="M651 1468v-34q-189-112-276.5-333T287 520q0-364 88.5-587T651-397v-37Q379-285 234.5-42T90 518q0 316 147.5 566T651 1468z"/><glyph glyph-name="parenright" unicode=")" horiz-adv-x="681" d="M31-434v35Q220-287 307.5-66.5T395 514q0 364-88.5 587.5T31 1432v36q272-149 416.5-392T592 516q0-316-147.5-566T31-434z"/><glyph glyph-name="asterisk" unicode="*" d="M473 1055q-25 17-85 31.5T277 1111t-91.5 38-40.5 72q0 30 22.5 51.5T221 1294q36 0 70-22t59.5-51 67-68.5T500 1087q0 60-34 153t-34 142q0 37 25 66t57 29 56-28.5 24-66.5q0-60-29.5-151.5T532 1087q45 32 87 73.5t65 68.5 54.5 46 66.5 19q29 0 51.5-22t22.5-51q0-34-21.5-57.5t-60-37-78-23-88.5-22-80-26.5q30-19 91.5-34T753 996t87.5-38 38.5-73q0-30-21-52t-49-22q-46 0-88.5 34t-95 90.5T532 1020q-1-46 30.5-146.5T594 735q0-41-23-70.5T516 635q-35 0-59.5 29T432 733q0 43 33 138.5t35 148.5q-35-20-74-58t-66-70-64-56.5-73-24.5q-31 0-54.5 21.5T145 883q0 46 37.5 74t85.5 37 110 25 95 36z"/><glyph glyph-name="plus" unicode="+" horiz-adv-x="1366" d="M141 764h480v479h124V764h480V639H745V160H621v479H141v125z"/><glyph glyph-name="comma" unicode="," horiz-adv-x="555" d="M127-342v39q113 38 168 111.5T350-39q0 17-9 29T319 2q-4 0-8.5-2T299-6t-12-6q-25-17-51-17-44 0-76.5 32.5T127 80q0 52 37.5 87.5T258 203q72 0 119-59T424-4q0-118-73-201T127-342z"/><glyph glyph-name="hyphen" unicode="-" horiz-adv-x="681" d="M88 557h508V395H88v162z"/><glyph glyph-name="period" unicode="." horiz-adv-x="555" d="M279 199q47 0 79.5-33T391 86q0-48-32.5-81.5T279-29 198 5t-34 81 34 80 81 33z"/><glyph glyph-name="slash" unicode="/" horiz-adv-x="575" d="M440 1468h135L135-31H0z"/><glyph glyph-name="zero" unicode="0" d="M66 702q0 148 28 272t73 206.5 103.5 140 118 83.5 117.5 26q61 0 123-26.5t121.5-85 105.5-141 74-206T958 702q0-149-29.5-274t-76-206.5-106-139T629 0 516-25q-67 0-131 28.5t-122 88T161.5 235 92 439.5 66 702zm196 0q0-665 248-665 126 0 188 163t62 502q0 146-11.5 259.5t-38.5 209-77.5 146.5-122.5 51q-126 0-187-163.5T262 702z"/><glyph glyph-name="one" unicode="1" d="M432 1116q0 78-17.5 117t-58.5 39q-39 0-100-33l-20 33 331 166h39V205q0-101 36-134.5T780 37V0H256v37q57 0 92.5 9.5t53.5 32 24 51 6 75.5v911z"/><glyph glyph-name="two" unicode="2" d="M137 1047h-37q43 199 138.5 291t259.5 92q158 0 271.5-109T883 1061q0-119-55.5-236.5t-190-276T254 152h453q92 0 142.5 25t82.5 85h39L870 0H57v37q249 224 394 393.5T652.5 723 709 965q0 76-28.5 137t-73.5 95.5-93 52.5-94 18q-190 0-283-221z"/><glyph glyph-name="three" unicode="3" d="m174 1114-35 14q44 140 137.5 221t227.5 81q135 0 226-82t91-203q0-85-41-156.5T641 831q122-51 186-146.5T891 459q0-212-156.5-348T332-25Q231-25 174 4t-57 80q0 29 23.5 52.5T195 160q34 0 71.5-16t67-34.5T408 75t92-16q103 0 173 82t70 203q0 76-27 141.5T639 599t-126.5 73.5T342 694v39q148 21 232.5 111.5T659 1053q0 101-67.5 166T420 1284q-162 0-246-170z"/><glyph glyph-name="four" unicode="4" d="M674 1430h108V506h191V354H782V0H608v354H33v160zm-70-226L119 506h489v698h-4z"/><glyph glyph-name="five" unicode="5" d="M434 1407h490l-76-160H434l-94-203q263-44 412-190t149-354q0-104-45-201T736.5 131t-176-113.5T350-25q-91 0-157 40.5T127 111q0 29 20 50t48 21q34 0 67.5-16t58-35 66-35T475 80q116 0 206.5 98.5T772 403q0 86-32.5 161T650 694.5 517.5 790 355 850.5 176 872z"/><glyph glyph-name="six" unicode="6" d="M928 1438v-41q-129-1-252-75t-220.5-216.5T315 778q142 107 291 107 152 0 251-114.5T956 479q0-209-122-356.5T539-25q-124 0-225.5 77T154 263.5 96 563q0 147 45.5 285T264 1091t174.5 184.5 206 121T856 1438h72zM303 713q-16-96-16-170 0-56 7.5-118.5T322 292t50-125 79-91.5T561 39q101 0 161 88t60 235q0 58-7 114.5T749.5 592t-47 103-75.5 72-107 28q-54 0-101.5-18T303 713z"/><glyph glyph-name="seven" unicode="7" d="M213 1407h733L494-25H375l413 1272H375q-81 0-139.5-39.5T121 1077l-35 13z"/><glyph glyph-name="eight" unicode="8" d="M393 717q-137 96-197.5 186.5T135 1102q0 140 105.5 238t261.5 98q150 0 260-93t110-217q0-91-66.5-173.5T590 782q171-138 241-236.5T901 334q0-152-111.5-256.5T514-27Q349-27 234 76T119 326q0 100 58 182.5T393 717zm-112 436q0-145 258-334 106 76 150 146t44 159q0 115-61 179.5T502 1368q-94 0-157.5-61.5T281 1153zm483-889q0 89-73.5 178.5T440 680q-90-80-130-159t-40-177q0-135 71.5-221T526 37q101 0 169.5 65T764 264z"/><glyph glyph-name="nine" unicode="9" d="M104-25v41q129 1 252 75t220.5 216.5T717 635Q575 528 426 528q-152 0-251 114.5T76 934q0 209 122.5 356.5T494 1438q124 0 225.5-77t159-211.5T936 850q0-147-45.5-285T768 322 593.5 137.5t-206-121T176-25h-72zm625 725q16 96 16 170 0 56-7.5 118.5T710 1121t-50 125-79 91.5-110 36.5q-101 0-161-88t-60-235q0-58 7-114.5T282.5 821t47-103 75.5-72 107-28q54 0 101.5 18T729 700z"/><glyph glyph-name="colon" unicode=":" horiz-adv-x="555" d="M164 860q0 47 34 80t81 33 79.5-33 32.5-80q0-48-32.5-81.5T279 745t-81 34-34 81zm115-661q47 0 79.5-33T391 86q0-48-32.5-81.5T279-29 198 5t-34 81 34 80 81 33z"/><glyph glyph-name="semicolon" unicode=";" horiz-adv-x="555" d="M127-342v39q113 38 168 111.5T350-39q0 17-9 29T319 2q-4 0-8.5-2T299-6t-12-6q-25-17-51-17-44 0-76.5 32.5T127 80q0 52 37.5 87.5T258 203q72 0 119-59T424-4q0-118-73-201T127-342zm37 1202q0 47 34 80t81 33 79.5-33 32.5-80q0-48-32.5-81.5T279 745t-81 34-34 81z"/><glyph glyph-name="less" unicode="&lt;" horiz-adv-x="1368" d="M1227 182 141 639v117l1086 456v-141L315 698l912-372V182z"/><glyph glyph-name="equal" unicode="=" horiz-adv-x="1366" d="M141 999h1084V874H141v125zm0-473h1084V401H141v125z"/><glyph glyph-name="greater" unicode="&gt;" horiz-adv-x="1368" d="M141 182v144l914 372-914 373v141l1086-456V639z"/><glyph glyph-name="question" unicode="?" horiz-adv-x="788" d="M748 1116q0-98-39.5-182T565 725Q464 604 437 530t-27-196h-37q-9 93 7 178t46 152 60.5 130T540 931.5t23 149.5q0 130-62 212.5T342 1376q-63 0-114.5-42.5T176 1239q0-20 33-82t33-90q0-32-24-58t-52-26q-47 0-83 46t-36 106q0 126 103 214.5t249 88.5q145 0 247-93.5T748 1116zM281 86q0 47 33.5 80t80.5 33 80-33 33-80-33-81-80-34-80.5 34T281 86z"/><glyph glyph-name="at" unicode="@" horiz-adv-x="1878" d="m1409 973-117-400-61-215q-33-125-33-165 0-31 21.5-53.5T1272 117q58 0 127.5 40T1522 260q83 99 128.5 233.5T1696 768q0 270-181.5 443T1049 1384q-172 0-324-66.5T455 1124Q329 987 259.5 806T190 432q0-232 99.5-414t278-283.5T973-367q273 0 482 143.5T1778 186h57q-30-96-69-165t-101-140q-130-150-311-229.5T969-428q-185 0-347.5 67.5T344-176 162.5 106 96 459q0 202 74 384t200.5 312T672 1361.5t370 76.5q319 0 517-190t198-496q0-158-59-311t-160-257q-63-64-152-101.5T1206 45q-153 0-153 137 0 53 16 144l-4 4q-87-113-158-176Q786 45 676 45q-76 0-129 67t-53 164q0 106 51 233t137 234q87 108 185 172t177 64q80 0 130-47 30-33 43-92h4l30 110zm-350-41q-105 0-225-168-76-107-128.5-239.5T653 307q0-58 34.5-99.5T770 166q94 0 195 110 117 130 157 242 60 165 60 270 0 62-34.5 103t-88.5 41z"/><glyph glyph-name="A" unicode="A" horiz-adv-x="1579" d="m797 1468 557-1282q41-94 80.5-121.5T1550 37V0H973v37h2q69 0 107 25.5t38 72.5q0 37-26 96L987 473H420L295 186q-12-27-12-55 0-94 151-94V0H29v37q65 9 102.5 48.5T219 236l541 1232h37zm-92-346L455 551h499z"/><glyph glyph-name="B" unicode="B" horiz-adv-x="1366" d="M84 1407h625q132 0 244-40.5t185.5-127.5 73.5-207q0-114-69-196T954 725v-4q143-23 231.5-119.5T1274 377q0-74-30-140.5t-88-120-155-85T780 0H84v37q56-1 94 8.5t60 25 33.5 46 14.5 61 3 80.5v877q0 48-2 77.5t-9 59.5-20 45.5-36 29-56.5 18.5-81.5 5v37zm426-82V778q108-22 172-22 123 0 207 81.5t84 200.5q0 129-95 215t-237 86q-38 0-131-14zm0-643V98q91-26 170-26 152 0 245 83t93 218q0 145-112.5 230T604 688q-32 0-94-6z"/><glyph glyph-name="C" unicode="C" horiz-adv-x="1472" d="m1362 1438 35-475h-35q-14 95-61 171.5t-114 125-148.5 74.5-168.5 26q-90 0-167.5-24T558 1259.5t-114.5-132-74.5-196T342 670q0-125 32-229t86-174 126.5-118T738 79t163-22q166 0 297.5 83.5T1397 336l30-21Q1223-31 829-31q-205 0-375.5 94.5t-269 259T86 684q0 155 60.5 294.5t163 240.5T554 1379t300 59q78 0 150-14.5t114.5-31.5 79.5-31.5 51-14.5q24 0 46.5 25.5t31.5 66.5h35z"/><glyph glyph-name="D" unicode="D" horiz-adv-x="1685" d="M66 1370v37h778q154 0 282.5-43t215-113.5T1488 1088t87-189 27-194q0-202-105-363.5T1204 90 780 0H66v37q123 0 164.5 41T272 215v983q0 96-46 134t-160 38zm428-76V102q105-30 221-30 286 0 458.5 169.5T1346 692q0 282-173.5 459.5T723 1329q-122 0-229-35z"/><glyph glyph-name="E" unicode="E" horiz-adv-x="1366" d="m1190 1407 16-311h-35q-23 123-79.5 176T936 1325H498V782h362q99 0 141.5 50.5T1044 987h37V492h-37q0 112-43 160t-149 48H498V193q0-59 20-85t66-26h352q229 0 342 268h43L1206 0H74v37q119-1 160.5 40T276 215v997q0 84-47.5 121.5T74 1370v37h1116z"/><glyph glyph-name="F" unicode="F" horiz-adv-x="1366" d="m1282 1407 14-303h-39q-15 124-88.5 178.5T942 1337H506V782h342q113 0 162.5 43t42.5 156h37V502h-37q5 103-38.5 150.5T870 700H506V211q0-96 45-135.5T709 37V0H88v37q112-3 154.5 40T285 215v991q0 90-47.5 127T88 1370v37h1194z"/><glyph glyph-name="G" unicode="G" horiz-adv-x="1685" d="m1434 1438 36-449h-36q-29 116-113.5 202.5T1130 1319t-219 41-214-43-180.5-123.5-126-207.5T344 702q0-143 48-266.5t129.5-208T712.5 95 944 47q86 0 159.5 24t156.5 79v399q0 86-41 127.5T1063 719v37h604v-37q-117-7-151.5-50T1481 504V117Q1328 34 1212 1.5T926-31Q790-31 670-2.5t-210 79-162 117T180.5 337t-69 159T88 659q0 160 63 304.5T322 1212t258 165 317 61q81 0 160.5-15t128.5-33.5 89.5-33.5 53.5-15q26 0 43.5 26t22.5 71h39z"/><glyph glyph-name="H" unicode="H" horiz-adv-x="1685" d="M496 700V213q0-102 44.5-139T702 37V0H72v37q118 0 160 40.5T274 215v979q0 92-42 135.5T72 1370v37h630v-37q-121 3-163.5-39T496 1192V782h692v414q0 94-44 135.5T979 1370v37h635v-37q-118 1-161.5-39.5T1409 1192V213q0-104 44-140t161-36V0H979v37q120-1 164.5 37.5T1188 215v485H496z"/><glyph glyph-name="I" unicode="I" horiz-adv-x="788" d="M72 1370v37h647v-37q-118 2-165.5-34T506 1192V213q0-102 45-139t168-37V0H72v37q128 0 170.5 36.5T285 215v979q0 97-45 137t-168 39z"/><glyph glyph-name="J" unicode="J" horiz-adv-x="897" d="M225 1370v37h629v-37q-115 1-157-37.5T655 1192V434q0-217-101-341T279-31q-102 0-168 44T45 123q0 44 29.5 74t72.5 30q35 0 61-19t42-46 30.5-54T315 62t45-19q41 0 57.5 48T434 258v938q0 95-45 135t-164 39z"/><glyph glyph-name="K" unicode="K" horiz-adv-x="1685" d="M1454 1407v-37q-65 0-131.5-30.5T1174 1227q-8-8-81-85T930.5 978 725 788l526-520q147-146 228-189.5T1675 37V0H950v37q123 0 123 72 0 23-12 41.5t-53 58.5L514 696V213q0-44 7-73t27.5-54 62-37T715 37V0H82v37q127 0 169 39.5T293 215v979q0 98-45.5 137.5T82 1370v37h643v-37q-119 0-165-35.5T514 1192V723q298 245 423.5 385.5T1063 1307q0 32-29.5 46.5T938 1370v37h516z"/><glyph glyph-name="L" unicode="L" horiz-adv-x="1366" d="M1327 375 1208 0H86v37q86-2 133 18.5t62.5 57.5T297 215v979q0 93-43.5 136T86 1370v37h631v-37q-115 1-157-37.5T518 1192V174q0-46 18-64t64-18h287q79 0 133 11t104.5 42.5 90 90T1292 387z"/><glyph glyph-name="M" unicode="M" horiz-adv-x="2027" d="M1511 1407h428v-37q-118 3-162-37.5t-44-138.5V211q0-43 6.5-71t27-54 63-38T1939 37V0h-634v37q123-4 164.5 40t41.5 138v965h-4L967 0h-37L389 1180h-4V213q0-97 40.5-136T582 37V0H88v37q118-3 161.5 40T293 215v946q0 97-45.5 147T88 1370v37h430l500-1075z"/><glyph glyph-name="N" unicode="N" horiz-adv-x="1685" d="M1659 1407v-37h-55q-59 0-88.5-5.5t-49-28.5-24-58.5-4.5-106.5V-16h-29L403 1116V238q0-112 46-157.5T608 37V0H100v37q118-3 165.5 38.5T313 211v995q-55 90-121 127t-165 37v37h409l910-1038v839q0 91-31 126.5t-119 35.5h-55v37h518z"/><glyph glyph-name="O" unicode="O" horiz-adv-x="1579" d="M76 702q0 150 56 286.5t151.5 235 227 156.5 277.5 58 278-58 228-156.5 152.5-235T1503 702t-56.5-285.5T1294 183 1066 27 788-31q-194 0-358 98T171 333.5 76 702zm256 0q0-298 123.5-476.5T788 47t334 178.5T1247 702q0 299-125 478.5T788 1360t-332.5-179T332 702z"/><glyph glyph-name="P" unicode="P" horiz-adv-x="1236" d="M473 672V213q0-103 46-139.5T684 37V0H51v37q65-1 107 11.5T219.5 88t26 55 6.5 72v979q0 95-43.5 137T51 1370v37h635q134 0 250-47t190-138 74-208q0-167-130-278T745 625q-121 0-272 47zm0 631V743q100-41 174-41 133 0 215 84.5t82 219.5q0 141-90 232t-231 91q-71 0-150-26z"/><glyph glyph-name="Q" unicode="Q" horiz-adv-x="1579" d="M1487-403h-47q-120 0-288 58T828-192.5 588 0q-70 17-141.5 58T308 163.5 189.5 308 107 490.5 76 702q0 150 56 286.5t151.5 235 227 156.5 277.5 58 278-58 228-156.5 152.5-235T1503 702q0-140-48-265.5t-126-214T1158.5 75 971-6q85-156 226-256t290-103v-38zM332 702q0-298 123.5-476.5T788 47t334 178.5T1247 702q0 299-125 478.5T788 1360t-332.5-179T332 702z"/><glyph glyph-name="R" unicode="R" horiz-adv-x="1579" d="m856 680 350-434q84-105 156-153.5T1518 37V0h-367L621 659H485V211q0-40 7.5-69T520 87t61-38.5T684 37V0H70v37q113-1 153.5 41T264 203v1005q0 81-43.5 121.5T70 1370v37h710q183 0 307.5-105.5T1212 1040q0-130-89.5-223.5T856 680zm-371 618V729h58q196 0 304.5 78.5T956 1034q0 127-90.5 214T643 1335q-74 0-158-37z"/><glyph glyph-name="S" unicode="S" horiz-adv-x="1130" d="M956 1438V971h-38q-17 164-125 276.5T545 1360q-101 0-172.5-60.5T301 1153q0-47 16.5-79.5T369 1006q36-36 145.5-102T742 763t176-132q122-122 122-273 0-161-126-275T608-31q-78 0-152 18.5t-127.5 37T248 43q-55 0-84-74h-37v473h37q34-180 136.5-287.5T569 47q117 0 193 63t76 160q0 99-80 179-57 57-170 128.5T369 713 223 817q-104 104-104 256 0 155 114 260t283 105q96 0 197-37 9-3 28.5-11t28.5-11.5 23-8 25-6.5 22-2q51 0 78 76h38z"/><glyph glyph-name="T" unicode="T" horiz-adv-x="1366" d="M571 1317H319q-101 0-162.5-60.5T88 1087H51l10 320h1244l10-320h-39q-29 230-252 230H793V199q0-91 48-126.5T997 37V0H367v37q122-1 163 42t41 136v1102z"/><glyph glyph-name="U" unicode="U" horiz-adv-x="1685" d="M66 1370v37h628v-37q-110-2-152-39t-42-139V428q0-169 100-270T885 57q456 0 456 455v686q0 94-48 135t-163 37v37h517v-37q-127 1-172-37t-45-141V487q0-110-36.5-204t-106-164T1110 9 866-31Q715-31 600.5 6.5t-184 105-103.5 156T279 465v670q0 59-4.5 95t-16.5 66.5-36 45-61.5 22T66 1370z"/><glyph glyph-name="V" unicode="V" horiz-adv-x="1472" d="M25 1407h596v-37q-87 1-120.5-19.5T467 1278q0-50 45-156l315-778 328 866q12 34 12 64 0 90-145 96v37h428v-37q-78-4-135-75.5T1192 1049L782-31h-39L266 1153q-51 126-98.5 168.5T25 1370v37z"/><glyph glyph-name="W" unicode="W" horiz-adv-x="2027" d="M14 1407h539v-37q-125-3-125-90 0-34 29-117l284-792h4l226 626-80 209q-35 95-71.5 126.5T702 1370v37h560v-37q-140-9-140-100 0-60 35-150l289-749 270 764q23 64 29 89t6 54q0 92-147 92v37h407v-37q-67-1-110.5-55.5T1804 1112L1401-29h-39l-342 899L692-29h-33L209 1196q-45 111-77.5 141T14 1370v37z"/><glyph glyph-name="X" unicode="X" horiz-adv-x="1579" d="M27 1407h659v-37q-141 0-141-78 0-39 47-104l237-330 289 346q39 48 39 86 0 83-139 80v37h483v-37q-79 6-139.5-36T1204 1174L883 784l420-583q73-101 124.5-132.5T1552 37V0H928v37q137 0 137 74 0 47-53 114L735 610 401 207q-29-35-39-54t-10-40q0-79 135-76V0H27v37q61 0 125.5 42T317 242l369 440-358 492q-86 117-144.5 155T27 1370v37z"/><glyph glyph-name="Y" unicode="Y" horiz-adv-x="1579" d="M1554 1407v-37q-91 0-158.5-49.5T1231 1118L903 604V213q0-104 45.5-140T1118 37V0H465v37q89-2 136.5 18.5t64 61.5T682 236v354l-434 645q-59 88-99.5 111.5T25 1370v37h624v-37q-95 0-127.5-12t-32.5-43q0-51 66-152l309-465 269 420q94 147 94 193 0 59-148 59v37h475z"/><glyph glyph-name="Z" unicode="Z" horiz-adv-x="1366" d="M190 1407h1117L350 88h594q86 0 137.5 10.5T1172 143t63 86 51 146h35L1257 0H43v37l932 1288H514q-89 0-140-9.5t-87-39.5-53-80-27-137h-37z"/><glyph glyph-name="bracketleft" unicode="[" horiz-adv-x="555" d="M526 1407v-90H283V-344h243v-90H121v1841h405z"/><glyph glyph-name="backslash" unicode="\" horiz-adv-x="575" d="M135 1468 575-31H440L0 1468h135z"/><glyph glyph-name="bracketright" unicode="]" horiz-adv-x="555" d="M29 1407h405V-434H29v90h243v1661H29v90z"/><glyph glyph-name="asciicircum" unicode="^" horiz-adv-x="960" d="m33 688 409 719h82l404-719H772l-289 512-295-512H33z"/><glyph glyph-name="underscore" unicode="_" d="M1036-256H-12v102h1048v-102z"/><glyph glyph-name="grave" unicode="`" horiz-adv-x="681" d="M119 1438h223l104-346h-32z"/><glyph glyph-name="a" unicode="a" d="M991 178v-51Q913 39 863.5 5T760-29q-61 0-99.5 47T629 145Q449-29 293-29q-89 0-150 67.5T82 203q0 92 57 164 27 36 77.5 67T354 506q139 66 275 112v89q0 125-42 174t-143 49q-80 0-118.5-41T287 780q0-5 1-24t1-25q0-37-22.5-60.5T209 647q-40 0-64 24t-24 62q0 107 101.5 173.5T489 973q157 0 232.5-61.5T797 721V190q0-52 13.5-74T856 94q57 0 135 84zm-362 12v373q-217-89-295-153.5T256 256q0-70 44.5-119T410 88q103 0 219 102z"/><glyph glyph-name="b" unicode="b" horiz-adv-x="1130" d="M201 1124q0 108-19 153.5t-80 45.5q-18 0-26-2-15-3-21-6l-12 35 289 118h37V786h4q122 187 303 187 105 0 193.5-62t140-168.5T1061 510q0-147-68-271T808 43 553-29Q390-29 201 94v1030zm168-401V150Q470 43 596 43q120 0 205.5 116T887 440q0 167-85.5 277T586 827q-61 0-109.5-23T369 723z"/><glyph glyph-name="c" unicode="c" horiz-adv-x="897" d="m836 369 32-15Q825 181 716 76T469-29q-183 0-301.5 139T49 463q0 223 131.5 366.5T516 973q129 0 228.5-67.5T844 750q0-35-28-57.5T745 670q-54 0-86 32-14 14-18.5 44.5t-13 65.5-31.5 58q-41 41-115 41-121 0-194.5-96.5T213 559q0-191 90.5-306.5T543 137q107 0 183 60.5T836 369z"/><glyph glyph-name="d" unicode="d" horiz-adv-x="1130" d="M932 285q0-100 18.5-136t69.5-36q23 0 61 14l15-33L764-25v136Q630-29 477-29q-111 0-205.5 63.5T121.5 206 66 440q0 141 66 264t177 196 238 73q115 0 217-72v291q0 131-86 131-19 0-27-2-12-3-33-12l-16 34 295 125h35V285zM764 180v449q0 61-12 110-19 74-85.5 125T524 915q-114 0-194-117.5T250 514q0-180 95.5-304T578 86q110 0 186 94z"/><glyph glyph-name="e" unicode="e" horiz-adv-x="897" d="m809 350 31-16Q806 165 704 68T459-29q-79 0-150 31T181 91.5 90.5 246 57 461q0 230 116.5 371T481 973q160 0 259.5-106.5T840 590H197q-6-114 34.5-218.5t122-171.5T537 133q195 0 272 217zM201 653h428q-4 117-58 182.5T426 901q-90 0-152-68.5T201 653z"/><glyph glyph-name="f" unicode="f" horiz-adv-x="681" d="M72 950h133v105q0 177 110.5 295T580 1468q102 0 181-52t79-118q0-31-25-56t-57-25q-30 0-54 18.5t-41.5 45-36.5 53-49 45-69 18.5q-77 0-106-56.5T373 1174V950h192v-63H373V227q0-119 33-154.5T541 37V0H49v37q92 0 124 36.5T205 227v660H72v63z"/><glyph glyph-name="g" unicode="g" d="M731 913h219q28 0 35.5-5.5T993 881v-37q0-17-6.5-22t-30.5-5H809q53-80 53-174 0-145-99.5-236.5T508 315q-58 0-135 21-82-73-82-123 0-33 36.5-46T457 154h213q140 0 227.5-57T985-57q0-99-73-186T716.5-382 455-434q-95 0-186 27.5T122-334t-56 92q0 40 36 93.5T260 27Q158 61 158 127q0 51 39 105.5T322 356q-82 43-127 116.5T150 637q0 143 106 239.5T520 973q114 0 211-60zM645-2Q365-2 307 16q-92-105-92-176 0-50 50.5-85T392-295.5 561-311q154 0 257.5 58.5T922-106q0 57-60.5 80.5T645-2zM324 723q0-55 11-112t34-114 67-93.5T539 367q66 0 107.5 64T688 596q0 45-12 96.5t-35.5 103T574 881t-97 34q-68 0-110.5-53.5T324 723z"/><glyph glyph-name="h" unicode="h" horiz-adv-x="1130" d="M201 1174q0 80-21.5 114.5T109 1323q-19 0-27-2-18-4-31-10l-12 35 293 122h37V772h4q69 95 154.5 148T696 973q111 0 178.5-85T942 649V227q0-117 32-153.5T1098 37V0H623v37q88 0 119.5 36T774 227v451q0 77-44.5 123.5T612 848q-63 0-119-29.5T369 721V227q0-63 7-99t27.5-57 49-27.5T532 37V0H51v37q88 0 119 37.5T201 227v947z"/><glyph glyph-name="i" unicode="i" horiz-adv-x="555" d="M201 707q0 61-25 96t-74 35q-16 0-22-2-3 0-21-9l-12 37 285 109h37V227q0-108 29-147.5T508 37V0H47v37h2q86 0 119 41t33 149v480zm-27 663q0 43 31 74t74 31q44 0 75-31t31-74q0-44-31-75t-75-31q-43 0-74 31t-31 75z"/><glyph glyph-name="j" unicode="j" horiz-adv-x="555" d="M227 692q0 152-94 152-19 0-29-2-15-4-32-11l-13 37 301 105h35V47q0-234-92.5-357.5T33-434q-79 0-131 29t-52 73q0 35 26 60.5t61 25.5q31 0 60.5-16.5T46-299t42.5-36.5T133-352q94 0 94 184v860zm-30 678q0 43 30.5 74t73.5 31q44 0 75.5-31t31.5-74q0-44-31.5-75t-75.5-31q-43 0-73.5 31t-30.5 75z"/><glyph glyph-name="k" unicode="k" horiz-adv-x="1130" d="M209 1198q0 68-22.5 99.5T115 1329H92q-16-4-26-8l-13 35 289 112h35V532l293 279q37 34 37 59 0 43-76 43v37h420v-37q-97 3-165-29T739 778L537 586l256-332Q896 121 956.5 79T1094 37V0H637v37q65 3 65 39 0 31-32 71L381 522h-4V227q0-81 16-122t48.5-54.5T537 37V0H53v37q62 0 93 13t47 54 16 123v971z"/><glyph glyph-name="l" unicode="l" horiz-adv-x="555" d="M203 1176q0 145-94 145-17 0-25-2-5 0-25-8l-12 35 287 122h37V225q0-109 29-148.5T508 37V0H47v37q91 0 123.5 37T203 225v951z"/><glyph glyph-name="m" unicode="m" horiz-adv-x="1685" d="M190 698q0 67-25.5 104.5T92 840q-23 0-35-2t-26-9l-15 35 308 109h34V778q176 195 320 195 190 0 237-207 155 207 340 207 116 0 183-84.5t67-239.5V227q0-81 15-121.5t46.5-54.5 94.5-14V0h-483v37q49 0 76 5.5t47.5 25.5 28 57.5T1337 227v443q0 84-44.5 132T1174 850q-64 0-132.5-34.5T926 723q6-42 6-127V227q0-117 31.5-153.5T1087 37V0H602v37q67 0 99.5 13.5T749 104t15 123v426q0 85-44 141t-120 56q-57 0-121-33t-121-92V227q0-113 33-153t119-37V0H31v37q96 0 127.5 35.5T190 227v471z"/><glyph glyph-name="n" unicode="n" horiz-adv-x="1130" d="M199 715q0 52-20.5 87.5T117 838q-21 0-31-2-4-2-9.5-4t-13-5.5T51 821l-14 39 295 113h35V772q106 115 174.5 158T690 973q120 0 185-89t65-222V227q0-109 30-148t115-42V0H606v37q53-1 86 9t50.5 35 23.5 58 6 88v447q0 73-45.5 125.5T610 852q-62 0-119.5-32.5T367 715V227q0-110 32-149t123-41V0H51v37q52 4 82 15.5T177.5 90t18 54.5T199 227v488z"/><glyph glyph-name="o" unicode="o" horiz-adv-x="1130" d="M1040 506q0-142-67-265.5T792.5 44 549-29q-123 0-228.5 64.5T153.5 210 92 449q0 139 67.5 260t181 192.5T584 973q90 0 174.5-38t146-101 98.5-149 37-179zm-184-86q0 206-91.5 343.5T535 901q-119 0-189-100.5T276 530q0-88 21-173.5t60-156 101.5-114T596 43q117 0 188.5 103.5T856 420z"/><glyph glyph-name="p" unicode="p" horiz-adv-x="1130" d="M205 711q0 58-23 91.5T115 836q-19 0-27-2-16-3-37-11l-16 37 303 113h35V756h4q58 99 141.5 158T696 973q155 0 264-137.5T1069 502q0-109-37.5-207.5T931 125.5 780.5 13 596-29q-132 0-223 88v-262q0-118 34-156t138-38v-37H35v37q106-1 138 40t32 154v914zm168-19V266q0-106 66.5-168.5T604 35q132 0 211.5 107.5T895 430q0 175-79 286T612 827q-128 0-239-135z"/><glyph glyph-name="q" unicode="q" horiz-adv-x="1130" d="M934-205q0-119 31-155.5t125-36.5v-37H594v37q103-3 137.5 33T766-205v359h-4Q693 67 609.5 19T444-29q-158 0-263 134.5T76 440q0 224 139.5 378.5T557 973q115 0 225-66 67 22 117 66h35V-205zM766 213v475q0 101-60 161t-165 60q-131 0-211-111t-80-294q0-176 84-282.5T555 115q68 0 115 22.5t96 75.5z"/><glyph glyph-name="r" unicode="r" horiz-adv-x="788" d="M211 664q0 99-18 133t-72 34q-19 0-27-2-16-4-26-10l-13 35 287 119h37V766h4q50 95 118 151t138 56q49 0 87-37.5t38-83.5q0-34-28-61t-62-27q-26 0-47.5 11.5t-33 25.5-28.5 25.5-35 11.5q-43 0-78.5-36T379 696V227q0-84 16-123.5t51.5-53T559 37V0H55v37q92-3 124 39.5T211 219v445z"/><glyph glyph-name="s" unicode="s" horiz-adv-x="788" d="M100 702q0 117 81 194t204 77q43 0 109-17 52-18 81-18 23 0 39 12h37V662h-37q-17 114-80.5 183.5T381 915q-68 0-116-34.5T217 795q0-66 41-107 44-44 115.5-81t145-76.5T641 442q80-80 80-188 0-59-22-108.5t-55.5-81T568 11t-80.5-31-71.5-9q-57 0-138.5 21.5T186 14q-26 0-36-14h-44v319h35q15-126 91.5-205T418 35q63 0 110 41t47 98q0 43-12.5 71T518 305q-34 35-172.5 115T164 543q-35 35-49.5 70T100 702z"/><glyph glyph-name="t" unicode="t" horiz-adv-x="681" d="M205 887H59v41q104 43 176.5 126T340 1251h33V950h215v-63H373V231q0-63 32.5-102T489 90q37 0 65 17.5t62 60.5h41Q601 66 539 18.5T399-29q-93 0-143.5 68T205 223v664z"/><glyph glyph-name="u" unicode="u" horiz-adv-x="1130" d="M209 772q0 83-37 114T37 913v37h340V276q0-73 41-122 45-52 114-52 125 0 244 125v564q0 64-37.5 95T616 913v37h328V225q0-46 23-81t67-35q24 0 68 16V86L815-25h-39v201h-4Q605-29 453-29q-110 0-177 79.5T209 244v528z"/><glyph glyph-name="v" unicode="v" d="M27 950h426v-37q-103-9-103-82 0-48 29-114l199-486 219 541q20 53 20 76 0 34-22.5 48T713 913v37h284v-37q-45-5-71-32.5T874 782L551-27h-41L236 647q-48 117-80.5 172T97 891.5 27 913v37z"/><glyph glyph-name="w" unicode="w" horiz-adv-x="1472" d="M25 950h372v-37q-86-3-86-67 0-26 21-88l192-529 199 443-47 123q-28 74-56.5 96T524 913v37h437v-37q-117 0-117-75 0-30 12-64l201-530 203 530q16 44 16 66 0 39-25 55t-84 18v37h281v-37q-38-1-64.5-38.5T1315 729L1028-25h-41L758 582 487-25h-38L160 758q-34 91-61 122.5T25 913v37z"/><glyph glyph-name="x" unicode="x" d="M47 950h426v-37q-76-3-76-49 0-34 39-92l88-137 97 143q36 52 36 82 0 50-75 53v37h315v-37q-63-6-114.5-48T662 721l-99-148 158-254q98-156 156-216.5T989 37V0H571v37q86 0 86 47 0 22-9.5 42T598 209L463 426 289 166q-35-53-35-78 0-51 92-51V0H35v37q83-3 207 180l182 270-160 252q-65 102-108.5 137.5T47 913v37z"/><glyph glyph-name="y" unicode="y" d="M33 950h424v-37q-61 0-86-16.5T346 838q0-35 21-82l231-518 205 553q14 44 14 61 0 31-21.5 43.5T721 913v37h272v-37q-36-4-62-32t-48-86L559-76Q431-434 211-434q-61 0-99 31t-38 81q0 42 29.5 68.5T180-227q32 0 77-19.5t65-19.5q43 0 83 50.5T487-61l33 81-330 736q-36 81-72.5 116.5T33 913v37z"/><glyph glyph-name="z" unicode="z" horiz-adv-x="897" d="M96 950h762v-35L250 70h344q122 0 168.5 48T809 287h39L836 0H29v37l606 844H305q-90 0-127.5-37T131 700H96v250z"/><glyph glyph-name="braceleft" unicode="{" horiz-adv-x="980" d="M248 557q98 12 162.5 71.5T475 766q0 54-22 147-23 98-23 170 0 145 107 254t268 131v-34q-112-25-168.5-88.5T580 1204q0-34 22-155 23-126 23-166 0-112-79-204T330 541v-4q137-46 216-138t79-204q0-61-23-166-22-101-22-156 0-78 56.5-141T805-356v-35q-161 22-268 131T430-6q0 53 23 170 22 112 22 147 0 78-64.5 137.5T248 520v37z"/><glyph glyph-name="bar" unicode="|" horiz-adv-x="405" d="M135 1468h133V-434H135v1902z"/><glyph glyph-name="braceright" unicode="}" horiz-adv-x="980" d="M733 557v-37q-98-12-162.5-71.5T506 311q0-35 22-147Q551 47 551-6q0-145-107-254T176-391v35q112 25 168.5 88T401-127q0 55-22 156-23 105-23 166 0 112 79 204t216 138v4q-137 46-216 138t-79 204q0 39 23 166 22 121 22 155 0 78-56.5 141.5T176 1434v34q161-22 268-131t107-254q0-72-23-170-22-93-22-147 0-78 64.5-137.5T733 557z"/><glyph glyph-name="asciitilde" unicode="~" horiz-adv-x="1110" d="M1034 868h68q-7-167-79-251.5T819 532q-42 0-98.5 15t-95 30.5T518 623q-155 67-211 81-38 9-67 9-71 0-110.5-44T76 535H8q1 95 25.5 163.5t65 104.5 86 51.5T283 870q66 0 138.5-24T592 778q153-67 208-82 41-10 72-10 70 0 112 49t50 133z"/><glyph glyph-name="uni00A0" horiz-adv-x="512"/><glyph glyph-name="exclamdown" unicode="¡" horiz-adv-x="555" d="m164-217 90 790h37l84-798q1-9 5.5-61t4.5-62q0-62-34-104t-81-42q-52 0-84 40.5T154-348q0 56 10 131zM391 858q0-46-33-79.5T279 745q-47 0-81 34t-34 81q0 46 34 79.5t81 33.5q46 0 79-34t33-81z"/><glyph glyph-name="cent" unicode="¢" horiz-adv-x="897" d="M782 1374 633 956q91-25 151-83.5T844 750q0-35-28-57.5T745 670q-21 0-47.5 10T659 702q-15 15-24.5 80T600 868L358 199q88-62 185-62 107 0 183 60.5T836 369l32-15Q825 181 716.5 76T471-29q-95 0-180 43L145-387H82L238 47Q49 189 49 463q0 228 131 368.5T526 973q27 0 45-4l146 405h65zM309 244l238 657q-23 10-58 10-127 0-201.5-96T213 555q0-95 20-159.5T309 244z"/><glyph glyph-name="sterling" unicode="£" d="M72 780h202q-14 147-14 226 0 52 12 107t41 113 71.5 102.5 111 73T647 1430q109 0 181.5-59t72.5-148q0-35-22.5-60.5T825 1137q-36 0-54 27.5t-23 88.5q-4 63-33 92t-88 29q-193 0-193-272 0-53 5.5-169t6.5-153h269v-94H446q9-125-7.5-248.5T387 236q121-47 200-65.5T745 152q85 0 137 43t64 124h37Q955 156 877.5 65.5T688-25q-68 0-147.5 38.5T344 141Q262-25 156-25q-51 0-84 35t-33 90q0 75 49 120.5T217 266q39 0 74-10 0 12 2 62t2 63q0 28-10 145t-11 160H72v94zm202-602q-50 27-88 27-37 0-64.5-27T94 113q0-31 20-53.5T160 37q37 0 67 37t47 104z"/><glyph glyph-name="currency" unicode="¤" d="M152 678q0-149 105.5-255T512 317t254.5 106T872 678 766.5 932.5 512 1038 257.5 932.5 152 678zm79-338L84 193l-57 57 147 147Q70 514 70 678q0 161 104 280L27 1106l57 57 147-147q117 104 281 104 161 0 281-104l147 147 57-57-147-148q104-120 104-280 0-161-104-281l147-147-57-57-147 147Q673 236 512 236q-164 0-281 104z"/><glyph glyph-name="yen" unicode="¥" d="M596 375V205q0-97 34-129.5T776 43V0H242v43q112-1 146 30.5T422 195v180H76v76h346v137l-19 41H76v76h295l-219 514q-37 86-72 116.5t-98 30.5v41h458v-41q-59 1-92-18t-33-43q0-13 19-64l219-539 223 525q23 54 23 78 0 61-117 61v41h358v-41q-65 2-99.5-28.5T862 1208L639 705h309v-76H602l-6-19V451h352v-76H596z"/><glyph glyph-name="brokenbar" unicode="¦" horiz-adv-x="405" d="M135 303h133v-737H135v737zm0 1165h133V731H135v737z"/><glyph glyph-name="section" unicode="§" horiz-adv-x="788" d="M266-158q0-11-7-50t-7-54q0-40 34-67t83-27q72 0 130 52t58 116q0 54-21.5 98T451 16q-40 40-136 112.5T172 248Q37 383 37 524q0 109 58 200t165 153q-125 128-125 262 0 123 84 205.5t207 82.5q106 0 180-65.5t74-157.5q0-40-22-66t-56-26q-32 0-54 24t-22 60q0 17 7.5 56t7.5 46q0 42-32.5 67.5T428 1391q-75 0-131.5-52T240 1219q0-57 22.5-101.5T334 1024q38-38 130-106.5T600 805q96-96 125-161t29-136q0-107-58-198.5T532 158Q657 36 657-104q0-124-82.5-207.5T369-395q-104 0-179 67.5T115-166q0 36 23.5 62T195-78q31 0 51-23t20-57zm29 1004q-87-50-123.5-100.5T135 623q0-64 26-115.5T248 395q49-49 141.5-118T504 188q155 81 155 226 0 57-26 109t-98 124q-37 37-121 102.5T295 846z"/><glyph glyph-name="dieresis" unicode="¨" horiz-adv-x="681" d="M166 1386q44 0 76-32t32-76-32-76.5-76-32.5-76.5 32.5T57 1278t32.5 76 76.5 32zm350 0q44 0 76.5-32t32.5-76-32.5-76.5T516 1169t-76 32.5-32 76.5 32 76 76 32z"/><glyph glyph-name="copyright" unicode="©" horiz-adv-x="1556" d="m1139 1176 20-289h-41q-74 243-309 243-152 0-241-108t-89-291q0-113 27-197t74.5-133 107-72.5T819 305q200 0 320 166l39-18q-145-209-396-209-202 0-339.5 131T305 700q0 203 147.5 339.5T819 1176q64 0 143-23t85-23q19 0 29.5 10t21.5 36h41zm-361 262q148 0 283-57.5t233-155.5 155.5-233 57.5-283-57.5-283T1294 193 1061 37.5 778-20 495 37.5 262 193 106.5 426 49 709t57.5 283T262 1225t233 155.5 283 57.5zm-2-64q-135 0-258-52.5t-212.5-142-142-212.5T111 709q0-181 89-334t242.5-242.5T776 43t333.5 89.5 243 243T1442 709t-89.5 333.5T1110 1285t-334 89z"/><glyph glyph-name="ordfeminine" unicode="ª" horiz-adv-x="641" d="M633 981v-59q-81-97-160-97-43 0-69 25.5T381 911q-96-86-205-86-57 0-98 43T37 971q0 78 74.5 127.5T381 1217q0 105-16.5 139.5T287 1391q-43 0-70-19t-27-53q0-3 1.5-16t1.5-15q0-63-64-63-30 0-49 16t-19 41q0 63 68.5 105.5T301 1430q109 0 159-38t50-120V961q0-52 29-52 35 0 94 72zm-252-23v211q-130-52-171.5-85t-41.5-83q0-41 25.5-67.5T258 907q51 0 123 51z"/><glyph glyph-name="guillemotleft" unicode="«" d="M453 991h57L264 518 510 37h-57L63 518zm450 0h58L715 518 961 37h-58L514 518z"/><glyph glyph-name="logicalnot" unicode="¬" horiz-adv-x="1366" d="M141 999h1084V401h-125v473H141v125z"/><glyph glyph-name="uni00AD" unicode="­" horiz-adv-x="681" d="M88 557h508V395H88v162z"/><glyph glyph-name="registered" unicode="®" horiz-adv-x="1556" d="M397 1155h400q137 0 221-63.5t84-167.5q0-86-56.5-142.5T872 696l215-307q34-50 60.5-68.5T1212 299v-35h-188L721 682h-78V379q0-45 28-62.5t93-17.5v-35H387v35q61 0 84 21.5t23 74.5v631q0 51-20.5 71.5T397 1118v37zm246-430h31q124 0 193 49.5T936 913q0 85-59 141t-148 56q-37 0-86-16V725zm135 713q148 0 283-57.5t233-155.5 155.5-233 57.5-283-57.5-283T1294 193 1061 37.5 778-20 495 37.5 262 193 106.5 426 49 709t57.5 283T262 1225t233 155.5 283 57.5zm-2-64q-135 0-258-52.5t-212.5-142-142-212.5T111 709q0-181 89-334t242.5-242.5T776 43t333.5 89.5 243 243T1442 709t-89.5 333.5T1110 1285t-334 89z"/><glyph glyph-name="macron" unicode="¯" horiz-adv-x="681" d="M23 1350h636v-150H23v150z"/><glyph glyph-name="degree" unicode="°" horiz-adv-x="811" d="M406 1430q127 0 217-90t90-218-89.5-217.5T406 815t-218 90-90 217q0 128 90 218t218 90zm0-113q-80 0-137.5-57.5T211 1122q0-79 57.5-136.5T406 928t137 57 57 137-57.5 137.5T406 1317z"/><glyph glyph-name="plusminus" unicode="±" horiz-adv-x="1366" d="M141 934h480v479h124V934h480V809H745V330H621v479H141v125zm0-809h1084V0H141v125z"/><glyph glyph-name="twosuperior" unicode="²" horiz-adv-x="598" d="M88 1221H41q28 109 86 159t158 50q101 0 173-56.5t72-136.5q0-91-77-190.5T168 780v-4h246q56 0 83 13t42 45h47l-66-148H18v27q225 179 306.5 280.5T406 1186q0 63-46.5 105T244 1333q-106 0-156-112z"/><glyph glyph-name="threesuperior" unicode="³" horiz-adv-x="598" d="m104 1251-38 17q68 162 229 162 85 0 142-45t57-111q0-78-103-156 69-25 106.5-75.5T535 924q0-107-97-178.5T193 674q-64 0-102 16.5T53 735q0 17 18 31t40 14q27 0 88.5-25.5T291 729q57 0 95 39.5t38 99.5q0 79-63 127.5T186 1040v31q92 13 140.5 54t48.5 104q0 49-36 80.5t-93 31.5q-49 0-81.5-21t-60.5-69z"/><glyph glyph-name="acute" unicode="´" horiz-adv-x="681" d="m563 1438-295-346h-32l104 346h223z"/><glyph glyph-name="mu" unicode="µ" horiz-adv-x="1067" d="M127 950h168V328q0-147 59-197 41-33 88-33 127 0 252 140v712h168V209q0-125 64-125 66 0 84 127h43q-8-93-37-145-25-44-69.5-69.5T848-29q-73 0-109 46.5T694 168Q604 63 525.5 17T360-29q-54 0-88.5 19.5T205 59h-4V10q0-50 5.5-91T233-213q15-64 15-109 0-51-25-81.5T154-434q-40 0-65.5 30.5T63-324q0 48 15 107 5 22 15.5 65T109-88q7 17 10 59 8 93 8 127v852z"/><glyph glyph-name="paragraph" unicode="¶" horiz-adv-x="917" d="M963 1407v-39h-43q-26 0-44-4t-31.5-9.5-21.5-21-12.5-26.5-6.5-40-2.5-48-.5-62V-434h-74v1784H532V-434h-75V623q-139 6-230.5 30.5T76 731q-61 55-89 133t-28 154q0 171 120 280t347 109h537z"/><glyph glyph-name="periodcentered" unicode="·" horiz-adv-x="555" d="M279 817q47 0 79.5-32.5T391 705q0-48-32.5-81.5T279 590t-81 34-34 81 33.5 79.5T279 817z"/><glyph glyph-name="cedilla" unicode="¸" horiz-adv-x="681" d="m393 0-24-37q63-5 101-44.5T508-182q0-79-65-128.5T272-360q-18 0-50.5 2t-47.5 2l10 34q71-4 118.5 24t47.5 73q0 39-33.5 63T233-145L332 0h61z"/><glyph glyph-name="onesuperior" unicode="¹" horiz-adv-x="598" d="m123 1339 205 91h39V797q0-53 18.5-66.5T469 717v-31H135v31q64 0 84.5 13t20.5 67v436q0 60-6.5 79t-26.5 19q-22 0-66-20z"/><glyph glyph-name="ordmasculine" unicode="º" horiz-adv-x="704" d="M664 1147q0-129-96-225.5T342 825q-123 0-211 84.5T43 1114q0 128 95 222t224 94q123 0 212.5-84t89.5-199zm-140-49q0 117-54 196.5T336 1374q-69 0-110.5-57.5T184 1161q0-118 54.5-199T373 881q68 0 109.5 59.5T524 1098z"/><glyph glyph-name="guillemotright" unicode="»" d="m569 991 392-473L569 37h-57l248 481-248 473h57zm-446 0 389-473L123 37H63l248 481L63 991h60z"/><glyph glyph-name="onequarter" unicode="¼" horiz-adv-x="1685" d="M1395 743h84V274h110v-92h-110V0h-127v182h-336v92zm-47-155-254-314h258v314h-4zm-60 848h88L397-57h-88zm-1120-97 205 91h39V797q0-53 18.5-66.5T514 717v-31H180v31q64 0 84.5 13t20.5 67v436q0 60-6.5 79t-26.5 19q-22 0-66-20z"/><glyph glyph-name="onehalf" unicode="½" horiz-adv-x="1685" d="M1133 535h-48q28 109 86 158.5t158 49.5q101 0 173.5-56.5T1575 551q0-90-77.5-190T1212 94v-4h246q56 0 83 13t42 44h47L1565 0h-502v27q225 179 306 280.5t81 192.5q0 63-46.5 105T1288 647q-105 0-155-112zm155 901h88L397-57h-88zm-1120-97 205 91h39V797q0-53 18.5-66.5T514 717v-31H180v31q64 0 84.5 13t20.5 67v436q0 60-6.5 79t-26.5 19q-22 0-66-20z"/><glyph glyph-name="threequarters" unicode="¾" horiz-adv-x="1685" d="M1395 743h84V274h110v-92h-110V0h-127v182h-336v92zm-47-155-254-314h258v314h-4zm-60 848h88L397-57h-88zM150 1251l-39 17q68 162 229 162 85 0 142-45t57-111q0-78-103-156 69-25 106.5-75.5T580 924q0-107-97-178.5T238 674q-64 0-102 16.5T98 735q0 17 18 31t40 14q27 0 88.5-25.5T336 729q57 0 95 39.5t38 99.5q0 79-63 127.5T231 1040v31q92 13 140.5 54t48.5 104q0 49-36 80.5t-93 31.5q-49 0-81-21t-60-69z"/><glyph glyph-name="questiondown" unicode="¿" horiz-adv-x="788" d="M41-172q0 99 39 183t143 208q101 122 128.5 196T379 610h37q9-93-7-178t-46-152-61-130-54-137.5T225-137q0-130 62-212.5T446-432q63 0 114.5 42.5T612-295q0 20-32.5 82T547-123q0 32 24 58t52 26q47 0 82.5-45.5T741-190q0-126-103-215t-249-89q-145 0-246.5 93.5T41-172zM508 858q0-47-34-80t-81-33-79.5 33-32.5 80q0 48 32.5 81.5T393 973t81-34 34-81z"/><glyph glyph-name="Agrave" unicode="À" horiz-adv-x="1579" d="M567 1876h224l104-346h-33zm230-408 557-1282q41-94 80.5-121.5T1550 37V0H973v37h2q69 0 107 25.5t38 72.5q0 37-26 96L987 473H420L295 186q-12-27-12-55 0-94 151-94V0H29v37q65 9 102.5 48.5T219 236l541 1232h37zm-92-346L455 551h499z"/><glyph glyph-name="Aacute" unicode="Á" horiz-adv-x="1579" d="m1012 1876-295-346h-33l104 346h224zm-215-408 557-1282q41-94 80.5-121.5T1550 37V0H973v37h2q69 0 107 25.5t38 72.5q0 37-26 96L987 473H420L295 186q-12-27-12-55 0-94 151-94V0H29v37q65 9 102.5 48.5T219 236l541 1232h37zm-92-346L455 551h499z"/><glyph glyph-name="Acircumflex" unicode="Â" horiz-adv-x="1579" d="M696 1876h185l190-330h-31l-272 213-229-213h-31zm101-408 557-1282q41-94 80.5-121.5T1550 37V0H973v37h2q69 0 107 25.5t38 72.5q0 37-26 96L987 473H420L295 186q-12-27-12-55 0-94 151-94V0H29v37q65 9 102.5 48.5T219 236l541 1232h37zm-92-346L455 551h499z"/><glyph glyph-name="Atilde" unicode="Ã" horiz-adv-x="1579" d="M502 1585h-31q0 121 51 190.5t135 69.5q48 0 98-21.5t84.5-48 74.5-48 69-21.5q79 0 96 139h31q4-119-52-191.5T920 1581q-80 0-183 72-5 3-21.5 14.5t-22.5 15-20 12-21 11.5-18.5 8-21 6.5-18.5 1.5q-40 0-60.5-32.5T502 1585zm295-117 557-1282q41-94 80.5-121.5T1550 37V0H973v37h2q69 0 107 25.5t38 72.5q0 37-26 96L987 473H420L295 186q-12-27-12-55 0-94 151-94V0H29v37q65 9 102.5 48.5T219 236l541 1232h37zm-92-346L455 551h499z"/><glyph glyph-name="Adieresis" unicode="Ä" horiz-adv-x="1579" d="m797 1468 557-1282q41-94 80.5-121.5T1550 37V0H973v37h2q69 0 107 25.5t38 72.5q0 37-26 96L987 473H420L295 186q-12-27-12-55 0-94 151-94V0H29v37q65 9 102.5 48.5T219 236l541 1232h37zm-92-346L455 551h499zm-91 703q44 0 76.5-32.5T723 1716t-32.5-76-76.5-32-76 32-32 76 32 76.5 76 32.5zm351 0q44 0 76-32.5t32-76.5-32-76-76-32-76.5 32-32.5 76 32.5 76.5T965 1825z"/><glyph glyph-name="Aring" unicode="Å" horiz-adv-x="1579" d="M791 1876q78 0 134-56t56-134-56-134.5-134-56.5-134.5 56.5T600 1686t56.5 134 134.5 56zm0-72q-50 0-84.5-34.5T672 1686q0-50 35-84.5t84-34.5 83.5 34.5T909 1686t-34.5 84-83.5 34zm6-336 557-1282q41-94 80.5-121.5T1550 37V0H973v37h2q69 0 107 25.5t38 72.5q0 37-26 96L987 473H420L295 186q-12-27-12-55 0-94 151-94V0H29v37q65 9 102.5 48.5T219 236l541 1232h37zm-92-346L455 551h499z"/><glyph glyph-name="AE" unicode="Æ" horiz-adv-x="2048" d="M649 1407h1213l18-315h-39q-25 133-94.5 183t-192.5 50h-389V782h383q184 0 181 201h36V489h-36q-2 109-46 160t-139 51h-379V182q0-61 22.5-80.5T1276 82h344q249 0 350 285l35-11-94-356H754v37q60 1 98.5 12t58 36 26.5 54.5 7 75.5v334H551L401 270q-43-82-43-133 0-100 158-100V0H33v37q80 10 140 59t108 140l495 919q45 85 45 119 0 99-172 96v37zm291-131L594 631h350v645h-4z"/><glyph glyph-name="Ccedilla" unicode="Ç" horiz-adv-x="1472" d="m1362 1438 35-475h-35q-14 95-61 171.5t-114 125-148.5 74.5-168.5 26q-90 0-167.5-24T558 1259.5t-114.5-132-74.5-196T342 670q0-125 32-229t86-174 126.5-118T738 79t163-22q166 0 297.5 83.5T1397 336l30-21Q1223-31 829-31q-39 0-59 2l-6-8q63-5 101-44.5T903-182q0-79-64.5-128.5T668-360q-18 0-51 2t-48 2l11 34q71-4 118 24t47 73q0 39-33 63t-83 17l84 122Q580-3 464 59.5t-199 155T134 429 86 684q0 155 60.5 294.5t163 240.5T554 1379t300 59q78 0 150-14.5t114.5-31.5 79.5-31.5 51-14.5q24 0 46.5 25.5t31.5 66.5h35z"/><glyph glyph-name="Egrave" unicode="È" horiz-adv-x="1366" d="M512 1876h223l105-346h-33zm678-469 16-311h-35q-23 123-79.5 176T936 1325H498V782h362q99 0 141.5 50.5T1044 987h37V492h-37q0 112-43 160t-149 48H498V193q0-59 20-85t66-26h352q229 0 342 268h43L1206 0H74v37q119-1 160.5 40T276 215v997q0 84-47.5 121.5T74 1370v37h1116z"/><glyph glyph-name="Eacute" unicode="É" horiz-adv-x="1366" d="m905 1876-295-346h-32l104 346h223zm285-469 16-311h-35q-23 123-79.5 176T936 1325H498V782h362q99 0 141.5 50.5T1044 987h37V492h-37q0 112-43 160t-149 48H498V193q0-59 20-85t66-26h352q229 0 342 268h43L1206 0H74v37q119-1 160.5 40T276 215v997q0 84-47.5 121.5T74 1370v37h1116z"/><glyph glyph-name="Ecircumflex" unicode="Ê" horiz-adv-x="1366" d="M590 1876h184l191-330h-31l-272 213-230-213h-31zm600-469 16-311h-35q-23 123-79.5 176T936 1325H498V782h362q99 0 141.5 50.5T1044 987h37V492h-37q0 112-43 160t-149 48H498V193q0-59 20-85t66-26h352q229 0 342 268h43L1206 0H74v37q119-1 160.5 40T276 215v997q0 84-47.5 121.5T74 1370v37h1116z"/><glyph glyph-name="Edieresis" unicode="Ë" horiz-adv-x="1366" d="M508 1825q44 0 76-32.5t32-76.5-32-76-76-32-76.5 32-32.5 76 32.5 76.5T508 1825zm350 0q44 0 76.5-32.5T967 1716t-32.5-76-76.5-32-76 32-32 76 32 76.5 76 32.5zm332-418 16-311h-35q-23 123-79.5 176T936 1325H498V782h362q99 0 141.5 50.5T1044 987h37V492h-37q0 112-43 160t-149 48H498V193q0-59 20-85t66-26h352q229 0 342 268h43L1206 0H74v37q119-1 160.5 40T276 215v997q0 84-47.5 121.5T74 1370v37h1116z"/><glyph glyph-name="Igrave" unicode="Ì" horiz-adv-x="788" d="M193 1876h223l104-346h-33zM72 1370v37h647v-37q-118 2-165.5-34T506 1192V213q0-102 45-139t168-37V0H72v37q128 0 170.5 36.5T285 215v979q0 97-45 137t-168 39z"/><glyph glyph-name="Iacute" unicode="Í" horiz-adv-x="788" d="m616 1876-294-346h-33l104 346h223zM72 1370v37h647v-37q-118 2-165.5-34T506 1192V213q0-102 45-139t168-37V0H72v37q128 0 170.5 36.5T285 215v979q0 97-45 137t-168 39z"/><glyph glyph-name="Icircumflex" unicode="Î" horiz-adv-x="788" d="M301 1876h184l191-330h-31l-272 213-230-213h-30zM72 1370v37h647v-37q-118 2-165.5-34T506 1192V213q0-102 45-139t168-37V0H72v37q128 0 170.5 36.5T285 215v979q0 97-45 137t-168 39z"/><glyph glyph-name="Idieresis" unicode="Ï" horiz-adv-x="788" d="M219 1825q44 0 76.5-32.5T328 1716t-32.5-76-76.5-32-76 32-32 76 32 76.5 76 32.5zm350 0q44 0 76.5-32.5T678 1716t-32.5-76-76.5-32-76 32-32 76 32 76.5 76 32.5zM72 1370v37h647v-37q-118 2-165.5-34T506 1192V213q0-102 45-139t168-37V0H72v37q128 0 170.5 36.5T285 215v979q0 97-45 137t-168 39z"/><glyph glyph-name="Eth" unicode="Ð" horiz-adv-x="1685" d="M66 1370v37h778q154 0 282.5-43t215-113.5T1488 1088t87-189 27-194q0-202-105-363.5T1204 90 780 0H66v37q123 0 164.5 41T272 215v447H106v77h166v459q0 96-46 134t-160 38zm428-76V739h448v-77H494V102q105-30 221-30 286 0 458.5 169.5T1346 692q0 282-173.5 459.5T723 1329q-122 0-229-35z"/><glyph glyph-name="Ntilde" unicode="Ñ" horiz-adv-x="1685" d="M596 1585h-31q0 121 51 190.5t136 69.5q48 0 97.5-21.5t84-48 74.5-48 69-21.5q80 0 97 139h30q4-119-52-191.5t-138-72.5q-80 0-183 72-5 3-21.5 14.5t-22.5 15-20 12-21 11.5-18.5 8-21 6.5-18.5 1.5q-40 0-60.5-32.5T596 1585zm1063-178v-37h-55q-59 0-88.5-5.5t-49-28.5-24-58.5-4.5-106.5V-16h-29L403 1116V238q0-112 46-157.5T608 37V0H100v37q118-3 165.5 38.5T313 211v995q-55 90-121 127t-165 37v37h409l910-1038v839q0 91-31 126.5t-119 35.5h-55v37h518z"/><glyph glyph-name="Ograve" unicode="Ò" horiz-adv-x="1579" d="M618 1876h224l104-346h-33zM76 702q0 150 56 286.5t151.5 235 227 156.5 277.5 58 278-58 228-156.5 152.5-235T1503 702t-56.5-285.5T1294 183 1066 27 788-31q-194 0-358 98T171 333.5 76 702zm256 0q0-298 123.5-476.5T788 47t334 178.5T1247 702q0 299-125 478.5T788 1360t-332.5-179T332 702z"/><glyph glyph-name="Oacute" unicode="Ó" horiz-adv-x="1579" d="m1012 1876-295-346h-33l104 346h224zM76 702q0 150 56 286.5t151.5 235 227 156.5 277.5 58 278-58 228-156.5 152.5-235T1503 702t-56.5-285.5T1294 183 1066 27 788-31q-194 0-358 98T171 333.5 76 702zm256 0q0-298 123.5-476.5T788 47t334 178.5T1247 702q0 299-125 478.5T788 1360t-332.5-179T332 702z"/><glyph glyph-name="Ocircumflex" unicode="Ô" horiz-adv-x="1579" d="M727 1876h184l191-330h-31l-272 213-230-213h-30zM76 702q0 150 56 286.5t151.5 235 227 156.5 277.5 58 278-58 228-156.5 152.5-235T1503 702t-56.5-285.5T1294 183 1066 27 788-31q-194 0-358 98T171 333.5 76 702zm256 0q0-298 123.5-476.5T788 47t334 178.5T1247 702q0 299-125 478.5T788 1360t-332.5-179T332 702z"/><glyph glyph-name="Otilde" unicode="Õ" horiz-adv-x="1579" d="M502 1585h-31q0 121 51 190.5t135 69.5q48 0 98-21.5t84.5-48 74.5-48 69-21.5q79 0 96 139h31q4-119-52-191.5T920 1581q-80 0-183 72-5 3-21.5 14.5t-22.5 15-20 12-21 11.5-18.5 8-21 6.5-18.5 1.5q-40 0-60.5-32.5T502 1585zM76 702q0 150 56 286.5t151.5 235 227 156.5 277.5 58 278-58 228-156.5 152.5-235T1503 702t-56.5-285.5T1294 183 1066 27 788-31q-194 0-358 98T171 333.5 76 702zm256 0q0-298 123.5-476.5T788 47t334 178.5T1247 702q0 299-125 478.5T788 1360t-332.5-179T332 702z"/><glyph glyph-name="Odieresis" unicode="Ö" horiz-adv-x="1579" d="M76 702q0 150 56 286.5t151.5 235 227 156.5 277.5 58 278-58 228-156.5 152.5-235T1503 702t-56.5-285.5T1294 183 1066 27 788-31q-194 0-358 98T171 333.5 76 702zm256 0q0-298 123.5-476.5T788 47t334 178.5T1247 702q0 299-125 478.5T788 1360t-332.5-179T332 702zm282 1123q44 0 76.5-32.5T723 1716t-32.5-76-76.5-32-76 32-32 76 32 76.5 76 32.5zm351 0q44 0 76-32.5t32-76.5-32-76-76-32-76.5 32-32.5 76 32.5 76.5T965 1825z"/><glyph glyph-name="multiply" unicode="×" horiz-adv-x="1368" d="m190 1116 76 78 418-420 418 420 76-78-418-418 414-413-76-76-414 414-416-414-75 76 415 413z"/><glyph glyph-name="Oslash" unicode="Ø" horiz-adv-x="1579" d="m393 352 760 783q-53 105-148 165t-212 60q-209 0-333-179T336 702q0-97 16.5-194T393 352zM80 702q0 150 56.5 286.5t151.5 235T515 1380t278 58q268 0 473-187l209 215 55-59-207-213q184-209 184-492 0-200-95.5-368.5T1151.5 67 793-31q-269 0-480 191L104-55 51 0l209 215q-86 96-133 227T80 702zm1110 357L428 276Q560 47 793 47q209 0 333.5 178.5T1251 702q0 90-16.5 194.5T1190 1059z"/><glyph glyph-name="Ugrave" unicode="Ù" horiz-adv-x="1685" d="M682 1876h223l105-346h-33zM66 1370v37h628v-37q-110-2-152-39t-42-139V428q0-169 100-270T885 57q456 0 456 455v686q0 94-48 135t-163 37v37h517v-37q-127 1-172-37t-45-141V487q0-110-36.5-204t-106-164T1110 9 866-31Q715-31 600.5 6.5t-184 105-103.5 156T279 465v670q0 59-4.5 95t-16.5 66.5-36 45-61.5 22T66 1370z"/><glyph glyph-name="Uacute" unicode="Ú" horiz-adv-x="1685" d="m1106 1876-295-346h-33l105 346h223zM66 1370v37h628v-37q-110-2-152-39t-42-139V428q0-169 100-270T885 57q456 0 456 455v686q0 94-48 135t-163 37v37h517v-37q-127 1-172-37t-45-141V487q0-110-36.5-204t-106-164T1110 9 866-31Q715-31 600.5 6.5t-184 105-103.5 156T279 465v670q0 59-4.5 95t-16.5 66.5-36 45-61.5 22T66 1370z"/><glyph glyph-name="Ucircumflex" unicode="Û" horiz-adv-x="1685" d="M791 1876h184l190-330h-30l-273 213-229-213h-31zM66 1370v37h628v-37q-110-2-152-39t-42-139V428q0-169 100-270T885 57q456 0 456 455v686q0 94-48 135t-163 37v37h517v-37q-127 1-172-37t-45-141V487q0-110-36.5-204t-106-164T1110 9 866-31Q715-31 600.5 6.5t-184 105-103.5 156T279 465v670q0 59-4.5 95t-16.5 66.5-36 45-61.5 22T66 1370z"/><glyph glyph-name="Udieresis" unicode="Ü" horiz-adv-x="1685" d="M668 1825q44 0 76-32.5t32-76.5-32-76-76-32-76.5 32-32.5 76 32.5 76.5T668 1825zm350 0q44 0 76-32.5t32-76.5-32-76-76-32-76.5 32-32.5 76 32.5 76.5 76.5 32.5zM66 1370v37h628v-37q-110-2-152-39t-42-139V428q0-169 100-270T885 57q456 0 456 455v686q0 94-48 135t-163 37v37h517v-37q-127 1-172-37t-45-141V487q0-110-36.5-204t-106-164T1110 9 866-31Q715-31 600.5 6.5t-184 105-103.5 156T279 465v670q0 59-4.5 95t-16.5 66.5-36 45-61.5 22T66 1370z"/><glyph glyph-name="Yacute" unicode="Ý" horiz-adv-x="1579" d="m1053 1876-295-346h-33l104 346h224zm501-469v-37q-91 0-158.5-49.5T1231 1118L903 604V213q0-104 45.5-140T1118 37V0H465v37q89-2 136.5 18.5t64 61.5T682 236v354l-434 645q-59 88-99.5 111.5T25 1370v37h624v-37q-95 0-127.5-12t-32.5-43q0-51 66-152l309-465 269 420q94 147 94 193 0 59-148 59v37h475z"/><glyph glyph-name="Thorn" unicode="Þ" horiz-adv-x="1236" d="M473 1192v-98h213q133 0 249-47t190.5-138.5T1200 700q0-167-130-278T745 311q-121 0-272 47V213q0-103 46-139.5T684 37V0H51v37q65-1 107 11.5T219.5 88t26 55 6.5 72v979q0 99-44 137.5T51 1370v37h623v-37q-65 1-107-11.5t-61.5-39.5-26-55-6.5-72zm0-203V430q100-41 174-41 133 0 215 84t82 219q0 141-90 232.5T623 1016q-67 0-150-27z"/><glyph glyph-name="germandbls" unicode="ß" horiz-adv-x="1130" d="M565 864q234-3 234 271 0 129-57 200.5T584 1407q-59 0-102-21.5t-66.5-60-34-83T371 1145V193q0-77 29.5-113T500 37V0H51v37q91 3 121.5 42.5T203 223v889q0 155 101 255.5T584 1468q172 0 280.5-92.5T973 1135q0-100-56.5-175.5T760 852v-4q145-35 223-138.5t78-260.5q0-123-48.5-229.5T881 50.5 702-12q-83 0-139.5 47.5T506 152q0 43 22.5 69.5T588 248t60.5-27 23.5-61q0-9-6.5-33.5T659 94q0-18 15-31.5T713 49q78 0 126 86t48 225q0 198-88 320T565 805v59z"/><glyph glyph-name="agrave" unicode="à" d="M250 1438h223l105-346h-33zM991 178v-51Q913 39 863.5 5T760-29q-61 0-99.5 47T629 145Q449-29 293-29q-89 0-150 67.5T82 203q0 92 57 164 27 36 77.5 67T354 506q139 66 275 112v89q0 125-42 174t-143 49q-80 0-118.5-41T287 780q0-5 1-24t1-25q0-37-22.5-60.5T209 647q-40 0-64 24t-24 62q0 107 101.5 173.5T489 973q157 0 232.5-61.5T797 721V190q0-52 13.5-74T856 94q57 0 135 84zm-362 12v373q-217-89-295-153.5T256 256q0-70 44.5-119T410 88q103 0 219 102z"/><glyph glyph-name="aacute" unicode="á" d="m694 1438-295-346h-32l104 346h223zM991 178v-51Q913 39 863.5 5T760-29q-61 0-99.5 47T629 145Q449-29 293-29q-89 0-150 67.5T82 203q0 92 57 164 27 36 77.5 67T354 506q139 66 275 112v89q0 125-42 174t-143 49q-80 0-118.5-41T287 780q0-5 1-24t1-25q0-37-22.5-60.5T209 647q-40 0-64 24t-24 62q0 107 101.5 173.5T489 973q157 0 232.5-61.5T797 721V190q0-52 13.5-74T856 94q57 0 135 84zm-362 12v373q-217-89-295-153.5T256 256q0-70 44.5-119T410 88q103 0 219 102z"/><glyph glyph-name="acircumflex" unicode="â" d="M379 1438h184l191-330h-31l-272 213-230-213h-31zM991 178v-51Q913 39 863.5 5T760-29q-61 0-99.5 47T629 145Q449-29 293-29q-89 0-150 67.5T82 203q0 92 57 164 27 36 77.5 67T354 506q139 66 275 112v89q0 125-42 174t-143 49q-80 0-118.5-41T287 780q0-5 1-24t1-25q0-37-22.5-60.5T209 647q-40 0-64 24t-24 62q0 107 101.5 173.5T489 973q157 0 232.5-61.5T797 721V190q0-52 13.5-74T856 94q57 0 135 84zm-362 12v373q-217-89-295-153.5T256 256q0-70 44.5-119T410 88q103 0 219 102z"/><glyph glyph-name="atilde" unicode="ã" d="M184 1147h-30q0 121 51 190.5t135 69.5q48 0 98-21.5t84.5-48 74.5-48 69-21.5q79 0 96 139h31q4-118-52.5-191T602 1143q-80 0-182 71-6 4-22 14.5t-22.5 15-20 12.5-21.5 11.5-19 8.5-20.5 6.5-18.5 1.5q-40 0-60.5-32.5T184 1147zm807-969v-51Q913 39 863.5 5T760-29q-61 0-99.5 47T629 145Q449-29 293-29q-89 0-150 67.5T82 203q0 92 57 164 27 36 77.5 67T354 506q139 66 275 112v89q0 125-42 174t-143 49q-80 0-118.5-41T287 780q0-5 1-24t1-25q0-37-22.5-60.5T209 647q-40 0-64 24t-24 62q0 107 101.5 173.5T489 973q157 0 232.5-61.5T797 721V190q0-52 13.5-74T856 94q57 0 135 84zm-362 12v373q-217-89-295-153.5T256 256q0-70 44.5-119T410 88q103 0 219 102z"/><glyph glyph-name="adieresis" unicode="ä" d="M991 178v-51Q913 39 863.5 5T760-29q-61 0-99.5 47T629 145Q449-29 293-29q-89 0-150 67.5T82 203q0 92 57 164 27 36 77.5 67T354 506q139 66 275 112v89q0 125-42 174t-143 49q-80 0-118.5-41T287 780q0-5 1-24t1-25q0-37-22.5-60.5T209 647q-40 0-64 24t-24 62q0 107 101.5 173.5T489 973q157 0 232.5-61.5T797 721V190q0-52 13.5-74T856 94q57 0 135 84zm-362 12v373q-217-89-295-153.5T256 256q0-70 44.5-119T410 88q103 0 219 102zM297 1386q44 0 76.5-32t32.5-76-32.5-76.5T297 1169t-76.5 32.5T188 1278t32.5 76 76.5 32zm350 0q44 0 76.5-32t32.5-76-32.5-76.5T647 1169t-76 32.5-32 76.5 32 76 76 32z"/><glyph glyph-name="aring" unicode="å" d="M473 1438q78 0 134.5-56.5T664 1247t-56.5-134-134.5-56-134 56-56 134 56 134.5 134 56.5zm0-72q-49 0-84-35t-35-84 35-84 84-35 84 35 35 84-35 84-84 35zM991 178v-51Q913 39 863.5 5T760-29q-61 0-99.5 47T629 145Q449-29 293-29q-89 0-150 67.5T82 203q0 92 57 164 27 36 77.5 67T354 506q139 66 275 112v89q0 125-42 174t-143 49q-80 0-118.5-41T287 780q0-5 1-24t1-25q0-37-22.5-60.5T209 647q-40 0-64 24t-24 62q0 107 101.5 173.5T489 973q157 0 232.5-61.5T797 721V190q0-52 13.5-74T856 94q57 0 135 84zm-362 12v373q-217-89-295-153.5T256 256q0-70 44.5-119T410 88q103 0 219 102z"/><glyph glyph-name="ae" unicode="æ" horiz-adv-x="1366" d="m285 780 1-24q1-23 1-29 0-86-76-86-39 0-63.5 25.5T123 733q0 101 98.5 170.5T465 973q74 0 127-18t113-64q101 82 237 82 166 0 255.5-104t92.5-287H739q1-82 6-141.5T767 319t45-100.5 77-63 117-24.5q189 0 284 211l31-20q-62-168-164.5-259.5T926-29q-182 0-289 176Q464-29 305-29q-94 0-159.5 70T80 209q0 176 223 272l264 113q6 99 6 149 0 31-6.5 61t-21 59.5-44 48T432 930q-66 0-106.5-42T285 780zm456-135h344q0 264-165 264-86 0-131.5-68T741 645zM567 543q-185-85-249-145.5T254 260q0-73 51.5-126.5T428 80q43 0 85.5 22T618 180q-58 148-51 363z"/><glyph glyph-name="ccedilla" unicode="ç" horiz-adv-x="897" d="m836 369 32-15Q827 186 722 81.5T483-29l-6-8q63-5 101-44.5T616-182q0-79-64.5-128.5T381-360q-18 0-50.5 2t-47.5 2l10 34q71-4 118.5 24t47.5 73q0 39-33.5 63T342-145l80 118Q257-8 153 128T49 463q0 223 131.5 366.5T516 973q129 0 228.5-67.5T844 750q0-35-28-57.5T745 670q-54 0-86 32-14 14-18.5 44.5t-13 65.5-31.5 58q-41 41-115 41-121 0-194.5-96.5T213 559q0-191 90.5-306.5T543 137q107 0 183 60.5T836 369z"/><glyph glyph-name="egrave" unicode="è" horiz-adv-x="897" d="M258 1438h223l105-346h-33zM809 350l31-16Q806 165 704 68T459-29q-79 0-150 31T181 91.5 90.5 246 57 461q0 230 116.5 371T481 973q160 0 259.5-106.5T840 590H197q-6-114 34.5-218.5t122-171.5T537 133q195 0 272 217zM201 653h428q-4 117-58 182.5T426 901q-90 0-152-68.5T201 653z"/><glyph glyph-name="eacute" unicode="é" horiz-adv-x="897" d="m672 1438-295-346h-33l105 346h223zM809 350l31-16Q806 165 704 68T459-29q-79 0-150 31T181 91.5 90.5 246 57 461q0 230 116.5 371T481 973q160 0 259.5-106.5T840 590H197q-6-114 34.5-218.5t122-171.5T537 133q195 0 272 217zM201 653h428q-4 117-58 182.5T426 901q-90 0-152-68.5T201 653z"/><glyph glyph-name="ecircumflex" unicode="ê" horiz-adv-x="897" d="M356 1438h185l190-330h-31l-272 213-229-213h-31zM809 350l31-16Q806 165 704 68T459-29q-79 0-150 31T181 91.5 90.5 246 57 461q0 230 116.5 371T481 973q160 0 259.5-106.5T840 590H197q-6-114 34.5-218.5t122-171.5T537 133q195 0 272 217zM201 653h428q-4 117-58 182.5T426 901q-90 0-152-68.5T201 653z"/><glyph glyph-name="edieresis" unicode="ë" horiz-adv-x="897" d="m809 350 31-16Q806 165 704 68T459-29q-79 0-150 31T181 91.5 90.5 246 57 461q0 230 116.5 371T481 973q160 0 259.5-106.5T840 590H197q-6-114 34.5-218.5t122-171.5T537 133q195 0 272 217zM201 653h428q-4 117-58 182.5T426 901q-90 0-152-68.5T201 653zm73 733q44 0 76.5-32t32.5-76-32.5-76.5T274 1169t-76 32.5-32 76.5 32 76 76 32zm351 0q44 0 76-32t32-76-32-76.5-76-32.5-76.5 32.5T516 1278t32.5 76 76.5 32z"/><glyph glyph-name="igrave" unicode="ì" horiz-adv-x="555" d="M86 1438h223l105-346h-33zm115-731q0 61-25 96t-74 35q-16 0-22-2-3 0-21-9l-12 37 285 109h37V227q0-108 29-147.5T508 37V0H47v37h2q86 0 119 41t33 149v480z"/><glyph glyph-name="iacute" unicode="í" horiz-adv-x="555" d="m500 1438-295-346h-33l104 346h224zM201 707q0 61-25 96t-74 35q-16 0-22-2-3 0-21-9l-12 37 285 109h37V227q0-108 29-147.5T508 37V0H47v37h2q86 0 119 41t33 149v480z"/><glyph glyph-name="icircumflex" unicode="î" horiz-adv-x="555" d="M184 1438h185l190-330h-31l-272 213-229-213H-4zm17-731q0 61-25 96t-74 35q-16 0-22-2-3 0-21-9l-12 37 285 109h37V227q0-108 29-147.5T508 37V0H47v37h2q86 0 119 41t33 149v480z"/><glyph glyph-name="idieresis" unicode="ï" horiz-adv-x="555" d="M102 1386q44 0 76.5-32t32.5-76-32.5-76.5T102 1169t-76 32.5-32 76.5 32 76 76 32zm351 0q44 0 76-32t32-76-32-76.5-76-32.5-76.5 32.5T344 1278t32.5 76 76.5 32zM201 707q0 61-25 96t-74 35q-16 0-22-2-3 0-21-9l-12 37 285 109h37V227q0-108 29-147.5T508 37V0H47v37h2q86 0 119 41t33 149v480z"/><glyph glyph-name="eth" unicode="ð" horiz-adv-x="1067" d="m496 1196-254-145-45 73 241 138-13 13q-38 39-57 56.5t-49 41.5-69 50l26 45q143-75 248-155l260 147 43-71-231-136q181-153 285-360 102-202 102-404 0-226-131-372T520-29q-189 0-317.5 139.5T74 455q0 90 31 180t85 164 137.5 120T508 965q52 0 87-13t83-49l4 4q-25 60-78 143t-108 146zm2-295q-117 0-175.5-100.5T264 535q0-219 86-353 40-66 96.5-102.5T569 43q106 0 165 91t59 255q0 195-62 336-79 176-233 176z"/><glyph glyph-name="ntilde" unicode="ñ" horiz-adv-x="1130" d="M279 1147h-31q0 121 51 190.5t135 69.5q48 0 98-21.5t84.5-48 74.5-48 69-21.5q79 0 96 139h31q4-118-52.5-191T696 1143q-80 0-182 71-6 4-25 17t-26 17.5-22.5 13.5-24.5 12.5-21.5 6.5-23.5 3q-40 0-60.5-32.5T279 1147zm-80-432q0 52-20.5 87.5T117 838q-21 0-31-2-4-2-9.5-4t-13-5.5T51 821l-14 39 295 113h35V772q106 115 174.5 158T690 973q120 0 185-89t65-222V227q0-109 30-148t115-42V0H606v37q53-1 86 9t50.5 35 23.5 58 6 88v447q0 73-45.5 125.5T610 852q-62 0-119.5-32.5T367 715V227q0-110 32-149t123-41V0H51v37q52 4 82 15.5T177.5 90t18 54.5T199 227v488z"/><glyph glyph-name="ograve" unicode="ò" horiz-adv-x="1130" d="M375 1438h223l104-346h-32zm665-932q0-142-67-265.5T792.5 44 549-29q-123 0-228.5 64.5T153.5 210 92 449q0 139 67.5 260t181 192.5T584 973q90 0 174.5-38t146-101 98.5-149 37-179zm-184-86q0 206-91.5 343.5T535 901q-119 0-189-100.5T276 530q0-88 21-173.5t60-156 101.5-114T596 43q117 0 188.5 103.5T856 420z"/><glyph glyph-name="oacute" unicode="ó" horiz-adv-x="1130" d="m788 1438-294-346h-33l104 346h223zm252-932q0-142-67-265.5T792.5 44 549-29q-123 0-228.5 64.5T153.5 210 92 449q0 139 67.5 260t181 192.5T584 973q90 0 174.5-38t146-101 98.5-149 37-179zm-184-86q0 206-91.5 343.5T535 901q-119 0-189-100.5T276 530q0-88 21-173.5t60-156 101.5-114T596 43q117 0 188.5 103.5T856 420z"/><glyph glyph-name="ocircumflex" unicode="ô" horiz-adv-x="1130" d="M473 1438h184l191-330h-31l-272 213-230-213h-30zm567-932q0-142-67-265.5T792.5 44 549-29q-123 0-228.5 64.5T153.5 210 92 449q0 139 67.5 260t181 192.5T584 973q90 0 174.5-38t146-101 98.5-149 37-179zm-184-86q0 206-91.5 343.5T535 901q-119 0-189-100.5T276 530q0-88 21-173.5t60-156 101.5-114T596 43q117 0 188.5 103.5T856 420z"/><glyph glyph-name="otilde" unicode="õ" horiz-adv-x="1130" d="M279 1147h-31q0 121 51 190.5t135 69.5q48 0 98-21.5t84.5-48 74.5-48 69-21.5q79 0 96 139h31q4-118-52.5-191T696 1143q-80 0-182 71-6 4-25 17t-26 17.5-22.5 13.5-24.5 12.5-21.5 6.5-23.5 3q-40 0-60.5-32.5T279 1147zm761-641q0-142-67-265.5T792.5 44 549-29q-123 0-228.5 64.5T153.5 210 92 449q0 139 67.5 260t181 192.5T584 973q90 0 174.5-38t146-101 98.5-149 37-179zm-184-86q0 206-91.5 343.5T535 901q-119 0-189-100.5T276 530q0-88 21-173.5t60-156 101.5-114T596 43q117 0 188.5 103.5T856 420z"/><glyph glyph-name="odieresis" unicode="ö" horiz-adv-x="1130" d="M1040 506q0-142-67-265.5T792.5 44 549-29q-123 0-228.5 64.5T153.5 210 92 449q0 139 67.5 260t181 192.5T584 973q90 0 174.5-38t146-101 98.5-149 37-179zm-184-86q0 206-91.5 343.5T535 901q-119 0-189-100.5T276 530q0-88 21-173.5t60-156 101.5-114T596 43q117 0 188.5 103.5T856 420zm-465 966q44 0 76.5-32t32.5-76-32.5-76.5T391 1169t-76 32.5-32 76.5 32 76 76 32zm350 0q44 0 76.5-32t32.5-76-32.5-76.5T741 1169t-76 32.5-32 76.5 32 76 76 32z"/><glyph glyph-name="divide" unicode="÷" horiz-adv-x="1368" d="M684 1190q35 0 59.5-24.5T768 1106t-24.5-59.5T684 1022t-59.5 24.5T600 1106t24.5 59.5T684 1190zM143 760h1082V635H143v125zm541-387q35 0 59.5-24.5T768 289t-24.5-59.5T684 205t-59.5 24.5T600 289t24.5 59.5T684 373z"/><glyph glyph-name="oslash" unicode="ø" horiz-adv-x="1130" d="M809 688 356 207q40-74 103.5-119T598 43q117 0 188.5 103.5T858 420q0 139-49 268zm233-182q0-142-67-265.5T794.5 44 551-29Q379-29 248 92L106-59 61-18l146 155q-53 59-83 143.5T94 449q0 139 67.5 260t181 192.5T586 973q164 0 297-117l141 152 45-43-143-154q53-55 84.5-138.5T1042 506zM328 266l450 479q-47 77-109 116.5T537 901q-118 0-188-100.5T279 530q0-156 49-264z"/><glyph glyph-name="ugrave" unicode="ù" horiz-adv-x="1130" d="M375 1438h223l104-346h-32zM209 772q0 83-37 114T37 913v37h340V276q0-73 41-122 45-52 114-52 125 0 244 125v564q0 64-37.5 95T616 913v37h328V225q0-46 23-81t67-35q24 0 68 16V86L815-25h-39v201h-4Q605-29 453-29q-110 0-177 79.5T209 244v528z"/><glyph glyph-name="uacute" unicode="ú" horiz-adv-x="1130" d="m788 1438-294-346h-33l104 346h223zM209 772q0 83-37 114T37 913v37h340V276q0-73 41-122 45-52 114-52 125 0 244 125v564q0 64-37.5 95T616 913v37h328V225q0-46 23-81t67-35q24 0 68 16V86L815-25h-39v201h-4Q605-29 453-29q-110 0-177 79.5T209 244v528z"/><glyph glyph-name="ucircumflex" unicode="û" horiz-adv-x="1130" d="M473 1438h184l191-330h-31l-272 213-230-213h-30zM209 772q0 83-37 114T37 913v37h340V276q0-73 41-122 45-52 114-52 125 0 244 125v564q0 64-37.5 95T616 913v37h328V225q0-46 23-81t67-35q24 0 68 16V86L815-25h-39v201h-4Q605-29 453-29q-110 0-177 79.5T209 244v528z"/><glyph glyph-name="udieresis" unicode="ü" horiz-adv-x="1130" d="M391 1386q44 0 76.5-32t32.5-76-32.5-76.5T391 1169t-76 32.5-32 76.5 32 76 76 32zm350 0q44 0 76.5-32t32.5-76-32.5-76.5T741 1169t-76 32.5-32 76.5 32 76 76 32zM209 772q0 83-37 114T37 913v37h340V276q0-73 41-122 45-52 114-52 125 0 244 125v564q0 64-37.5 95T616 913v37h328V225q0-46 23-81t67-35q24 0 68 16V86L815-25h-39v201h-4Q605-29 453-29q-110 0-177 79.5T209 244v528z"/><glyph glyph-name="yacute" unicode="ý" d="m766 1438-295-346h-33l105 346h223zM33 950h424v-37q-61 0-86-16.5T346 838q0-35 21-82l231-518 205 553q14 44 14 61 0 31-21.5 43.5T721 913v37h272v-37q-36-4-62-32t-48-86L559-76Q431-434 211-434q-61 0-99 31t-38 81q0 42 29.5 68.5T180-227q32 0 77-19.5t65-19.5q43 0 83 50.5T487-61l33 81-330 736q-36 81-72.5 116.5T33 913v37z"/><glyph glyph-name="thorn" unicode="þ" horiz-adv-x="1130" d="M373 1468V756h4q58 99 141.5 158T696 973q155 0 264-137.5T1069 502q0-109-37.5-207.5T931 125.5 780.5 13 596-29q-132 0-223 88v-262q0-118 34-156t138-38v-37H35v37q106-1 138 40t32 154v1409q0 58-23 91.5t-67 33.5q-24 0-64-12l-16 37 303 112h35zm0-776V266q0-106 66.5-168.5T604 35q132 0 211.5 107.5T895 430q0 175-79 286T612 827q-128 0-239-135z"/><glyph glyph-name="ydieresis" unicode="ÿ" d="M369 1386q44 0 76-32t32-76-32-76.5-76-32.5-76.5 32.5T260 1278t32.5 76 76.5 32zm350 0q44 0 76-32t32-76-32-76.5-76-32.5-76.5 32.5T610 1278t32.5 76 76.5 32zM33 950h424v-37q-61 0-86-16.5T346 838q0-35 21-82l231-518 205 553q14 44 14 61 0 31-21.5 43.5T721 913v37h272v-37q-36-4-62-32t-48-86L559-76Q431-434 211-434q-61 0-99 31t-38 81q0 42 29.5 68.5T180-227q32 0 77-19.5t65-19.5q43 0 83 50.5T487-61l33 81-330 736q-36 81-72.5 116.5T33 913v37z"/><glyph glyph-name="dotlessi" unicode="ı" horiz-adv-x="555" d="M201 707q0 61-25 96t-74 35q-16 0-22-2-3 0-21-9l-12 37 285 109h37V227q0-108 29-147.5T508 37V0H47v37h2q86 0 119 41t33 149v480z"/><glyph glyph-name="Lslash" unicode="Ł" horiz-adv-x="1366" d="M1327 375 1208 0H86v37q86-2 133 18.5t62.5 57.5T297 215v348L86 387v98l211 177v532q0 93-43.5 136T86 1370v37h631v-37q-115 1-157-37.5T518 1192V846l258 215V961L518 748V174q0-46 18-64t64-18h287q79 0 133 11t104.5 42.5 90 90T1292 387z"/><glyph glyph-name="lslash" unicode="ł" horiz-adv-x="555" d="M203 715v461q0 145-94 145-25 0-50-10l-12 35 287 122h37V858l170 146V903L371 758V225q0-108 27.5-146.5T504 37h4V0H47v37h16q80 0 110 40.5T203 225v389L43 479v101z"/><glyph glyph-name="OE" unicode="Œ" horiz-adv-x="2048" d="m1880 1407 12-317h-39q-19 129-94.5 182t-204.5 53h-327V782h307q111 0 161.5 43t53.5 158h37V492h-37q3 208-172 208h-350V203q0-78 21-99.5t98-21.5h200q171 0 268.5 61.5T1976 365l35-13L1909 0h-877q-36 0-158-4-92-6-151-6-148 0-270 60T253 210 132.5 436.5 90 700q0 144 41 264.5T239.5 1167 396 1306.5t183.5 84T770 1417q40 0 166-4 94-6 199-6h745zM1006 315v787q0 111-56.5 174T778 1339q-199 0-315.5-168.5T346 680q0-174 46-310t143.5-219T770 68q236 0 236 247z"/><glyph glyph-name="oe" unicode="œ" horiz-adv-x="1472" d="m1413 334 27-23q-70-167-163-253.5T1075-29q-167 0-274 176Q670-29 487-29q-47 0-100 14.5t-110 50T174.5 123t-75 135.5T70 444q0 224 126 376.5T508 973q97 0 165-35.5T801 819q60 85 118.5 119.5T1063 973q155 0 250.5-106.5T1413 582H881q0-221 69-330t211-109q80 0 139 45t113 146zM881 645h325v10q0 115-45 180.5T1038 901q-157 0-157-256zM254 535q0-232 66-362T506 43q99 0 157 94t58 277q0 495-260 495-97 0-152-100t-55-274z"/><glyph glyph-name="Scaron" unicode="Š" horiz-adv-x="1130" d="M659 1546H475l-190 330h30l273-213 229 213h31zm297-108V971h-38q-17 164-125 276.5T545 1360q-101 0-172.5-60.5T301 1153q0-47 16.5-79.5T369 1006q36-36 145.5-102T742 763t176-132q122-122 122-273 0-161-126-275T608-31q-78 0-152 18.5t-127.5 37T248 43q-55 0-84-74h-37v473h37q34-180 136.5-287.5T569 47q117 0 193 63t76 160q0 99-80 179-57 57-170 128.5T369 713 223 817q-104 104-104 256 0 155 114 260t283 105q96 0 197-37 9-3 28.5-11t28.5-11.5 23-8 25-6.5 22-2q51 0 78 76h38z"/><glyph glyph-name="scaron" unicode="š" horiz-adv-x="788" d="M487 1108H303l-190 330h30l273-213 229 213h31zM100 702q0 117 81 194t204 77q43 0 109-17 52-18 81-18 23 0 39 12h37V662h-37q-17 114-80.5 183.5T381 915q-68 0-116-34.5T217 795q0-66 41-107 44-44 115.5-81t145-76.5T641 442q80-80 80-188 0-59-22-108.5t-55.5-81T568 11t-80.5-31-71.5-9q-57 0-138.5 21.5T186 14q-26 0-36-14h-44v319h35q15-126 91.5-205T418 35q63 0 110 41t47 98q0 43-12.5 71T518 305q-34 35-172.5 115T164 543q-35 35-49.5 70T100 702z"/><glyph glyph-name="Ydieresis" unicode="Ÿ" horiz-adv-x="1579" d="M614 1825q44 0 76.5-32.5T723 1716t-32.5-76-76.5-32-76 32-32 76 32 76.5 76 32.5zm351 0q44 0 76-32.5t32-76.5-32-76-76-32-76.5 32-32.5 76 32.5 76.5T965 1825zm589-418v-37q-91 0-158.5-49.5T1231 1118L903 604V213q0-104 45.5-140T1118 37V0H465v37q89-2 136.5 18.5t64 61.5T682 236v354l-434 645q-59 88-99.5 111.5T25 1370v37h624v-37q-95 0-127.5-12t-32.5-43q0-51 66-152l309-465 269 420q94 147 94 193 0 59-148 59v37h475z"/><glyph glyph-name="Zcaron" unicode="Ž" horiz-adv-x="1366" d="M776 1546H592l-191 330h31l273-213 229 213h31zm-586-139h1117L350 88h594q86 0 137.5 10.5T1172 143t63 86 51 146h35L1257 0H43v37l932 1288H514q-89 0-140-9.5t-87-39.5-53-80-27-137h-37z"/><glyph glyph-name="zcaron" unicode="ž" horiz-adv-x="897" d="M543 1108H358l-190 330h31l272-213 229 213h31zM96 950h762v-35L250 70h344q122 0 168.5 48T809 287h39L836 0H29v37l606 844H305q-90 0-127.5-37T131 700H96v250z"/><glyph glyph-name="florin" unicode="ƒ" d="M707 895h188l-16-70H694q-69-319-125-532T465-45t-85-188-87-117q-35-38-86.5-61T113-434q-57 0-94 31.5T-18-324q0 39 24 67t57 28q28 0 49-18.5t21-43.5q0-13-12-34.5T109-350q0-8 12-14.5t20-6.5q23 0 50 23t49 65q35 67 67 201t90 398 123 509H332l16 70q139 10 168 39 22 22 46 80.5t43.5 119.5 51.5 127.5 68 102.5q35 35 81.5 54.5T893 1438q63 0 103-33.5t40-85.5q0-35-20-58.5t-49-23.5q-28 0-48 18t-20 41q0 9 11.5 34t11.5 32q0 12-10 19.5t-25 7.5q-40 0-71.5-33T770 1247z"/><glyph glyph-name="circumflex" unicode="ˆ" horiz-adv-x="681" d="M248 1438h184l191-330h-31l-273 213-229-213H59z"/><glyph glyph-name="caron" unicode="ˇ" horiz-adv-x="681" d="M434 1108H250L59 1438h31l272-213 230 213h31z"/><glyph glyph-name="uni02C9" unicode="ˉ" horiz-adv-x="681" d="M23 1350h636v-150H23v150z"/><glyph glyph-name="breve" unicode="˘" horiz-adv-x="681" d="M55 1407h31q37-68 98-98.5t160-30.5q205 0 250 129h33q-9-123-88.5-202T342 1126q-122 0-202 84.5T55 1407z"/><glyph glyph-name="dotaccent" unicode="˙" horiz-adv-x="681" d="M342 1386q44 0 76.5-32t32.5-76-32.5-76.5T342 1169t-76.5 32.5T233 1278t32.5 76 76.5 32z"/><glyph glyph-name="ring" unicode="˚" horiz-adv-x="681" d="M342 1438q78 0 134-56.5t56-134.5-56-134-134-56-134 56-56 134 56 134.5 134 56.5zm0-72q-50 0-84.5-35t-34.5-84 34.5-84 84.5-35 84.5 35 34.5 84-34.5 84-84.5 35z"/><glyph glyph-name="ogonek" unicode="˛" horiz-adv-x="681" d="M229 16h52q-27-55-27-100 0-93 65.5-144T467-279q50 0 121 23l20-31q-86-47-129-61t-102-14q-101 0-165.5 51T147-180q0 117 82 196z"/><glyph glyph-name="tilde" unicode="˜" horiz-adv-x="681" d="M53 1147H23q0 121 51 190.5t135 69.5q48 0 98-21.5t84.5-48 74.5-48 69-21.5q79 0 96 139h31q4-118-52.5-191T471 1143q-80 0-182 71-6 4-22 14.5t-22.5 15-20 12.5-21.5 11.5-19 8.5-20.5 6.5-18.5 1.5q-40 0-60.5-32.5T53 1147z"/><glyph glyph-name="hungarumlaut" unicode="˝" horiz-adv-x="681" d="M457 1468h188l-221-350h-33zm-314 0h189l-221-350H78z"/><glyph glyph-name="uni03A9" unicode="Ω" horiz-adv-x="1339" d="M1276 287 1231 0H793l-15 35q9 21 54 116t66.5 148.5 53.5 143T998.5 615t13.5 163q-1 154-29.5 269.5t-77.5 182-108.5 98.5-128.5 32q-74 0-133.5-31T427 1231t-74.5-184T326 770q0-40 4.5-83t9.5-78 18-81.5 20.5-75 26.5-78 27-71 31.5-73.5 30-65.5 32.5-68T555 35L541 0H104L61 287l52 2q27-93 56-121.5t87-28.5h188q-45 44-78.5 80T284 320.5t-79 129T151.5 602 129 784q0 143 42.5 263.5t115.5 202T459.5 1376t212.5 45q237 0 386.5-168T1208 799q0-85-22-169.5T1134 481t-78-133.5-84-112-87-96.5h200q59 0 84.5 26.5T1225 289z"/><glyph glyph-name="uni03BC" unicode="μ" horiz-adv-x="1067" d="M127 950h168V328q0-147 59-197 41-33 88-33 127 0 252 140v712h168V209q0-125 64-125 66 0 84 127h43q-8-93-37-145-25-44-69.5-69.5T848-29q-73 0-109 46.5T694 168Q604 63 525.5 17T360-29q-54 0-88.5 19.5T205 59h-4V10q0-50 5.5-91T233-213q15-64 15-109 0-51-25-81.5T154-434q-40 0-65.5 30.5T63-324q0 48 15 107 5 22 15.5 65T109-88q7 17 10 59 8 93 8 127v852z"/><glyph glyph-name="pi" unicode="π" horiz-adv-x="1064" d="m965 950 49-16q-19-108-68-180-35-9-129-9-8-102-8-466 0-185 82-185 28 0 47.5 13t46.5 45l27-41q-36-65-89.5-100.5T813-25q-82 0-127 58.5T641 238q0 168 21 512-208 4-285 4v-37q0-163-15-299t-37.5-217.5-40-126T252 10q-70-32-119-35l-12 35q96 127 138 338t42 410q-60 0-106-13t-69-27-69-48l-28 45q3 3 20.5 25t25 30 28 28.5 35 29.5 40 24 49.5 22 57.5 12 69.5 5q65 0 233-3t265-3q47 0 69.5 12.5T965 950z"/><glyph glyph-name="uni2010" unicode="‐" horiz-adv-x="681" d="M88 557h508V395H88v162z"/><glyph glyph-name="endash" unicode="–" d="M-12 506h1048v-64H-12v64z"/><glyph glyph-name="emdash" unicode="—" horiz-adv-x="2048" d="M-12 506h2072v-64H-12v64z"/><glyph glyph-name="quoteleft" unicode="‘" horiz-adv-x="555" d="M424 1468v-38q-113-38-168-112t-55-153q0-18 8.5-29.5T231 1124q6 0 32.5 15.5T315 1155q44 0 76.5-32t32.5-76q0-52-37.5-87.5T293 924q-72 0-119 58.5T127 1130q0 118 73 201t224 137z"/><glyph glyph-name="quoteright" unicode="’" horiz-adv-x="555" d="M131 924v39q113 38 168 111.5t55 152.5q0 18-8.5 29.5T324 1268q-6 0-32.5-15.5T240 1237q-44 0-76.5 32.5T131 1346q0 52 37.5 87t93.5 35q72 0 119-58.5t47-147.5q0-118-73-201T131 924z"/><glyph glyph-name="quotesinglbase" unicode="‚" horiz-adv-x="681" d="M193-342v39q113 38 168 111.5T416-39q0 17-9 29T385 2q-4 0-8.5-2t-12-6-12.5-6q-26-17-51-17-44 0-76 32.5T193 80q0 52 37.5 87.5T324 203q72 0 118.5-58.5T489-4q0-118-72.5-201T193-342z"/><glyph glyph-name="quotedblleft" unicode="“" d="M895 1468v-38q-113-38-168-112t-55-153q0-18 8.5-29.5T702 1124q6 0 32.5 15.5T786 1155q44 0 76.5-32t32.5-76q0-52-37.5-87.5T764 924q-72 0-119 58.5T598 1130q0 118 73 201t224 137zm-469 0v-38q-113-38-168-112t-55-153q0-18 8.5-29.5T233 1124q6 0 32.5 15.5T317 1155q44 0 76.5-32t32.5-76q0-52-37.5-87.5T295 924q-72 0-119 58.5T129 1130q0 118 73 201t224 137z"/><glyph glyph-name="quotedblright" unicode="”" d="M598 924v39q80 33 117 61 50 36 78 91t28 112q0 18-8.5 29.5T791 1268l-15-4-24-15q-21-12-45-12-43 0-76 32.5t-33 76.5q0 52 38 87t93 35q72 0 119-58.5t47-147.5q0-118-73-201T598 924zm-469 0v39q80 33 117 61 50 36 78 91t28 112q0 18-8.5 29.5T322 1268l-15-4-24-15q-21-12-45-12-44 0-76.5 32.5T129 1346q0 52 37.5 87t93.5 35q72 0 119-58.5t47-147.5q0-118-73-201T129 924z"/><glyph glyph-name="quotedblbase" unicode="„" d="M592-342v39q113 38 168 111.5T815-39q0 17-9 29T784 2q-4 0-8.5-2T764-6t-12-6q-26-17-52-17-44 0-76 32.5T592 80q0 52 37.5 87.5T723 203q72 0 119-59T889-4q0-118-73-201T592-342zm-469 0v39q113 38 168 111.5T346-39q0 17-9 29T315 2q-4 0-8.5-2T295-6t-12-6q-25-17-52-17-44 0-76 32.5T123 80q0 52 37.5 87.5T254 203q72 0 119-59T420-4q0-118-73-201T123-342z"/><glyph glyph-name="dagger" unicode="†" d="M489 956q-1 61-45.5 176.5T399 1309q0 51 34 90t77 39q44 0 77.5-40.5T621 1303q0-55-24-117t-47.5-121T528 956q67 3 159 40.5t144 37.5q37 0 66-30t29-68q0-41-29.5-70.5T827 836q-55 0-142 37.5T528 915q2-88 23-139t76-100q-50-166-76.5-461.5T528-434h-39q0 769-102 1110 102 80 102 239-49-3-146.5-40T195 838q-39 0-68 29t-29 69 29.5 69 69.5 29q46 0 142.5-39T489 956z"/><glyph glyph-name="daggerdbl" unicode="‡" d="M494 1057q1 67-40.5 165.5T412 1372q0 41 30 73t70 32q41 0 70.5-32.5T612 1368q0-56-40-149.5T530 1057q43-2 135.5 33.5T799 1126q37 0 62.5-26.5T887 1036q0-38-24-63t-60-25q-48 0-134.5 37.5T530 1020q9-113 97-178-95-118-95-334 0-198 95-313-45-34-67.5-73.5T530 20q56 0 140 35t129 35q35 0 61.5-27.5T887-2q0-35-26.5-61.5T799-90q-41 0-129.5 36.5T530-18q-1-55 41.5-162.5T614-334q0-39-30.5-69.5T514-434q-41 0-72.5 32.5T410-326q0 57 42.5 154T494-18q-56 2-142-35T227-90q-35 0-62.5 27.5T137 0q0 38 28 64t71 26q35 0 118.5-35.5T494 20q-7 64-29 102.5T397 195q54 73 75.5 147.5T494 528q0 113-23 186.5T397 842q49 38 70.5 78t26.5 100q-55-1-141-36.5T233 948q-41 0-68.5 26t-27.5 64 26 63 64 25q50 0 129.5-35t137.5-34z"/><glyph glyph-name="bullet" unicode="•" horiz-adv-x="724" d="M362 973q104 0 179-75t75-179-75-179-179-75-178.5 75T109 719t74.5 179T362 973z"/><glyph glyph-name="ellipsis" unicode="…" horiz-adv-x="2048" d="M227 86q0 47 34 80t81 33 80-33 33-80-33-81-80-34-81 34-34 81zm682 0q0 47 34 80t81 33 80-33 33-80-33-81-80-34-81 34-34 81zm682 0q0 47 34 80t81 33 80-33 33-80-33-81-80-34-81 34-34 81z"/><glyph glyph-name="perthousand" unicode="‰" horiz-adv-x="2048" d="M1493 350q0 77 18 140.5t46.5 104 65 68.5 71.5 40 67 12q46 0 92-22.5t86-65 64.5-115T2028 350q0-77-17.5-140T1965 106.5t-64-68-71-39-69-11.5q-44 0-89 21t-86 62-67 113.5-26 165.5zm119 0q0-330 149-330 148 0 148 330 0 332-148 332-149 0-149-332zm-805 0q0 77 18 140.5t46.5 104 65 68.5 71.5 40 67 12q46 0 92-22.5t85.5-65 64-115T1341 350q0-95-26-168.5T1247.5 68 1162 8t-87-20q-44 0-89 21t-86 62-67 113.5T807 350zm119 0q0-330 149-330 148 0 148 330 0 332-148 332-149 0-149-332zM16 1065q0 95 27 169t69.5 114.5 87 61T285 1430q46 0 92-22.5t85.5-65 64-115T551 1065q0-77-17.5-140.5T488 821t-64-68-70.5-39.5T285 702q-44 0-89 21t-86.5 62T42 899t-26 166zm119 0q0-330 150-330 147 0 147 330 0 332-147 332-150 0-150-332zm979 371h88L223-57h-88z"/><glyph glyph-name="guilsinglleft" unicode="‹" horiz-adv-x="555" d="M442 991h60L254 518 502 37h-60L53 518z"/><glyph glyph-name="guilsinglright" unicode="›" horiz-adv-x="555" d="m113 991 389-473L113 37H53l248 481L53 991h60z"/><glyph glyph-name="fraction" unicode="⁄" horiz-adv-x="681" d="M786 1436h88L-104-57h-89z"/><glyph glyph-name="Euro" unicode="€" d="m872 852-22-78H274v-84h549l-22-78H274q1-62 11.5-130T320 336.5 379 199t92-100 127-40q67 0 118.5 14.5T811 122t73 68 74 95l31-21q-45-71-84.5-118.5t-91-88.5-115-60.5T557-23q-97 0-176.5 40t-131 102.5-88.5 149-55.5 170T80 612H-20l22 78h74q0 55 2 84h-98l22 78h84q13 90 40.5 172t73.5 157 106 129.5 142 87 177 32.5q172 0 340-89v-299h-39q-11 148-84.5 235T625 1364q-71 0-129-35.5t-94-88-62.5-125-39-135T281 852h591z"/><glyph glyph-name="afii61289" unicode="ℓ" horiz-adv-x="784" d="m713 233 39-32Q639-20 436-20q-135 0-196 77-34 47-49 109.5T176 350v172L68 436l-25 49 133 111v264q0 246 19 352.5t79 180.5q74 100 170 100 83 0 128.5-74.5T618 1225q0-168-72-310T344 633V436q0-192 39-267t125-75q111 0 205 139zM344 975V727q78 99 126 233.5t48 264.5q0 96-22 151.5t-62 55.5q-51 0-70.5-99T344 975z"/><glyph glyph-name="trademark" unicode="™" horiz-adv-x="2004" d="M49 1407h729l23-201h-35q-12 78-55 109t-138 31h-73V766q0-82 17.5-104.5T604 635v-35H229v35q48 5 67.5 15t27.5 34.5 8 81.5v580h-80q-92 0-133-30.5T63 1206H29zm1108 0 273-573 266 573h276v-37q-72-1-90-25t-18-112V766q0-85 17-105.5t91-25.5v-35h-399v35q78 2 100.5 25t22.5 106v491h-4l-306-657h-32l-305 649h-5V766q0-49 3.5-73t20.5-38.5 39-17 71-2.5v-35H868v35q74 0 94.5 23.5T983 766v467q0 90-20 113.5t-95 23.5v37h289z"/><glyph glyph-name="Omega" unicode="Ω" horiz-adv-x="1339" d="M1276 287 1231 0H793l-15 35q9 21 54 116t66.5 148.5 53.5 143T998.5 615t13.5 163q-1 154-29.5 269.5t-77.5 182-108.5 98.5-128.5 32q-74 0-133.5-31T427 1231t-74.5-184T326 770q0-40 4.5-83t9.5-78 18-81.5 20.5-75 26.5-78 27-71 31.5-73.5 30-65.5 32.5-68T555 35L541 0H104L61 287l52 2q27-93 56-121.5t87-28.5h188q-45 44-78.5 80T284 320.5t-79 129T151.5 602 129 784q0 143 42.5 263.5t115.5 202T459.5 1376t212.5 45q237 0 386.5-168T1208 799q0-85-22-169.5T1134 481t-78-133.5-84-112-87-96.5h200q59 0 84.5 26.5T1225 289z"/><glyph glyph-name="estimated" unicode="℮" horiz-adv-x="1751" d="M1681 682H375q-10 0-10-10V276q0-23 16-45 98-101 225-158t268-57q152 0 287.5 65T1395 258h116q-109-130-278-205.5T872-23q-218 0-403.5 97t-293 263.5T68 700q0 148 63.5 282T303 1213t256.5 154.5T872 1425q219 0 405.5-97t295-264T1681 700v-18zm-297 51v397q0 30-18 48-98 96-224.5 150T874 1382q-139 0-266-56t-225-155q-18-21-18-49V733q0-4 3-9t7-5h1001q8 0 8 14z"/><glyph glyph-name="partialdiff" unicode="∂" horiz-adv-x="997" d="M496 864h2q68 0 134-33t111-98q16 174 17 219 7 174-47 318-31 75-97.5 130.5T465 1456q-124 0-254-108-24-3-46.5 44.5T154 1473q113 81 260 81 253 0 391-288 94-193 94-473 0-128-22-265t-68-239Q747 145 650 62.5T424-20Q268-20 175 86T82 379q0 189 111 336 53 66 134 107.5T496 864zm41-78h-2q-121 0-197-118-41-71-63.5-174.5T252 283q-2-104 44.5-174T424 39q65 0 118.5 62.5T635 256q36 86 56 173.5T727 647q-22 50-73.5 94.5T537 786z"/><glyph glyph-name="uni2206" unicode="∆" horiz-adv-x="1189" d="M1122 0H63v51l486 1348 74 22L1122 51V0zM909 96 535 1141 170 96h739z"/><glyph glyph-name="product" unicode="∏" horiz-adv-x="1290" d="M1237 1403v-53q-44-3-69.5-6.5t-47-11-31-15.5-16-26-7.5-36.5-1-52.5V41q0-55 4-81.5t23-46 49-25.5 92-11v-53H741v53q39 3 60.5 5.5t41 10 27.5 16T884.5-63t7.5 41.5 1 60.5v1231q0 42-12.5 53.5T825 1335H461q-42 0-54-9.5t-12-47.5V39q0-41 .5-57.5t5-39.5T412-87.5t24-16.5 39.5-13 59.5-6v-53H55v53q62 5 91.5 11t49 24.5 23.5 45 4 81.5v1163q0 40-3 61t-11 39-29.5 26-50 13-80.5 9v53h1188z"/><glyph glyph-name="summation" unicode="∑" horiz-adv-x="1038" d="m993 186-82-370H55v49l424 694-416 795v49h850q3-63 23-318l-55-10q-24 129-60 195-21 40-59 53.5T621 1337H279l350-655L203-29h471q46 0 71.5 1.5t53 10 42 21.5 33 41 32.5 63 34 93z"/><glyph glyph-name="minus" unicode="−" horiz-adv-x="1366" d="M141 764h1084V639H141v125z"/><glyph glyph-name="uni2215" unicode="∕" horiz-adv-x="681" d="M786 1436h88L-104-57h-89z"/><glyph glyph-name="uni2219" unicode="∙" horiz-adv-x="555" d="M279 817q47 0 79.5-32.5T391 705q0-48-32.5-81.5T279 590t-81 34-34 81 33.5 79.5T279 817z"/><glyph glyph-name="radical" unicode="√" horiz-adv-x="1048" d="M1016 1790 696-307l-41-21L248 776 82 700l-21 66 304 137L672 35h4l262 1771z"/><glyph glyph-name="infinity" unicode="∞" horiz-adv-x="1449" d="M1358 582v-2q0-139-87-225.5T1065 268q-85 0-163 50T727 485q-59-69-102-110t-109.5-74T377 268q-118 0-202.5 87T90 573q0 133 86 220.5T391 881q97 0 178-56t164-159q84 94 119 124 106 91 225 91 122 0 201.5-83t79.5-216zM391 377h2q32 0 65.5 13t56.5 27.5 56.5 47 47.5 48 47 54.5q-36 47-49 63.5t-47 53-57 51-58 28-72 13.5q-84 0-132-59t-48-148q0-80 53.5-136T391 377zm674 399h-2q-28 0-57.5-10.5t-52-25-49.5-39-42.5-41.5-40-44.5T788 578q97-114 154.5-157.5T1071 377q78 0 126 60t48 134q0 93-50 149t-130 56z"/><glyph glyph-name="integral" unicode="∫" horiz-adv-x="729" d="m309 20-39 832q-40 844 303 844 44 0 81.5-25t37.5-69q0-42-26-65.5t-62-23.5q-22 0-37.5 14.5t-21.5 32-17 32-26 14.5q-13 0-25-8.5t-24-30-18.5-58.5-10.5-94 0-137l37-766q41-905-307-905-51 0-85 28.5T35-297q-1 40 29.5 68t72.5 28q18 0 32-15.5t21-34.5 18-34.5 25-15.5q43 0 63.5 86.5T309 20z"/><glyph glyph-name="approxequal" unicode="≈" horiz-adv-x="1009" d="m858 864 74-61q-40-85-102-138t-140-53q-51 0-94 17t-113 59q-51 32-86.5 48T322 752q-55 0-94-35.5T147 614l-75 60q42 86 111 137t151 51q21 0 43-4t36-8 36-14 29-14 30-17 24-14q80-49 111-59 24-7 49-7 51 0 88.5 34T858 864zm0-329 74-64q-40-84-101.5-136T690 283q-52 0-95 17t-112 58q-37 23-56 33.5T378.5 412 322 422q-57 0-96-36t-79-103l-75 61q42 86 111 137t149 51q19 0 37-2t35.5-7.5T434 513t29-13 23.5-12.5 24-14.5 19.5-12q8-5 27.5-17t28-16.5 25-13 27-12T663 396t29-3q52 0 88.5 34.5T858 535z"/><glyph glyph-name="notequal" unicode="≠" horiz-adv-x="1009" d="m729 987-76-174h265V700H610L496 436h422V324H453l-93-213-90 36 78 177H90v112h301l115 264H90v113h459l92 211z"/><glyph glyph-name="lessequal" unicode="≤" horiz-adv-x="1009" d="M913 209 100 635v121l813 426v-135L217 698v-4l696-348V209zm7-193H92v117h828V16z"/><glyph glyph-name="greaterequal" unicode="≥" horiz-adv-x="1009" d="m104 1182 811-426V635L104 209v135l695 350v4l-695 349v135zM918 16H94v117h824V16z"/><glyph glyph-name="lozenge" unicode="◊" horiz-adv-x="1056" d="M963 678 596-133H459L94 678l369 819h135zm-127 0-304 692h-6L221 682 526-12h6z"/><glyph glyph-name="fi" unicode="ﬁ" horiz-adv-x="1130" d="M946 961V201q0-91 34-129.5T1104 37V0H610v37q67 0 100 12.5t50.5 54T778 229v523q0 81-26.5 108T647 887H371V229q0-120 30.5-156T526 37V0H37v37q96-3 131 35t35 157v658H37v63h166q-4 132 29.5 234t94.5 162.5 138 91 166 30.5q118 0 205.5-55t87.5-129q0-34-23-58t-55-24q-33 0-60 21t-46.5 50.5T699 1333t-52.5 51-71.5 21q-96 0-150-77t-54-236V950h440q63 0 100 11h35z"/><glyph glyph-name="fl" unicode="ﬂ" horiz-adv-x="1130" d="M944 1468V225q0-118 31-153t127-35V0H612v37q100 0 132 35.5T776 225v662H371V225q0-117 32.5-152.5T530 37V0H39v37q33 0 53.5 2t41.5 8.5T166 66t20.5 33 13 51.5T203 225v662H39v63h164q-6 130 23 232t82.5 163 120 92 140.5 31q115 0 197-73l141 73h37zM776 950v312h-4q-14-39-57-39-31 0-58.5 27t-45.5 60-48 60-65 27q-127 0-127-236V950h405z"/><glyph glyph-name="one.superior" horiz-adv-x="598" d="m123 1339 205 91h39V797q0-53 18.5-66.5T469 717v-31H135v31q64 0 84.5 13t20.5 67v436q0 60-6.5 79t-26.5 19q-22 0-66-20z"/><glyph glyph-name="two.superior" horiz-adv-x="598" d="M88 1221H41q28 109 86 159t158 50q101 0 173-56.5t72-136.5q0-91-77-190.5T168 780v-4h246q56 0 83 13t42 45h47l-66-148H18v27q225 179 306.5 280.5T406 1186q0 63-46.5 105T244 1333q-106 0-156-112z"/><glyph glyph-name="three.superior" horiz-adv-x="598" d="m104 1251-38 17q68 162 229 162 85 0 142-45t57-111q0-78-103-156 69-25 106.5-75.5T535 924q0-107-97-178.5T193 674q-64 0-102 16.5T53 735q0 17 18 31t40 14q27 0 88.5-25.5T291 729q57 0 95 39.5t38 99.5q0 79-63 127.5T186 1040v31q92 13 140.5 54t48.5 104q0 49-36 80.5t-93 31.5q-49 0-81.5-21t-60.5-69z"/><glyph glyph-name="a.superior" horiz-adv-x="641" d="M633 981v-59q-81-97-160-97-43 0-69 25.5T381 911q-96-86-205-86-57 0-98 43T37 971q0 78 74.5 127.5T381 1217q0 105-16.5 139.5T287 1391q-43 0-70-19t-27-53q0-3 1.5-16t1.5-15q0-63-64-63-30 0-49 16t-19 41q0 63 68.5 105.5T301 1430q109 0 159-38t50-120V961q0-52 29-52 35 0 94 72zm-252-23v211q-130-52-171.5-85t-41.5-83q0-41 25.5-67.5T258 907q51 0 123 51z"/><glyph glyph-name="o.superior" horiz-adv-x="704" d="M664 1147q0-129-96-225.5T342 825q-123 0-211 84.5T43 1114q0 128 95 222t224 94q123 0 212.5-84t89.5-199zm-140-49q0 117-54 196.5T336 1374q-69 0-110.5-57.5T184 1161q0-118 54.5-199T373 881q68 0 109.5 59.5T524 1098z"/></font>
</defs>
</svg>
