<?xml version="1.0" standalone="no"?>
<!DOCTYPE svg PUBLIC "-//W3C//DTD SVG 20010904//EN"
 "http://www.w3.org/TR/2001/REC-SVG-20010904/DTD/svg10.dtd">
<svg version="1.0" xmlns="http://www.w3.org/2000/svg"
 width="300.000000pt" height="300.000000pt" viewBox="0 0 300.000000 300.000000"
 preserveAspectRatio="xMidYMid meet">
<metadata>
Created by potrace 1.14, written by Peter Selinger 2001-2017
</metadata>
<g transform="translate(0.000000,300.000000) scale(0.100000,-0.100000)"
fill="#000000" stroke="none">
<path d="M1880 2975 c-98 -16 -318 -70 -366 -90 -28 -11 -41 -11 -85 0 -209
55 -473 42 -778 -40 -219 -59 -423 -191 -521 -335 -44 -66 -47 -73 -71 -173
-18 -74 -19 -130 -19 -1074 0 -874 2 -1003 16 -1056 28 -111 96 -176 202 -198
53 -11 99 -10 294 4 127 10 262 25 300 33 62 14 76 22 124 70 30 30 54 61 54
69 0 21 17 18 30 -5 20 -38 97 -87 158 -100 49 -10 98 -9 288 5 126 9 257 23
292 31 75 17 142 60 173 111 12 21 23 39 25 41 1 2 24 -19 52 -46 42 -41 62
-52 117 -66 62 -15 82 -15 283 -1 340 25 426 50 482 140 50 81 50 69 50 1145
-1 936 -2 1010 -19 1082 -31 131 -101 225 -229 309 -86 57 -146 80 -307 121
-105 26 -141 31 -290 34 -114 2 -198 -1 -255 -11z m505 -285 c156 -42 270
-115 306 -194 18 -39 19 -91 19 -1043 l0 -1003 -22 -4 c-13 -3 -95 -10 -183
-16 -88 -6 -186 -13 -217 -17 l-58 -6 0 1002 c0 671 -3 1009 -10 1022 -17 30
-85 59 -155 66 -112 10 -237 -26 -291 -84 l-24 -26 0 -1007 0 -1006 -227 -17
c-126 -10 -234 -17 -240 -17 -10 0 -13 208 -13 1005 l0 1006 -26 24 c-38 35
-89 49 -179 49 -107 0 -183 -24 -235 -73 l-40 -38 0 -1006 c0 -952 -1 -1007
-17 -1007 -10 0 -99 -7 -198 -15 -99 -8 -199 -15 -222 -15 l-43 0 0 1003 0
1003 26 52 c63 127 259 239 514 293 83 17 140 22 275 23 167 1 231 -7 336 -40
43 -14 48 -13 101 10 85 38 214 75 313 91 136 22 405 14 510 -15z"/>
</g>
</svg>
